/* XPM */
static char *fbf96bd31c8e43799d87500a4a5a9036YUsiGy0VCOw0qJnH[] = {
/* columns rows colors chars-per-pixel */
"32 32 78 1 ",
"  c #d411aa",
". c #009845",
"X c #009946",
"o c #009A46",
"O c #009A47",
"+ c #009B47",
"@ c #009C47",
"# c #00A049",
"$ c #00A14A",
"% c #00A34B",
"& c #00A54C",
"* c #00A64D",
"= c #00A84D",
"- c #00A84E",
"; c #00AA4F",
": c #00AB4F",
"> c #00AC50",
", c #00AD50",
"< c #00AE51",
"1 c #00AF51",
"2 c #00AF52",
"3 c #00B253",
"4 c #00B353",
"5 c #00B354",
"6 c #00B454",
"7 c #00B554",
"8 c #00B555",
"9 c #00B655",
"0 c #00B656",
"q c #00B756",
"w c #00B857",
"e c #00B957",
"r c #00BA57",
"t c #00BB58",
"y c #00BC58",
"u c #00BD59",
"i c #00BE59",
"p c #00BD5A",
"a c #00BE5A",
"s c #00BF5A",
"d c #00C05B",
"f c #00C15B",
"g c #00C25C",
"h c #00C35C",
"j c #00C35D",
"k c #00C45D",
"l c #00C55D",
"z c #00C55E",
"x c #00C65E",
"c c #00C75E",
"v c #00C75F",
"b c #00C85F",
"n c #00C95F",
"m c #00C960",
"M c #00CA60",
"N c #00CB60",
"B c #00CC61",
"V c #00CD61",
"C c #00CD62",
"Z c #00CE62",
"A c #00CF62",
"S c #00D063",
"D c #00D163",
"F c #00D264",
"G c #00D364",
"H c #00D365",
"J c #00D465",
"K c #00D565",
"L c #00D566",
"P c #00D666",
"I c #00D766",
"U c #00D767",
"Y c #00D866",
"T c #00D867",
"R c #00D967",
"E c #00D968",
"W c #00DA68",
"Q c #00DB68",
/* pixels */
"                                ",
"            xAAAAAAb            ",
"         xAPPREQQERPPAx         ",
"        ASREEQQQQQERQESA        ",
"      xARREEEQEEEQEEEEEPSx      ",
"     xSERERRRRRERRRRRRRRRSx     ",
"    jSPPRPEPRREPRRRRRRRRPPAj    ",
"    APPPPPPPPPPPPPPPPPPPPPPA    ",
"   xPPPPPPPPPPPPPPPPPPPPPPPSb   ",
"  iASPSSPSPSSPSPSSSPSPSUPSSPAi  ",
"  xAPSSSSPSSSSPSPSPSSSSSSSSPAx  ",
"  mASSSSSSSSSSSSSSSSSSSCSSSSSm  ",
" tAAAAAAAAAAAACSSAAAAAAAAAAAAmt ",
" immmAmAAAAACmmAAACmAAmAmAAAAmi ",
" ibAAmAAmAmmAAmAAAAmAmAAAmAmAbi ",
" immmmmmmmmAmmmmmmmmmmmmmmmmbbi ",
" rxbbbmxbbbbbbbbmmxmbbbbbbbbbxr ",
" 9xxbxxxbxbxbxxxxxxxxxxxxbxxbx9 ",
" 3gxxxjxhhxhxxxjhxxxjxxxxxhxxj3 ",
" :ijjgjjhxjjjgjjjjjjjjjjjjxggi: ",
"  9gjjajggggjjjjggjjjjjjjjjjg9  ",
"  >ijaajgggijaiaigaaaaaaiaiji:  ",
"  $5aaaaiiiiaaaiiiiiaaaaiaii9$  ",
"   &0iitiititiiiiiiiiiiiiii9&   ",
"    :rttttttttttttttttttttt>    ",
"    X1990tttt00t9tt0tt9rt0>+    ",
"     +:9t09r0t0t0t0t909r5&+     ",
"      X$2999900009t00093%X      ",
"        @&135599959531&X        ",
"         XX$&>1111>&$XX         ",
"            ..XXXX..            ",
"                                "
};
