/* XPM */
static char * tile011_xpm[] = {
"50 50 272 2",
"  	c #D411AA",
". 	c #D26FB4",
"+ 	c #D197BD",
"@ 	c #D298BE",
"# 	c #D198BD",
"$ 	c #D08FBA",
"% 	c #D318A9",
"& 	c #D40CAA",
"* 	c #A28196",
"= 	c #020001",
"- 	c #353334",
"; 	c #302F30",
"> 	c #323132",
", 	c #303030",
"' 	c #313031",
") 	c #313131",
"! 	c #313030",
"~ 	c #302E2F",
"{ 	c #2C2B2B",
"] 	c #3B3D3C",
"^ 	c #CD55AB",
"/ 	c #A38196",
"( 	c #535253",
"_ 	c #F0EFEF",
": 	c #F2F1F1",
"< 	c #F3F2F3",
"[ 	c #F3F2F2",
"} 	c #F4F3F4",
"| 	c #F0EEEF",
"1 	c #D3D3D3",
"2 	c #3C3D3C",
"3 	c #CC51AA",
"4 	c #A48398",
"5 	c #565556",
"6 	c #F1F1F1",
"7 	c #8A8989",
"8 	c #828181",
"9 	c #807F80",
"0 	c #818080",
"a 	c #828081",
"b 	c #818081",
"c 	c #817F80",
"d 	c #848283",
"e 	c #C3C2C3",
"f 	c #DBDADB",
"g 	c #3E3E3E",
"h 	c #CD54AB",
"i 	c #EFEFEF",
"j 	c #3F3E3F",
"k 	c #0F0D0E",
"l 	c #100D0E",
"m 	c #110D0E",
"n 	c #100C0D",
"o 	c #0E0C0D",
"p 	c #100E0F",
"q 	c #B2B1B1",
"r 	c #3D3E3D",
"s 	c #CD53AB",
"t 	c #A48298",
"u 	c #565455",
"v 	c #3E3D3E",
"w 	c #110B0E",
"x 	c #110B0D",
"y 	c #0F090B",
"z 	c #0F0C0D",
"A 	c #B1B0B0",
"B 	c #CD53AA",
"C 	c #A38197",
"D 	c #F3F1F2",
"E 	c #A1A0A0",
"F 	c #9B9A9A",
"G 	c #A2A0A1",
"H 	c #282526",
"I 	c #120B0E",
"J 	c #120A0D",
"K 	c #0A0506",
"L 	c #A09D9E",
"M 	c #9C9A9A",
"N 	c #9A9899",
"O 	c #CDCBCC",
"P 	c #DBDADA",
"Q 	c #CC52AA",
"R 	c #4B4A4B",
"S 	c #DBDBDB",
"T 	c #DFDEDE",
"U 	c #E3E2E2",
"V 	c #FCFBFB",
"W 	c #3A3839",
"X 	c #130C0E",
"Y 	c #130A0D",
"Z 	c #020000",
"` 	c #F4F3F3",
" .	c #E5E4E5",
"..	c #DFDEDF",
"+.	c #DEDDDE",
"@.	c #C0BFC0",
"#.	c #3C3E3D",
"$.	c #A48097",
"%.	c #2F2E2F",
"&.	c #2B2A2A",
"*.	c #222122",
"=.	c #5A5859",
"-.	c #FCFBFC",
";.	c #3A3838",
">.	c #120B0D",
",.	c #12090C",
"'.	c #F6F5F5",
").	c #676666",
"!.	c #221F20",
"~.	c #2D2C2C",
"{.	c #4A4A4A",
"].	c #CC50AA",
"^.	c #D351AF",
"/.	c #D47AB7",
"(.	c #D47BB7",
"_.	c #A66D93",
":.	c #5E5D5E",
"<.	c #FDFCFC",
"[.	c #393838",
"}.	c #010000",
"|.	c #F6F6F6",
"1.	c #6B6A6A",
"2.	c #985C85",
"3.	c #D57DB9",
"4.	c #D47BB8",
"5.	c #D271B4",
"6.	c #D40BAA",
"7.	c #A23585",
"8.	c #5D5C5D",
"9.	c #F7F6F7",
"0.	c #6C6A6B",
"a.	c #931076",
"b.	c #6C6B6B",
"c.	c #931075",
"d.	c #A23685",
"e.	c #5C5C5D",
"f.	c #FCFCFC",
"g.	c #5D5D5D",
"h.	c #6D6A6B",
"i.	c #D435AD",
"j.	c #C458A4",
"k.	c #C55CA6",
"l.	c #C45AA5",
"m.	c #C55BA6",
"n.	c #C55BA5",
"o.	c #C45BA5",
"p.	c #C359A4",
"q.	c #D346AD",
"r.	c #D390BD",
"s.	c #141112",
"t.	c #171515",
"u.	c #131111",
"v.	c #141212",
"w.	c #131212",
"x.	c #151515",
"y.	c #262626",
"z.	c #C04FA0",
"A.	c #D391BC",
"B.	c #000000",
"C.	c #C2C0C1",
"D.	c #DDDCDD",
"E.	c #CFCFCF",
"F.	c #272727",
"G.	c #DDDCDC",
"H.	c #B3B1B2",
"I.	c #838282",
"J.	c #B0AFAF",
"K.	c #EAEAEA",
"L.	c #DEDDDD",
"M.	c #939292",
"N.	c #110E0F",
"O.	c #120F0F",
"P.	c #919191",
"Q.	c #D40FAA",
"R.	c #C966AA",
"S.	c #B34694",
"T.	c #B34594",
"U.	c #8B4977",
"V.	c #5C5B5C",
"W.	c #13090D",
"X.	c #F6F6F7",
"Y.	c #6B696A",
"Z.	c #7E386A",
"`.	c #B44995",
" +	c #B34995",
".+	c #B34895",
"++	c #B587A5",
"@+	c #949293",
"#+	c #120E0F",
"$+	c #130F10",
"%+	c #919091",
"&+	c #A38096",
"*+	c #080707",
"=+	c #0C0A0B",
"-+	c #070506",
";+	c #595758",
">+	c #FBFBFB",
",+	c #3B3939",
"'+	c #110A0C",
")+	c #150D0F",
"!+	c #F5F4F4",
"~+	c #6A6A6A",
"{+	c #080808",
"]+	c #070707",
"^+	c #020101",
"/+	c #020202",
"(+	c #0B0506",
"_+	c #949393",
":+	c #A58399",
"<+	c #515050",
"[+	c #ECEBEC",
"}+	c #EEEEEE",
"|+	c #FBFAFB",
"1+	c #030000",
"2+	c #F5F3F4",
"3+	c #F1F0F1",
"4+	c #EDEDED",
"5+	c #F0EFF0",
"6+	c #EDECEC",
"7+	c #FAF9FA",
"8+	c #555354",
"9+	c #646363",
"0+	c #555455",
"a+	c #5A5959",
"b+	c #191616",
"c+	c #0D0809",
"d+	c #595858",
"e+	c #545354",
"f+	c #555454",
"g+	c #575555",
"h+	c #393637",
"i+	c #565555",
"j+	c #403E3F",
"k+	c #0F0E0E",
"l+	c #100B0D",
"m+	c #110E0E",
"n+	c #110C0E",
"o+	c #120C0E",
"p+	c #120D0E",
"q+	c #130D0F",
"r+	c #F2F2F2",
"s+	c #A2A1A2",
"t+	c #9C9B9B",
"u+	c #9C9B9C",
"v+	c #9D9C9D",
"w+	c #9D9B9C",
"x+	c #9D9D9D",
"y+	c #BDBCBD",
"z+	c #252525",
"A+	c #C04D9F",
"B+	c #A58499",
"C+	c #484748",
"D+	c #D0CFD0",
"E+	c #D5D5D5",
"F+	c #D6D5D5",
"G+	c #D6D4D5",
"H+	c #D4D4D4",
"I+	c #C8C8C8",
"J+	c #282828",
"K+	c #A38297",
"L+	c #000200",
"M+	c #000400",
"N+	c #000100",
"O+	c #151A17",
"P+	c #D442AE",
"Q+	c #D673B8",
"R+	c #D66EB7",
"S+	c #D669B5",
"T+	c #D670B7",
"U+	c #D45DB2",
"V+	c #D66EB6",
"W+	c #D311A9",
"                                                                                                    ",
"                                                                                                    ",
"                                                                                                    ",
"                                                                                                    ",
"                                                                                                    ",
"                                                                                                    ",
"                          . + @ @ @ @ @ @ @ @ @ @ @ @ # $ %                                         ",
"                        & * = - ; > , ' ) ) ) ' ! > ~ { ] ^                                         ",
"                        & / ( _ : < [ < < < < < [ } | 1 2 3                                         ",
"                        & 4 5 6 7 8 9 0 a b b 0 c d e f g h                                         ",
"                        & 4 5 i j k l m m n n n o p q f r s                                         ",
"                        & t u i v o n w x x x y z o A f r B                                         ",
"                        & C u D E F G H I J K L M N O P ] Q                                         ",
"                        & C R S T U V W X Y Z `  ...+.@.#.Q                                         ",
"                        & $.%.&.*.=.-.;.>.,.Z '.).!.{ ~.{.].                                        ",
"                          ^./.(._.:.<.[.I Y }.|.1.2.3.4.5.6.                                        ",
"                                7.8.<.[.I Y Z 9.0.a.                                                ",
"                                7.8.<.[.I Y Z 9.b.c.                                                ",
"                                d.e.f.[.I Y Z 9.0.c.                                                ",
"                                d.g.f.[.I Y Z 9.0.c.                                                ",
"                                d.g.f.[.I Y Z 9.h.c.                                                ",
"                                d.g.f.[.I Y Z 9.h.c.                                                ",
"                                d.g.f.[.I Y Z 9.h.c.                                                ",
"                                d.g.f.[.I Y Z 9.h.c.                                                ",
"                                d.g.f.[.I Y Z 9.h.c.                                                ",
"                                d.g.f.[.I Y Z 9.h.c.                                                ",
"                                d.g.f.[.I Y Z 9.h.c.                                                ",
"                                d.g.f.[.I Y Z 9.h.c.                                                ",
"                                d.g.f.[.I Y Z 9.h.c.                                                ",
"                                d.g.f.[.I Y Z 9.h.c.      i.j.k.l.m.k.n.o.p.q.                      ",
"                                d.g.f.[.I Y Z 9.h.c.      r.s.t.u.v.v.w.x.y.z.                      ",
"                                d.g.f.[.I Y Z 9.0.c.      A.B.C.f D.D.f E.F.z.                      ",
"                                d.g.f.[.I Y Z 9.0.c.      A.B.G.H.8 I.J.K.y.z.                      ",
"                                d.g.f.[.I Y Z 9.0.c.      A.B.L.M.N.O.P.K.y.z.                      ",
"                        Q.R.S.T.U.V.f.[.I W.Z X.Y.Z.`. +.+++B.L.@+#+$+%+K.y.z.                      ",
"                        & &+*+=+-+;+>+,+'+)+}.!+~+{+]+^+/+/+(+P _+m O.%+K.y.z.                      ",
"                        & :+<+[+}+_ |+,+>.,.1+2+3+}+4+i 5+i 6+7+_+m $+%+K.y.z.                      ",
"                        & 4 8+_ 9+0+a+b+X Y c+d+e+0+0+f+0+f+u g+h+m #+%+K.y.z.                      ",
"                        & 4 i+i j+k+k n J Y l+z m m m+N.m m n+m n n #+%+K.y.z.                      ",
"                        & 4 i+i j+p k #+X Y o+l p+q+q+q+q+p+m n n m #+P.K.y.z.                      ",
"                        & :+0+r+s+t+u+v+v+v+v+v+v+v+v+v+v+v+v+v+v+w+x+y+K.z+A+                      ",
"                        & B+C+D+E+F+E+F+F+F+F+F+F+F+F+F+F+F+F+F+F+G+E+H+I+J+z.                      ",
"                        & K+L+L+L+M+N+N+N+N+N+N+N+N+N+N+N+N+N+N+N+B.B.B.M+O+z.                      ",
"                          P+Q+R+S+S+S+S+S+S+S+S+S+S+S+S+S+S+S+S+S+S+S+T+U+V+W+                      ",
"                                                                                                    ",
"                                                                                                    ",
"                                                                                                    ",
"                                                                                                    ",
"                                                                                                    ",
"                                                                                                    "};
