/* XPM */
static char * tile034_xpm[] = {
"50 50 409 2",
"  	c #D411AA",
". 	c #CF12A6",
"+ 	c #CF13A6",
"@ 	c #D012A6",
"# 	c #B10E8E",
"$ 	c #1E131A",
"% 	c #02150B",
"& 	c #001207",
"* 	c #001308",
"= 	c #2A0F22",
"- 	c #B70E92",
"; 	c #AE0F8B",
"> 	c #252224",
", 	c #BFBEBF",
"' 	c #D4D3D4",
") 	c #D6D5D6",
"! 	c #D7D6D7",
"~ 	c #B6B5B5",
"{ 	c #22121D",
"] 	c #B40D90",
"^ 	c #AA1188",
"/ 	c #100D0E",
"( 	c #C9C7C8",
"_ 	c #E9E7E8",
": 	c #AAA8A9",
"< 	c #A8A7A8",
"[ 	c #ACABAB",
"} 	c #EBE9EA",
"| 	c #BBBABA",
"1 	c #080004",
"2 	c #B10F8D",
"3 	c #D410AA",
"4 	c #A71C86",
"5 	c #1D171A",
"6 	c #C6C5C6",
"7 	c #EDEBEC",
"8 	c #636161",
"9 	c #120E0F",
"0 	c #110E0E",
"a 	c #110D0E",
"b 	c #0F0B0C",
"c 	c #767475",
"d 	c #ECEBEC",
"e 	c #C0BFC0",
"f 	c #1B1318",
"g 	c #AF238D",
"h 	c #A83389",
"i 	c #282326",
"j 	c #C2C0C1",
"k 	c #F1EFF0",
"l 	c #130E10",
"m 	c #120D0E",
"n 	c #130E0F",
"o 	c #110C0D",
"p 	c #110C0E",
"q 	c #130D0F",
"r 	c #100B0D",
"s 	c #858383",
"t 	c #F5F4F5",
"u 	c #BDBCBD",
"v 	c #2C2429",
"w 	c #B44895",
"x 	c #D40EAA",
"y 	c #D414AA",
"z 	c #AD5192",
"A 	c #282727",
"B 	c #BDBBBC",
"C 	c #F3F1F2",
"D 	c #7A797A",
"E 	c #181415",
"F 	c #2C292A",
"G 	c #292627",
"H 	c #292728",
"I 	c #2A2728",
"J 	c #2C2A2A",
"K 	c #120D0F",
"L 	c #878586",
"M 	c #F7F5F6",
"N 	c #ABAAAA",
"O 	c #393638",
"P 	c #B95E9D",
"Q 	c #D412AA",
"R 	c #D223A9",
"S 	c #535754",
"T 	c #9B9A9A",
"U 	c #F3F2F3",
"V 	c #787677",
"W 	c #100B0C",
"X 	c #232222",
"Y 	c #E7E6E7",
"Z 	c #E9E8E9",
"` 	c #ADABAC",
" .	c #161515",
"..	c #120C0E",
"+.	c #858485",
"@.	c #909090",
"#.	c #747474",
"$.	c #D419AA",
"%.	c #D221A9",
"&.	c #4E514F",
"*.	c #B0AEAF",
"=.	c #BFBDBE",
"-.	c #0F0A0B",
";.	c #140F11",
">.	c #1F1C1C",
",.	c #C1BFC0",
"'.	c #E8E7E8",
").	c #989898",
"!.	c #949494",
"~.	c #959595",
"{.	c #969596",
"].	c #949394",
"^.	c #9D9C9D",
"/.	c #EFEDEE",
"(.	c #B0B0B0",
"_.	c #131011",
":.	c #0A0608",
"<.	c #D1D1D1",
"[.	c #AFAFAF",
"}.	c #6F6E6F",
"|.	c #D418AA",
"1.	c #D222A9",
"2.	c #505351",
"3.	c #C0BEBF",
"4.	c #0D0809",
"5.	c #150F11",
"6.	c #949192",
"7.	c #F1F0F1",
"8.	c #626162",
"9.	c #654F5D",
"0.	c #955581",
"a.	c #955480",
"b.	c #955380",
"c.	c #965581",
"d.	c #503A48",
"e.	c #7D7C7D",
"f.	c #EEEDED",
"g.	c #9C9B9B",
"h.	c #110B0D",
"i.	c #0B0708",
"j.	c #D0D0D0",
"k.	c #B1B1B1",
"l.	c #4F5150",
"m.	c #B0AFB0",
"n.	c #C1C0C0",
"o.	c #0D090A",
"p.	c #9E9C9C",
"q.	c #E4E3E4",
"r.	c #161415",
"s.	c #CC80B3",
"t.	c #C33CA0",
"u.	c #202321",
"v.	c #BFBEBE",
"w.	c #B9B8B9",
"x.	c #100A0C",
"y.	c #090507",
"z.	c #1A1919",
"A.	c #D48DBC",
"B.	c #D018A7",
"C.	c #272C29",
"D.	c #B8B7B7",
"E.	c #D01AA7",
"F.	c #2D312E",
"G.	c #C1C1C1",
"H.	c #0F090B",
"I.	c #1A1819",
"J.	c #D38ABA",
"K.	c #D019A7",
"L.	c #292E2B",
"M.	c #C2C1C2",
"N.	c #BAB8B9",
"O.	c #D48CBC",
"P.	c #2A2E2C",
"Q.	c #9F9C9D",
"R.	c #ECEAEB",
"S.	c #3F3E3E",
"T.	c #884573",
"U.	c #C463A6",
"V.	c #C15DA3",
"W.	c #C25DA3",
"X.	c #C163A4",
"Y.	c #2A2C2A",
"Z.	c #B9B7B8",
"`.	c #AFAEAF",
" +	c #140E10",
".+	c #484747",
"++	c #E2E1E2",
"@+	c #D6D4D5",
"#+	c #373636",
"$+	c #000000",
"%+	c #BCBBBC",
"&+	c #B8B7B8",
"*+	c #0E080A",
"=+	c #4D504E",
"-+	c #E2E0E1",
";+	c #413F40",
">+	c #120E0E",
",+	c #414041",
"'+	c #E3E1E2",
")+	c #F9F8F9",
"!+	c #F7F7F7",
"~+	c #FAF9FA",
"{+	c #F8F7F8",
"]+	c #F9F7F8",
"^+	c #D320AA",
"/+	c #947188",
"(+	c #393838",
"_+	c #D5D3D4",
":+	c #DDDCDD",
"<+	c #3A3839",
"[+	c #423F40",
"}+	c #7E7B7C",
"|+	c #7B797A",
"1+	c #7C797A",
"2+	c #7B7879",
"3+	c #7B7A7A",
"4+	c #5D5B5C",
"5+	c #130B0D",
"6+	c #120B0E",
"7+	c #0A0507",
"8+	c #D0CFD0",
"9+	c #D22EAA",
"0+	c #8B5D7C",
"a+	c #444344",
"b+	c #DEDCDD",
"c+	c #DFDDDE",
"d+	c #363535",
"e+	c #141011",
"f+	c #140F10",
"g+	c #110F10",
"h+	c #140B0E",
"i+	c #130B0E",
"j+	c #0B0507",
"k+	c #D127A9",
"l+	c #80426D",
"m+	c #565555",
"n+	c #E6E5E6",
"o+	c #E0DEDF",
"p+	c #3A3838",
"q+	c #100C0D",
"r+	c #0F0C0D",
"s+	c #150C0F",
"t+	c #D117A8",
"u+	c #7A2763",
"v+	c #5F5E5F",
"w+	c #EAE9EA",
"x+	c #D9D8D9",
"y+	c #A4A3A3",
"z+	c #A4A2A3",
"A+	c #A5A4A4",
"B+	c #A5A3A4",
"C+	c #A09E9F",
"D+	c #787778",
"E+	c #D212A9",
"F+	c #7A1161",
"G+	c #585758",
"H+	c #DEDEDE",
"I+	c #E9E9E9",
"J+	c #B8B6B7",
"K+	c #10070A",
"L+	c #D311A9",
"M+	c #7E0964",
"N+	c #0A1A11",
"O+	c #131E18",
"P+	c #15201A",
"Q+	c #151F19",
"R+	c #141F19",
"S+	c #1F1F1F",
"T+	c #C0BFBF",
"U+	c #B8B6B6",
"V+	c #D458B1",
"W+	c #9B267E",
"X+	c #991B7B",
"Y+	c #991C7B",
"Z+	c #971C79",
"`+	c #912575",
" @	c #922A77",
".@	c #AC458F",
"+@	c #CD10A5",
"@@	c #CA19A2",
"#@	c #2C312F",
"$@	c #D883BC",
"%@	c #302E2F",
"&@	c #585757",
"*@	c #626061",
"=@	c #626161",
"-@	c #302F2F",
";@	c #884D75",
">@	c #2A2F2C",
",@	c #DA8BC0",
"'@	c #2D2A2C",
")@	c #DAD8D9",
"!@	c #FAF8F9",
"~@	c #895177",
"{@	c #2C312E",
"]@	c #B9B8B8",
"^@	c #DB91C2",
"/@	c #2C2B2C",
"(@	c #D8D7D8",
"_@	c #A9A8A9",
":@	c #171516",
"<@	c #E6E4E5",
"[@	c #797878",
"}@	c #884F76",
"|@	c #2B302D",
"1@	c #C0C0C0",
"2@	c #AEADAE",
"3@	c #0F0D0E",
"4@	c #1F1E1E",
"5@	c #A7A5A6",
"6@	c #363636",
"7@	c #B7639D",
"8@	c #A62586",
"9@	c #232524",
"0@	c #D3D2D3",
"a@	c #B5B4B5",
"b@	c #DA8EC1",
"c@	c #D8D6D7",
"d@	c #AFAEAE",
"e@	c #858283",
"f@	c #F2F0F1",
"g@	c #9D9B9C",
"h@	c #100A0D",
"i@	c #14000B",
"j@	c #14000A",
"k@	c #15000B",
"l@	c #221F21",
"m@	c #C3C3C3",
"n@	c #E8E6E7",
"o@	c #565455",
"p@	c #090708",
"q@	c #CFCFCF",
"r@	c #717070",
"s@	c #D98BC0",
"t@	c #2C2B2B",
"u@	c #060203",
"v@	c #130C0E",
"w@	c #898787",
"x@	c #DEDDDE",
"y@	c #DFDFDF",
"z@	c #E0E0E0",
"A@	c #E5E4E4",
"B@	c #E3E3E3",
"C@	c #595657",
"D@	c #3E3E3E",
"E@	c #6E6D6E",
"F@	c #D565B4",
"G@	c #62525C",
"H@	c #757474",
"I@	c #817E7F",
"J@	c #B5B3B4",
"K@	c #B3B1B2",
"L@	c #B3B2B3",
"M@	c #B3B2B2",
"N@	c #5B595A",
"O@	c #DCDBDC",
"P@	c #545454",
"Q@	c #8B5A7A",
"R@	c #D415AA",
"S@	c #C737A2",
"T@	c #4B2E41",
"U@	c #888788",
"V@	c #171414",
"W@	c #2E2C2D",
"X@	c #D3D1D2",
"Y@	c #E7E7E7",
"Z@	c #535353",
"`@	c #782261",
" #	c #D119A8",
".#	c #C625A0",
"+#	c #4A1B3C",
"@#	c #8E8C8D",
"##	c #FAF7F8",
"$#	c #ABA9AA",
"%#	c #0E0A0B",
"&#	c #272324",
"*#	c #C3C1C2",
"=#	c #565556",
"-#	c #790F60",
";#	c #D113A8",
">#	c #C5119E",
",#	c #4F0E3F",
"'#	c #8D8B8C",
")#	c #F5F3F4",
"!#	c #9A999A",
"~#	c #191516",
"{#	c #7D0B63",
"]#	c #D211A9",
"^#	c #C60F9F",
"/#	c #530A41",
"(#	c #8E8E8E",
"_#	c #F5F5F5",
":#	c #F9F8F8",
"<#	c #FBFBFB",
"[#	c #FAF9F9",
"}#	c #EDECED",
"|#	c #636363",
"1#	c #820C67",
"2#	c #D311AA",
"3#	c #C910A1",
"4#	c #550B43",
"5#	c #858585",
"6#	c #838383",
"7#	c #575858",
"8#	c #870F6C",
"9#	c #CB10A3",
"0#	c #9E0C7E",
"a#	c #9F0B7F",
"b#	c #A60C85",
"                                                                                                    ",
"                                                                                                    ",
"                                                                                                    ",
"                                                                                                    ",
"                                                                                                    ",
"                                                                                                    ",
"                                                                                                    ",
"                                              . + + + + + + + + + + + @                             ",
"                                            # $ % & * * * * * * * * * = -                           ",
"                                          ; > , ' ) ! ! ! ! ! ! ! ! ' ~ { ]                         ",
"                                        ^ / ( _ : < : : : : : : : : [ } | 1 2                       ",
"                                    3 4 5 6 7 8 9 0 9 9 9 9 9 a a a b c d e f g 3                   ",
"                                  3 h i j k c l m l n n n n n o p p q r s t u v w x                 ",
"                                y z A B C D a n m E F G H I I G J l m K a L M N O P Q               ",
"                                R S T U V W K W X B Y Z Z } } _ _ `  ./ ..m +.U @.#.$.              ",
"                                %.&.*.=.-.;.K >.,.'.).!.~.{.{.].^./.(._.m l :.<.[.}.|.              ",
"                                1.2.(.3.4.o 5.6.7.8.9.0.a.b.b.c.d.e.f.g.h...i.j.k.}.|.              ",
"                                %.l.m.n.o.h.K p.q.r.s.          t.u.v.w.x.p y.j.(.}.|.              ",
"                                %.l.m.n.o.h.K p.q.z.A.          B.C.e D.-.p y.j.(.}.|.              ",
"                                %.l.m.n.o.h.K p.q.z.A.          E.F.G.w.H.p y.j.(.}.|.              ",
"                                %.l.m.n.o.h.K p.q.I.J.          K.L.M.N.H.p y.j.(.}.|.              ",
"                                %.l.m.n.o.h.K p.q.z.O.          K.P.M.N.H.p y.j.(.}.|.              ",
"                                %.l.m.3.r p q Q.R.S.T.U.V.W.W.W.X.Y.n.Z.x.p y.j.(.}.|.              ",
"                                %.&.`.e o.p  +.+++@+#+$+$+$+$+$+$+$+%+&+*+p y.j.(.}.|.              ",
"                                %.=+: -+;+m p >+,+'+)+!+)+~+~+{+]+]+)+&+H.p y.j.(.}.|.              ",
"                                ^+/+(+_+:+<+9 K ..[+}+|+|+1+1+1+2+1+3+4+5+6+7+8+(.}.|.              ",
"                                  9+0+a+b+c+d+e+K m f+n K n n n n n g+m h+i+j+8+(.}.|.              ",
"                                    k+l+m+n+o+p+9 a a 9 a q+q+q+q+q+r+m s+i+j+8+(.}.|.              ",
"                                      t+u+v+w+x+y+z+y+y+y+y+y+A+B+A+C+D+s+i+j+8+(.}.|.              ",
"                                        E+F+G+H+Y w+w+w+w+w+w+w+I+Z t J+K+i+j+8+(.}.|.              ",
"                                          L+M+N+O+P+Q+P+Q+R+R+P+Q+S+T+U+5+6+7+8+(.}.|.              ",
"                                  V+W+X+Y+Y+Z+`+ @`+.@+@+@+@+@+@@@#@M.N.H.p y.j.(.}.|.              ",
"                                  $@%@&@*@8.8.8.=@-@;@3         K.>@M.N.H.p y.j.(.}.|.              ",
"                                  ,@'@)@!@!@)+M ~+D ~@3         E.{@G.]@-.p y.j.(.}.|.              ",
"                                  ^@/@(@_@$+$+:@<@[@}@          K.|@1@w.H.p y.j.(.}.|.              ",
"                                  ^@/@(@2@g+3@4@Y 5@6@7@x       8@9@0@a@x.p y.j.(.}.|.              ",
"                                  b@/@c@d@3@9 ..e@f@g@h@i@j@j@k@l@m@n@o@o r+p@q@(.r@|.              ",
"                                  s@t@) M.u@n i+v@w@f@x@y@z@z@x@A@B@C@o q+3@D@B@[.E@|.              ",
"                                  F@G@H@k w.r ..K a I@J@K@L@L@M@*.N@..m a #+O@I+P@Q@R@              ",
"                                    S@T@U@M B V@e+a a K a a a a a 0 p m W@X@Y@Z@`@ #                ",
"                                      .#+#@###$#%#m ..v@..m m m m m ..&#*#_ =#-#;#                  ",
"                                        >#,#'#)#!#a ;.5.;.e+e+e+e+e+~#B } v+{#]#                    ",
"                                          ^#/#(#_#:#<#<#<#<#<#<#<#<#[#}#|#1#2#                      ",
"                                            3#4##.5#5#5#5#5#5#5#5#5#6#7#8#                          ",
"                                              9#0#a#a#a#a#a#a#a#a#a#a#b#L+                          ",
"                                                                                                    ",
"                                                                                                    ",
"                                                                                                    ",
"                                                                                                    ",
"                                                                                                    "};
