/* XPM */
static char * tile012_xpm[] = {
"50 50 606 2",
"  	c #D411AA",
". 	c #D410AA",
"+ 	c #D371B4",
"@ 	c #D197BD",
"# 	c #D298BE",
"$ 	c #D196BD",
"% 	c #D279B6",
"& 	c #D415AA",
"* 	c #D198BE",
"= 	c #D297BD",
"- 	c #D198BD",
"; 	c #D43EAD",
"> 	c #D404AA",
", 	c #A78F9E",
"' 	c #000000",
") 	c #343434",
"! 	c #313131",
"~ 	c #303030",
"{ 	c #313031",
"] 	c #313030",
"^ 	c #333333",
"/ 	c #323232",
"( 	c #2A2A2A",
"_ 	c #604957",
": 	c #D414AA",
"< 	c #BF4D9F",
"[ 	c #353434",
"} 	c #302F30",
"| 	c #323131",
"1 	c #2A2929",
"2 	c #D292BD",
"3 	c #AB93A2",
"4 	c #454344",
"5 	c #EFEFEF",
"6 	c #F2F1F2",
"7 	c #F3F2F2",
"8 	c #F3F2F3",
"9 	c #E1E0E0",
"0 	c #C0489F",
"a 	c #94457C",
"b 	c #747373",
"c 	c #F1F0F1",
"d 	c #F0EFF0",
"e 	c #C9C8C8",
"f 	c #151414",
"g 	c #D596C0",
"h 	c #403F40",
"i 	c #868485",
"j 	c #828181",
"k 	c #828081",
"l 	c #818080",
"m 	c #7F7E7F",
"n 	c #929191",
"o 	c #F4F4F4",
"p 	c #6D6D6D",
"q 	c #953F7C",
"r 	c #D11FA8",
"s 	c #57384D",
"t 	c #B6B5B5",
"u 	c #DEDDDE",
"v 	c #807E7F",
"w 	c #807F7F",
"x 	c #818081",
"y 	c #807F80",
"z 	c #ACABAC",
"A 	c #D2D2D2",
"B 	c #171516",
"C 	c #D697C0",
"D 	c #434041",
"E 	c #383637",
"F 	c #100C0D",
"G 	c #100C0E",
"H 	c #070203",
"I 	c #DFDCDD",
"J 	c #B1B1B1",
"K 	c #5C3850",
"L 	c #D21EA9",
"M 	c #BD449C",
"N 	c #0E1310",
"O 	c #E4E3E4",
"P 	c #A4A4A4",
"Q 	c #0F0D0E",
"R 	c #100D0E",
"S 	c #0F0B0C",
"T 	c #919091",
"U 	c #D4D4D4",
"V 	c #171616",
"W 	c #434142",
"X 	c #EFEEEF",
"Y 	c #383536",
"Z 	c #110B0D",
"` 	c #10090C",
" .	c #110B0E",
"..	c #120C0E",
"+.	c #A8A7A7",
"@.	c #E3E3E3",
"#.	c #0E1511",
"$.	c #BF419D",
"%.	c #D40FAA",
"&.	c #8D4477",
"*.	c #767576",
"=.	c #F6F5F6",
"-.	c #0E0C0D",
";.	c #100E0F",
">.	c #120B0E",
",.	c #110C0D",
"'.	c #908F90",
").	c #161616",
"!.	c #AA92A1",
"~.	c #F4F3F3",
"{.	c #A09E9F",
"].	c #999898",
"^.	c #A19FA0",
"/.	c #222020",
"(.	c #464444",
"_.	c #F7F6F6",
":.	c #8F4078",
"<.	c #CF2DA8",
"[.	c #4C2D41",
"}.	c #BDBCBD",
"|.	c #D5D4D5",
"1.	c #110E0F",
"2.	c #100B0D",
"3.	c #110C0E",
"4.	c #716F6F",
"5.	c #9C9B9B",
"6.	c #999999",
"7.	c #BFBEBF",
"8.	c #161515",
"9.	c #D596BF",
"0.	c #3D3C3C",
"a.	c #DCDCDC",
"b.	c #DFDFDF",
"c.	c #FAF9F9",
"d.	c #120D0F",
"e.	c #D7D6D6",
"f.	c #BBBABB",
"g.	c #502D44",
"h.	c #D030A9",
"i.	c #B94298",
"j.	c #2B2D2C",
"k.	c #E8E7E7",
"l.	c #9F9E9F",
"m.	c #100B0C",
"n.	c #110D0E",
"o.	c #F2F2F2",
"p.	c #B8B8B8",
"q.	c #181818",
"r.	c #D597C0",
"s.	c #D406AA",
"t.	c #A88E9E",
"u.	c #2F2F2F",
"v.	c #2C2C2C",
"w.	c #201F1F",
"x.	c #5F5E5E",
"y.	c #FCFBFC",
"z.	c #333132",
"A.	c #130D0F",
"B.	c #A3A1A1",
"C.	c #E5E4E5",
"D.	c #2A2C2B",
"E.	c #BB469A",
"F.	c #864171",
"G.	c #F5F4F5",
"H.	c #2C292A",
"I.	c #150F11",
"J.	c #A9A8A9",
"K.	c #DDDDDD",
"L.	c #111111",
"M.	c #2D2D2D",
"N.	c #343534",
"O.	c #D290BB",
"P.	c #D353AF",
"Q.	c #D37BB7",
"R.	c #D57CB8",
"S.	c #A77194",
"T.	c #636363",
"U.	c #FEFDFD",
"V.	c #343333",
"W.	c #2C2728",
"X.	c #817F80",
"Y.	c #343132",
"Z.	c #F6F5F5",
"`.	c #757474",
" +	c #8B4977",
".+	c #D40EAA",
"++	c #CF3CA9",
"@+	c #36222F",
"#+	c #C2C1C1",
"$+	c #CBCACB",
"%+	c #0E0A0B",
"&+	c #110A0C",
"*+	c #807D7E",
"=+	c #100A0C",
"-+	c #E0E0E0",
";+	c #303331",
">+	c #CC80B3",
",+	c #D41CAA",
"'+	c #A44689",
")+	c #636262",
"!+	c #FEFEFE",
"~+	c #1A1617",
"{+	c #B9B6B8",
"]+	c #0E0B0C",
"^+	c #CCCBCB",
"/+	c #BFBEBE",
"(+	c #3C2835",
"_+	c #D038A9",
":+	c #B24994",
"<+	c #393939",
"[+	c #E9E9E9",
"}+	c #8F8E8F",
"|+	c #333031",
"1+	c #AEABAC",
"2+	c #110E0E",
"3+	c #ACABAB",
"4+	c #E1E0E1",
"5+	c #323634",
"6+	c #CA2EA3",
"7+	c #A44589",
"8+	c #1A1517",
"9+	c #E3E1E2",
"0+	c #302E2F",
"a+	c #919191",
"b+	c #E9E8E9",
"c+	c #373637",
"d+	c #B65C9B",
"e+	c #875C79",
"f+	c #838383",
"g+	c #282526",
"h+	c #838182",
"i+	c #C3C2C3",
"j+	c #353333",
"k+	c #1A1718",
"l+	c #F6F4F5",
"m+	c #0E0D0E",
"n+	c #2F2C2D",
"o+	c #7D7C7D",
"p+	c #8D647F",
"q+	c #D365B2",
"r+	c #2B292A",
"s+	c #C2C1C2",
"t+	c #C5C4C4",
"u+	c #0E080A",
"v+	c #040102",
"w+	c #CDCCCC",
"x+	c #1B1818",
"y+	c #CACACA",
"z+	c #050304",
"A+	c #0B0608",
"B+	c #C7C6C6",
"C+	c #BEBDBE",
"D+	c #322F31",
"E+	c #D45EB2",
"F+	c #B06999",
"G+	c #3A393A",
"H+	c #EEEEEE",
"I+	c #7E7D7D",
"J+	c #434243",
"K+	c #F0F0F0",
"L+	c #C5C4C5",
"M+	c #F1F0F0",
"N+	c #414141",
"O+	c #120E0F",
"P+	c #838282",
"Q+	c #EEEDEE",
"R+	c #373737",
"S+	c #B26A9A",
"T+	c #D42BAB",
"U+	c #7F6074",
"V+	c #8E8D8D",
"W+	c #EBEAEB",
"X+	c #FCFCFC",
"Y+	c #C4C4C4",
"Z+	c #909090",
"`+	c #333232",
" @	c #ECEBEC",
".@	c #8A898A",
"+@	c #815F75",
"@@	c #D428AB",
"#@	c #CF61AF",
"$@	c #2C2F2D",
"%@	c #C7C6C7",
"&@	c #C1C0C0",
"*@	c #050001",
"=@	c #D4D3D4",
"-@	c #FBFAFA",
";@	c #C3C3C3",
">@	c #F8F7F8",
",@	c #CDCCCD",
"'@	c #D3D3D3",
")@	c #080203",
"!@	c #0F0A0C",
"~@	c #0C0809",
"{@	c #C3C2C2",
"]@	c #C3C4C3",
"^@	c #313433",
"/@	c #CF5AAD",
"(@	c #AA6794",
"_@	c #3C3B3B",
":@	c #6D6C6D",
"<@	c #575454",
"[@	c #F7F6F7",
"}@	c #D6D6D6",
"|@	c #F8F6F7",
"1@	c #848484",
"2@	c #F7F7F7",
"3@	c #504F4F",
"4@	c #737172",
"5@	c #AE719A",
"6@	c #6F5164",
"7@	c #949394",
"8@	c #262425",
"9@	c #A3A2A2",
"0@	c #E7E6E7",
"a@	c #F8F7F7",
"b@	c #565656",
"c@	c #E8E8E8",
"d@	c #A0A0A0",
"e@	c #292627",
"f@	c #8E8E8E",
"g@	c #3B3A3B",
"h@	c #CECCCD",
"i@	c #B7B6B6",
"j@	c #151313",
"k@	c #DAD8D8",
"l@	c #B7B5B6",
"m@	c #BAB9BA",
"n@	c #C5C2C3",
"o@	c #535253",
"p@	c #D8D7D8",
"q@	c #151213",
"r@	c #BAB9B9",
"s@	c #CBCBCB",
"t@	c #141414",
"u@	c #464545",
"v@	c #656263",
"w@	c #5C5A5A",
"x@	c #F9F7F8",
"y@	c #585657",
"z@	c #545353",
"A@	c #5C5C5C",
"B@	c #F8F8F8",
"C@	c #5D5C5C",
"D@	c #6D6C6C",
"E@	c #949393",
"F@	c #DFDEDF",
"G@	c #191617",
"H@	c #B1AFB0",
"I@	c #DEDDDD",
"J@	c #BABABA",
"K@	c #1A1A1A",
"L@	c #DEDEDE",
"M@	c #AFADAE",
"N@	c #140E10",
"O@	c #1E1D1D",
"P@	c #E1E1E1",
"Q@	c #939393",
"R@	c #D6D5D5",
"S@	c #ADACAC",
"T@	c #252223",
"U@	c #E1DEDF",
"V@	c #AEADAD",
"W@	c #BBBABA",
"X@	c #F9F8F8",
"Y@	c #0E0E0E",
"Z@	c #ACACAC",
"`@	c #E0DEDF",
" #	c #272425",
".#	c #ADADAD",
"+#	c #6E6C6C",
"@#	c #FAF8F9",
"##	c #4B4849",
"$#	c #0D090A",
"%#	c #525252",
"&#	c #585959",
"*#	c #6A696A",
"=#	c #130F10",
"-#	c #6A6969",
";#	c #DBDADB",
">#	c #140F10",
",#	c #11070B",
"'#	c #BBB9B9",
")#	c #D1D0D0",
"!#	c #424242",
"~#	c #C4C3C4",
"{#	c #953A7B",
"]#	c #1C2420",
"^#	c #D3D2D3",
"/#	c #0D0809",
"(#	c #1A1618",
"_#	c #A4A3A4",
":#	c #322E2F",
"<#	c #E6E5E5",
"[#	c #979696",
"}#	c #7F2D68",
"|#	c #483040",
"1#	c #C5C3C4",
"2#	c #F8F8F9",
"3#	c #9A357E",
"4#	c #7C5C70",
"5#	c #999899",
"6#	c #2F2D2D",
"7#	c #605E5F",
"8#	c #130E10",
"9#	c #7C797A",
"0#	c #AE318E",
"a#	c #422538",
"b#	c #A54789",
"c#	c #F9F8F9",
"d#	c #525152",
"e#	c #9A277D",
"f#	c #AD6496",
"g#	c #393838",
"h#	c #7B7979",
"i#	c #353132",
"j#	c #201C1D",
"k#	c #0C0808",
"l#	c #C0BFBF",
"m#	c #C9C8C9",
"n#	c #2B2629",
"o#	c #D23DAC",
"p#	c #422539",
"q#	c #333835",
"r#	c #CA30A4",
"s#	c #626262",
"t#	c #9A267D",
"u#	c #D585BB",
"v#	c #272626",
"w#	c #C8C7C8",
"x#	c #BEBCBC",
"y#	c #0C0607",
"z#	c #120B0D",
"A#	c #140C0E",
"B#	c #3A3839",
"C#	c #EDECED",
"D#	c #818181",
"E#	c #8A3C73",
"F#	c #D511AB",
"G#	c #422438",
"H#	c #333735",
"I#	c #CA2FA4",
"J#	c #C962AA",
"K#	c #B24594",
"L#	c #B34694",
"M#	c #8E537B",
"N#	c #646364",
"O#	c #FDFDFD",
"P#	c #353233",
"Q#	c #535252",
"R#	c #864271",
"S#	c #B34695",
"T#	c #715065",
"U#	c #ECEBEB",
"V#	c #373535",
"W#	c #130B0E",
"X#	c #8D8C8D",
"Y#	c #EDECEC",
"Z#	c #9B5986",
"`#	c #B64B97",
" $	c #3C2A36",
".$	c #E0DFDF",
"+$	c #2F3230",
"@$	c #AC4F91",
"#$	c #B44996",
"$$	c #D660B4",
"%$	c #D405AA",
"&$	c #040404",
"*$	c #0A0A0A",
"=$	c #080607",
"-$	c #625F60",
";$	c #FCFAFB",
">$	c #373234",
",$	c #F5F2F3",
"'$	c #525051",
")$	c #070506",
"!$	c #060405",
"~$	c #898888",
"{$	c #130F11",
"]$	c #130E0F",
"^$	c #C7C4C5",
"/$	c #060203",
"($	c #090405",
"_$	c #ADACAD",
":$	c #DEDBDC",
"<$	c #1A1819",
"[$	c #0D0B0C",
"}$	c #141213",
"|$	c #D393BD",
"1$	c #AA93A2",
"2$	c #3F3F3F",
"3$	c #F0EFEF",
"4$	c #3A3637",
"5$	c #1B1819",
"6$	c #F1EFF0",
"7$	c #EFEEEE",
"8$	c #EEEDED",
"9$	c #6C6A6B",
"0$	c #090707",
"a$	c #C6C4C5",
"b$	c #040203",
"c$	c #030000",
"d$	c #040001",
"e$	c #3F3D3D",
"f$	c #6E6C6D",
"g$	c #B8B6B6",
"h$	c #EEECED",
"i$	c #F7F5F6",
"j$	c #0F0B0B",
"k$	c #ACAAAB",
"l$	c #404040",
"m$	c #F1F1F1",
"n$	c #605F60",
"o$	c #575656",
"p$	c #595758",
"q$	c #171214",
"r$	c #555455",
"s$	c #626162",
"t$	c #6E6D6E",
"u$	c #6F6E6F",
"v$	c #DCDBDC",
"w$	c #DEDCDD",
"x$	c #E3E2E2",
"y$	c #E2E1E1",
"z$	c #1F1C1D",
"A$	c #BEBDBD",
"B$	c #D7D5D5",
"C$	c #565455",
"D$	c #4B4949",
"E$	c #403E3F",
"F$	c #575555",
"G$	c #A09F9F",
"H$	c #D2D1D2",
"I$	c #383738",
"J$	c #424141",
"K$	c #6D6B6C",
"L$	c #8B657E",
"M$	c #292A29",
"N$	c #A7A6A7",
"O$	c #AEACAD",
"P$	c #8F8E8E",
"Q$	c #63495A",
"R$	c #5F4556",
"S$	c #BFBCBC",
"T$	c #D8D6D7",
"U$	c #383838",
"V$	c #424142",
"W$	c #A0598A",
"X$	c #998E95",
"Y$	c #93888F",
"Z$	c #8C8087",
"`$	c #8F848A",
" %	c #8F848B",
".%	c #91868D",
"+%	c #90858C",
"@%	c #B18BA3",
"#%	c #5E154B",
"$%	c #BFBCBD",
"%%	c #424041",
"&%	c #9D9C9D",
"*%	c #A2A0A1",
"=%	c #FAF9FA",
"-%	c #6B6B6B",
";%	c #A21C82",
">%	c #D400AA",
",%	c #D503AA",
"'%	c #5E1B4C",
")%	c #BEBCBD",
"!%	c #9C9B9C",
"~%	c #BCBBBC",
"{%	c #181617",
"]%	c #393839",
"^%	c #D6D4D5",
"/%	c #D5D5D5",
"(%	c #A21F82",
"_%	c #5E1C4C",
":%	c #A3A1A2",
"<%	c #D6D5D6",
"[%	c #D4D3D3",
"}%	c #AFAEAF",
"|%	c #D595BF",
"1%	c #A7909F",
"2%	c #000200",
"3%	c #000100",
"4%	c #000300",
"5%	c #A11E82",
"6%	c #5C174A",
"7%	c #000702",
"8%	c #0C110E",
"9%	c #D494BE",
"0%	c #D547AF",
"a%	c #D777B9",
"b%	c #D66DB6",
"c%	c #D672B8",
"d%	c #D66CB6",
"e%	c #D669B5",
"f%	c #D66FB7",
"g%	c #D66EB7",
"h%	c #D55EB2",
"i%	c #D562B3",
"j%	c #D442AE",
"k%	c #D773B8",
"l%	c #D66AB5",
"m%	c #D66EB6",
"n%	c #D772B8",
"o%	c #D426AB",
"                                                                                                    ",
"                                                                                                    ",
"                                                                                                    ",
"                                                                                                    ",
"                                                                                                    ",
"                                                                                                    ",
"            . + @ # # # # # # # # # $ @ %                       & @ * = # # # # # # # # = - ;       ",
"            > , ' ) ! ~ { ! ! ! ] ^ / ( _ :                     < ' [ } | { ! ! ! { ! ] 1 ' 2       ",
"            > 3 4 5 6 7 8 8 8 8 8 6 6 9 ' 0                     a b c 6 c 8 8 8 8 8 8 d e f g       ",
"            > 3 h c i j k k k k l m n o p q                   r s t u v w l k k k x y z A B C       ",
"            > 3 D 5 E F F F F G F F H I J K L                 M N O P Q R F G F F S R T U V g       ",
"            > 3 W X Y Z ` Z Z  .Z ..Z +.@.#.$.              %.&.*.=.h -.;. .>.Z Z Z ,.'.U ).g       ",
"            > !.W ~.{.].^./.Z Z Z Z ..(._.*.:.%.            <.[.}.|.1.2.2.Z 3.,.4.5.6.7.A 8.9.      ",
"            > !.0.a.b.O c.[ 3.Z Z Z ..d.e.f.g.h.            i.j.k.l.m.Z Z Z 3.n.z o.b.b.p.q.r.      ",
"            s.t.u.v.w.x.y.z.3.A...A.Z d.B.C.D.E..         %.F.m G.H.2.Z I.Z G n.J.K.L.v.M.N.O.      ",
"              P.Q.R.S.T.U.V.3...W.X.3.Z Y.Z.`. +.+        ++@+#+$+%+F &+*+=+F n.z -+;+>+Q.Q.,+      ",
"                    '+)+!+V.3.=+~+{+&+Z ]+^+/+(+_+        :+<+[+}+n.3.|+1+=+,.2+3+4+5+6+            ",
"                    7+)+!+V.2.Z 8+9+0+2.n.a+b+c+d+      & e+f+c g+n.n.h+i+=+,.2+3+4+5+6+            ",
"                    '+)+!+j+Z ,.k+l+y m+..n+6 o+p+&     q+r+s+t+u+F v+w+s+=+,.2+3+4+5+6+            ",
"                    '+)+!+j+..,.x+G.y+z+2.A+B+C+D+E+    F+G+H+I+d.n.J+K+L+=+,.2+3+4+5+6+            ",
"                    '+)+!+j+..,.x+l+M+N+..O+P+Q+R+S+  T+U+V+W+0+3.O+n X+Y+=+,.2+3+4+5+6+            ",
"                    '+)+!+j+..,.x+Z.X+Z+3.d.`+ @.@+@@@#@$@%@&@u+Z *@=@-@;@=+,.2+3+4+5+6+            ",
"                    '+)+!+j+..,.x+>@,@'@)@!@~@{@]@^@/@(@_@c :@..m.<@[@}@Y+=+,.2+3+4+5+6+            ",
"                    '+)+!+j+..,.x+|@1@2@3@O+n.4@X ) 5@6@7@C.8@3.O+9@0@p.t+=+,.2+3+4+5+6+            ",
"                    '+)+!+j+..,.x+a@b@c@d@1.2.e@C.f@T.g@h@i@..3.j@k@l@m@n@=+,.2+3+4+5+6+            ",
"                    '+)+!+j+..,.x+[@o@p.p@q@Z O+r@s@t@u@d v@..3.w@x@y@f.t+=+,.2+3+4+5+6+            ",
"                    '+)+!+j+..,.x+[@z@A@B@C@Z O+D@5 N+E@F@G@..O+H@I@k+J@L+=+,.2+3+4+5+6+            ",
"                    '+)+!+j+..,.x+B@o@K@L@M@N@n.O@P@Q@R@S@O+=+T@U@V@S W@L+=+,.2+3+4+5+6+            ",
"                    '+)+!+j+..,.x+X@z@Y@Z@`@ #,.Q .#I@Q+)+,.d.+#@###$#W@L+=+,.2+3+4+5+6+            ",
"                    '+)+!+j+..,.x+a@%#&#J+>@*#=#3.-#2@;#>#Z ,#'#)#!#_@J@~#=+,.2+3+4+5+6+            ",
"                    '+)+!+j+..,.x+|@%#{#]#^#t /#Z (#u _#%+..:#<#[#}#|#J@1#=+,.2+3+4+5+6+            ",
"                    '+)+!+j+..,.x+2#%#3#4#5#O 6#Z Z ^.7#d.8#9#8 [ 0#a#J@~#=+,.2+3+4+5+6+            ",
"                    b#)+!+j+..,.x+c#d#e#f#g#8 h#I.Z i#j#n.k#l#m#n#o#p#J@L+=+,.2+3+4+q#r#            ",
"                    b#s#!+j+..,.x+c#d#t#u#v#w#x#y#z#A#Z ,.B#C#D#E#F#G#W@1#=+,.n.3+4+H#I#            ",
"            .+J#K#L#M#N#O#P#Z ,.x+c#Q#R#S#T#1@U#V#=+W#=+d.X#Y#! Z#`# $J@t+!@F O+3+.$+$@$#$L#$$      ",
"            %$, &$*$=$-$;$>$Z ..G@,$'$)$!$-.z.C#~${$Z Z ]$^$i+m.]$/$($r@1#S F n._$:$<$=$[$}$|$      ",
"            > 1$2$W+H+3$X@4$..=+5$[@6$7$8$9$0$a$~#b$c$d$e$c f$=#g$Y#h$i$t+j$F n.k$>@8$H+~#V C       ",
"            > 3 l$m$n$o$p$q$=+3.d.p$r$s$@#t$v#u$G.v$w$w$x$y$r+z$A$B$z@C$D$S F F E$F$z@G$H$V C       ",
"            > 3 N+5 I$O+,...Z 3.,.F R J$;$K$L$M$N$O$S@S@k$P$Q$R$S$T$F F n.F G F F n.n.'.=@V g       ",
"            > 3 N+5 U$1.O+A.....3.n.R V$;$t$W$X$Y$Z$`$ %.%+%@%#%$%T$S F n.1.O+n.n.R 1.'.=@V g       ",
"            > 3 %%o.{.&%&%&%&%&%&%&%&%*%=%-%;%>%>%>%>%>%>%>%,%'%)%9+!%&%&%&%&%&%&%&%!%~%H${%r.      ",
"            > 3 ]%^#}@R@R@R@R@R@R@^%^%/%'@s#(%              F#_%:%^#R@R@R@R@R@R@R@R@<%[%}%{%|%      ",
"            > 1%' 2%' 3%3%3%3%3%3%3%' ' 4%2%5%              F#6%7%' ' 3%3%3%3%3%3%3%' ' 3%8%9%      ",
"              0%a%b%c%d%e%e%e%e%e%e%f%g%h%i%j%              .+k%l%m%l%e%e%e%e%e%e%e%d%n%m%m%o%      ",
"                                                                                                    ",
"                                                                                                    ",
"                                                                                                    ",
"                                                                                                    ",
"                                                                                                    ",
"                                                                                                    "};
