/* XPM */
static char * tile004_xpm[] = {
"50 50 335 2",
"  	c #D411AA",
". 	c #D425AB",
"+ 	c #DA97C3",
"@ 	c #DB97C4",
"# 	c #DB99C4",
"$ 	c #D764B5",
"% 	c #D015A7",
"& 	c #1C231E",
"* 	c #000000",
"= 	c #AD278C",
"- 	c #1B221E",
"; 	c #C5C4C4",
"> 	c #EAE9EA",
", 	c #ECEAEB",
"' 	c #ECEBEB",
") 	c #EAEAEA",
"! 	c #E2E2E2",
"~ 	c #323232",
"{ 	c #AD298C",
"] 	c #1C221E",
"^ 	c #CCCBCC",
"/ 	c #D1D0D1",
"( 	c #999798",
"_ 	c #999898",
": 	c #ACACAC",
"< 	c #F4F4F4",
"[ 	c #353535",
"} 	c #AD2A8D",
"| 	c #1B211D",
"1 	c #CDCCCD",
"2 	c #B9B9B9",
"3 	c #0D0B0C",
"4 	c #0F0D0E",
"5 	c #0F0C0D",
"6 	c #110D0E",
"7 	c #100C0D",
"8 	c #120E0F",
"9 	c #110E0F",
"0 	c #6D6D6D",
"a 	c #F5F5F5",
"b 	c #343434",
"c 	c #AD2A8C",
"d 	c #1B221D",
"e 	c #CECDCE",
"f 	c #0C0A0B",
"g 	c #0E0C0D",
"h 	c #110C0D",
"i 	c #110B0E",
"j 	c #110B0D",
"k 	c #120C0F",
"l 	c #120C0E",
"m 	c #110C0E",
"n 	c #130D0F",
"o 	c #100B0D",
"p 	c #CACACA",
"q 	c #807F80",
"r 	c #828081",
"s 	c #676666",
"t 	c #0F0A0C",
"u 	c #6C6A6A",
"v 	c #817F80",
"w 	c #828182",
"x 	c #838182",
"y 	c #838181",
"z 	c #818080",
"A 	c #858485",
"B 	c #504F4F",
"C 	c #BFBEBF",
"D 	c #E9E8E9",
"E 	c #EBEBEB",
"F 	c #F6F5F6",
"G 	c #AAA9AA",
"H 	c #0D090A",
"I 	c #BBBABB",
"J 	c #F6F6F6",
"K 	c #ECECEC",
"L 	c #EBEAEA",
"M 	c #F8F8F8",
"N 	c #8A8A8A",
"O 	c #120D0E",
"P 	c #212622",
"Q 	c #0B090A",
"R 	c #131614",
"S 	c #111011",
"T 	c #D7D6D6",
"U 	c #A9A8A9",
"V 	c #0E0B0C",
"W 	c #B9B8B8",
"X 	c #CBCBCB",
"Y 	c #0D0C0D",
"Z 	c #0C0C0C",
"` 	c #0F0E0E",
" .	c #141212",
"..	c #8B8A8A",
"+.	c #D423AB",
"@.	c #CF8BB8",
"#.	c #D08BB9",
"$.	c #C567A8",
"%.	c #2A2E2B",
"&.	c #D8D7D7",
"*.	c #ABABAB",
"=.	c #BBBABA",
"-.	c #CDCDCD",
";.	c #41343C",
">.	c #D38FBC",
",.	c #C396B3",
"'.	c #333333",
").	c #CB2EA4",
"!.	c #2F3331",
"~.	c #D8D7D8",
"{.	c #ACABAC",
"].	c #442C3B",
"^.	c #D510AB",
"/.	c #C468A8",
"(.	c #E9E9E9",
"_.	c #8A8989",
":.	c #442D3C",
"<.	c #C469A8",
"[.	c #BEBDBE",
"}.	c #ACAAAA",
"|.	c #ADAAAB",
"1.	c #BCB9BA",
"2.	c #2E3230",
"3.	c #ACABAB",
"4.	c #432D3C",
"5.	c #050405",
"6.	c #CBCACA",
"7.	c #D7D7D7",
"8.	c #D8D8D8",
"9.	c #D3D3D3",
"0.	c #432C3B",
"a.	c #C365A6",
"b.	c #332B30",
"c.	c #2D2429",
"d.	c #2D252A",
"e.	c #2B2227",
"f.	c #2B2228",
"g.	c #2B2328",
"h.	c #30292D",
"i.	c #B03590",
"j.	c #0E0A0B",
"k.	c #402F39",
"l.	c #C45EA5",
"m.	c #C35DA5",
"n.	c #C35EA5",
"o.	c #C25BA4",
"p.	c #C35CA4",
"q.	c #C96CAD",
"r.	c #D429AC",
"s.	c #BAB9B9",
"t.	c #010000",
"u.	c #121111",
"v.	c #121011",
"w.	c #121010",
"x.	c #131212",
"y.	c #141313",
"z.	c #606160",
"A.	c #D233AA",
"B.	c #120D0F",
"C.	c #BDBCBD",
"D.	c #F0F0F0",
"E.	c #E1E1E1",
"F.	c #E3E2E2",
"G.	c #E2E1E2",
"H.	c #E3E2E3",
"I.	c #E0DFE0",
"J.	c #B6B6B6",
"K.	c #626463",
"L.	c #D235AB",
"M.	c #605F5F",
"N.	c #7C7C7C",
"O.	c #7D7D7D",
"P.	c #7C7D7D",
"Q.	c #7C7B7C",
"R.	c #CFCECF",
"S.	c #CCCBCB",
"T.	c #606261",
"U.	c #D234AB",
"V.	c #110D0F",
"W.	c #120B0D",
"X.	c #150B0E",
"Y.	c #150A0E",
"Z.	c #150B0F",
"`.	c #150C0F",
" +	c #0D0A0B",
".+	c #C0BFC0",
"++	c #CFCECE",
"@+	c #5F6160",
"#+	c #D234AA",
"$+	c #140C0F",
"%+	c #130E10",
"&+	c #120E10",
"*+	c #0E0A0C",
"=+	c #CECECE",
"-+	c #100B0C",
";+	c #605D5E",
">+	c #797677",
",+	c #797778",
"'+	c #787677",
")+	c #777677",
"!+	c #787777",
"~+	c #767575",
"{+	c #5E605F",
"]+	c #BCBBBB",
"^+	c #F3F2F2",
"/+	c #E0E0E0",
"(+	c #E1E0E0",
"_+	c #E1E0E1",
":+	c #DDDDDD",
"<+	c #B4B4B4",
"[+	c #606361",
"}+	c #CCCCCC",
"|+	c #191616",
"1+	c #171314",
"2+	c #171515",
"3+	c #171415",
"4+	c #191617",
"5+	c #181516",
"6+	c #151515",
"7+	c #5C5F5D",
"8+	c #3F333A",
"9+	c #CC8BB6",
"0+	c #CB89B5",
"a+	c #CC94B9",
"b+	c #C292B1",
"c+	c #C192B1",
"d+	c #C293B2",
"e+	c #C193B1",
"f+	c #CD4EAA",
"g+	c #CD43A8",
"h+	c #CD41A8",
"i+	c #D230AA",
"j+	c #0E0B0B",
"k+	c #C66EAA",
"l+	c #3D3E3D",
"m+	c #3C3E3D",
"n+	c #3B3D3B",
"o+	c #3B3D3C",
"p+	c #3D403E",
"q+	c #3C3F3D",
"r+	c #B13C92",
"s+	c #070506",
"t+	c #BFBEBE",
"u+	c #C7C7C7",
"v+	c #AE2C8D",
"w+	c #C56BA9",
"x+	c #020001",
"y+	c #E9E7E8",
"z+	c #A4A3A4",
"A+	c #A4A3A3",
"B+	c #B5B4B4",
"C+	c #F3F3F3",
"D+	c #C46AA8",
"E+	c #D316AA",
"F+	c #C13F9E",
"G+	c #C03B9D",
"H+	c #BA499A",
"I+	c #2C2F2D",
"J+	c #D8D6D7",
"K+	c #ABAAAA",
"L+	c #3E2D38",
"M+	c #C23F9F",
"N+	c #C13D9E",
"O+	c #C03C9E",
"P+	c #B56E9E",
"Q+	c #EAE9E9",
"R+	c #100E0F",
"S+	c #D116A7",
"T+	c #2C2E2C",
"U+	c #181616",
"V+	c #161313",
"W+	c #D7D5D6",
"X+	c #0E090A",
"Y+	c #B9B7B7",
"Z+	c #CDCCCC",
"`+	c #131413",
" @	c #101110",
".@	c #0F100F",
"+@	c #101010",
"@@	c #8D8A8B",
"#@	c #1D221E",
"$@	c #BEBCBC",
"%@	c #E2E0E1",
"&@	c #F3F1F1",
"*@	c #AAA8A9",
"=@	c #F0EEEF",
"-@	c #E2E1E1",
";@	c #E1DFE0",
">@	c #F7F5F6",
",@	c #8C8B8B",
"'@	c #1D211D",
")@	c #CDCBCC",
"!@	c #828181",
"~@	c #5E5D5D",
"{@	c #100D0E",
"]@	c #686767",
"^@	c #828282",
"/@	c #818181",
"(@	c #818081",
"_@	c #838283",
":@	c #4B494A",
"<@	c #1C221D",
"[@	c #CECCCD",
"}@	c #1D221D",
"|@	c #CFCCCD",
"1@	c #130D0E",
"2@	c #CECBCC",
"3@	c #9C9B9C",
"4@	c #AD288C",
"5@	c #1D221F",
"6@	c #E4E3E3",
"7@	c #E7E7E7",
"8@	c #E7E6E6",
"9@	c #E7E6E7",
"0@	c #E6E6E6",
"a@	c #DEDEDE",
"b@	c #AE2B8D",
"c@	c #1D2620",
"d@	c #0F1210",
"e@	c #111412",
"f@	c #0F1310",
"g@	c #101311",
"h@	c #101411",
"i@	c #0F1311",
"j@	c #0E120F",
"k@	c #131815",
"l@	c #000300",
"m@	c #D415AA",
"n@	c #CA65AB",
"o@	c #CA6DAE",
"p@	c #CA66AC",
"q@	c #CA68AC",
"r@	c #C95BA9",
"s@	c #CA6BAC",
"t@	c #CF1BA6",
"                                                                                                    ",
"                                                                                                    ",
"                                                                                                    ",
"                                                                                                    ",
"                                                                                                    ",
"                                . + @ @ # # # # # # # # # # # # # # # # # # # # # + $               ",
"                                % & * * * * * * * * * * * * * * * * * * * * * * * * =               ",
"                                % - ; > , , , ' ' ' ' ' ' ' ' ' ' ' ' ' ' ' ' ) ! ~ {               ",
"                                % ] ^ / ( _ _ _ _ _ _ _ _ _ _ _ _ _ _ _ _ _ ( : < [ }               ",
"                                % | 1 2 3 4 5 6 6 6 6 7 6 6 6 6 6 6 7 8 6 7 9 0 a b c               ",
"                                % d e 2 f 4 g h i j k l l l l l l m n l o o l 0 a b c               ",
"                                % - 1 p q r s l j t u v w x x y x x z A B h l 0 a b c               ",
"                                % - C D E F G l 7 H I J K ) ' L ) > ) M N 6 O 0 a b c               ",
"                                % P Q R S T U n 7 V W X Y g 4 Z `  .* ) ..6 l 0 a b c               ",
"                                +.@.#.$.%.&.*.n 7 V =.-.;.>.#.#.#.,.* ) ..7 l 0 a '.{               ",
"                                      ).!.~.{.n 7 V =.-.].^.      /.* (._.7 j 0 a '.{               ",
"                                      ).!.~.{.n 7 V I -.:.^.      <.* (.[.}.|.1.< '.{               ",
"                                      ).2.~.3.n 7 V I -.4.^.      <.5.6.7.8.8.~.9.'.c               ",
"                                      ).2.~.{.n 7 V I -.0.^.      a.b.c.d.e.f.f.g.h.i.              ",
"                                      ).2.~.{.n 7 j.=.-.k.l.m.n.n.m.o.p.p.p.q.r.                    ",
"                                      ).2.~.{.n 7 j.s.-.t.u.v.v.w.w.u.x.S y.z.A.                    ",
"                                      ).2.~.{.B.7 j.C.D.E.F.F.F.F.! G.H.I.J.K.L.                    ",
"                                      ).2.~.{.k 7 o M.N.O.P.P.O.O.P.Q.O.R.S.T.U.                    ",
"                                      ).2.~.{.V.7 W.X.Y.Z.`.`.`.`.`.O  +.+++@+#+                    ",
"                                      ).2.~.{.8 7 l $+`.%+&+&+&+&+&+8 *+.+=+@+#+                    ",
"                                      ).2.~.{.9 7 -+;+>+,+'+)+!+,+!+>+~+e 1 {+A.                    ",
"                                      ).2.~.{.B.7 j.]+^+/+E.(+E.E.E._+E.:+<+[+U.                    ",
"                                      ).2.~.{.k 7 3 2 }+w.|+1+2+3+2+4+5+6+x.7+A.                    ",
"                                      ).2.~.{.n 7  +=.-.8+9+9+0+9+a+b+c+d+e+,.f+g+h+i+              ",
"                                      ).2.~.{.n 7 j+=.-.0.^.      k+l+m+n+o+o+m+p+q+r+              ",
"                                      ).2.&.3.n 7 V I -.4.^.      <.s+t+6.S.S.X u+b v+              ",
"                                      ).2.~.{.n 7 V I -.0.^.      w+x+y+[.z+A+B+C+'.{               ",
"                                      ).!.~.{.n 7 V I -.0.^.      D+t.> ..4 3 0 a '.{               ",
"                                E+F+G+H+I+J+K+k 7 j.I -.L+M+N+N+O+P+* Q+..4 R+0 a '.{               ",
"                                S+T+U+V+* W+}.V.7 X+Y+Z+* `+ @ @.@+@* > @@6 6 0 a b c               ",
"                                % #@$@%@(+&@*@6 7 j.1.=@E.G.G.-@! ! ;@>@,@6 6 0 a b c               ",
"                                % '@)@p !@!@~@{@7 7 ]@!@^@/@(@w w !@!@_@:@6 6 0 a b c               ",
"                                % <@[@2 j.7 6 6 6 7 h 6 6 6 6 6 6 6 6 7 6 7 8 0 a b c               ",
"                                % }@|@2 j.7 6 8 8 8 6 6 O n n n n 1@6 8 8 6 8 0 a b c               ",
"                                % #@2@6.!@w w w w w w w w w w w w w w w w x ^@3@< '.4@              ",
"                                % 5@t+6@7@7@7@7@7@7@7@7@7@7@7@7@7@7@7@7@7@8@9@0@a@[ b@              ",
"                                % c@d@e@f@g@g@g@g@g@g@g@g@g@g@g@g@g@g@g@g@h@i@j@k@l@c               ",
"                                m@n@o@p@n@n@n@n@n@n@n@n@n@n@n@n@n@n@n@n@n@n@n@q@r@s@t@              ",
"                                                                                                    ",
"                                                                                                    ",
"                                                                                                    ",
"                                                                                                    ",
"                                                                                                    ",
"                                                                                                    ",
"                                                                                                    "};
