/* XPM */
static char * tile038_xpm[] = {
"50 50 54 1",
" 	c #D411AA",
".	c #D40FAA",
"+	c #D511AB",
"@	c #D510AB",
"#	c #AD4C91",
"$	c #420A34",
"%	c #430D35",
"&	c #430B35",
"*	c #430C35",
"=	c #430A35",
"-	c #440F36",
";	c #773864",
">	c #D50FAA",
",	c #A84E8E",
"'	c #2D2D2D",
")	c #B5B4B4",
"!	c #BDBCBC",
"~	c #BDBBBC",
"{	c #BFBDBE",
"]	c #BEBDBE",
"^	c #BDBCBD",
"/	c #706F70",
"(	c #6A3A5B",
"_	c #A94F8E",
":	c #414041",
"<	c #F0EFF0",
"[	c #C5C3C4",
"}	c #C3C2C3",
"|	c #C4C3C4",
"1	c #C4C3C3",
"2	c #C1C0C1",
"3	c #ECEAEB",
"4	c #929192",
"5	c #6A3B5B",
"6	c #A9508E",
"7	c #403F40",
"8	c #F2F0F1",
"9	c #393637",
"0	c #0E090A",
"a	c #0E0A0B",
"b	c #0D090A",
"c	c #0E0C0D",
"d	c #DCDADB",
"e	c #100B0C",
"f	c #110C0D",
"g	c #120C0E",
"h	c #100C0D",
"i	c #0F0D0D",
"j	c #939292",
"k	c #939192",
"l	c #404040",
"m	c #F1F0F1",
"n	c #DDDBDC",
"o	c #FFFFFF",
"                                                  ",
"                                                  ",
"                                                  ",
"                                                  ",
"                                                  ",
"                                                  ",
"                                                  ",
"                                                  ",
"                                                  ",
"                                                  ",
"                                                  ",
"                                                  ",
"                                                  ",
"                                                  ",
"                                                  ",
"                                                  ",
"                                                  ",
"                                                  ",
"                                                  ",
"                                                  ",
"                                                  ",
"                                                  ",
"                                                  ",
"                                                  ",
"                                                  ",
"                                                  ",
"                                                  ",
"                                                  ",
"                                                  ",
"                                                  ",
"                                                  ",
"                                                  ",
"                                                  ",
"                                                  ",
"                                                  ",
"                                                  ",
"                                                  ",
"                       .++++++++++@               ",
"                       #$%&%****=-;>              ",
"                       ,')!~{{]^]/(>              ",
"                       _:<[}||12345>              ",
"                       67890abacd4(>              ",
"                       6789efghidj(>              ",
"                       67890abacdk(>              ",
"                       6lm9efghink(>              ",
"                       6')!~{{]^]/(               ",
"                       #$%&%****=-;               ",
"                                                  ",
"                                                  ",
"                                                  "};
