/* XPM */
static char * tile024_xpm[] = {
"50 50 494 2",
"  	c #D411AA",
". 	c #D236AB",
"+ 	c #C088AD",
"@ 	c #BF8BAD",
"# 	c #C08BAD",
"$ 	c #C08BAE",
"% 	c #BF87AB",
"& 	c #CE23A6",
"* 	c #C07EAA",
"= 	c #CE56AC",
"- 	c #D26CB3",
"; 	c #454545",
"> 	c #575757",
", 	c #5E5E5E",
"' 	c #636363",
") 	c #606060",
"! 	c #626161",
"~ 	c #626162",
"{ 	c #626262",
"] 	c #616161",
"^ 	c #1D1C1D",
"/ 	c #C0499F",
"( 	c #544F52",
"_ 	c #4B4A4A",
": 	c #616061",
"< 	c #626061",
"[ 	c #646364",
"} 	c #5E5D5E",
"| 	c #131112",
"1 	c #C285AE",
"2 	c #424242",
"3 	c #C9C9C9",
"4 	c #F4F3F4",
"5 	c #F6F5F5",
"6 	c #F5F5F5",
"7 	c #F6F5F6",
"8 	c #F5F4F4",
"9 	c #DCDADB",
"0 	c #1C1B1C",
"a 	c #534E51",
"b 	c #AAA9AA",
"c 	c #F6F4F5",
"d 	c #F5F4F5",
"e 	c #E6E5E5",
"f 	c #2C2B2C",
"g 	c #C182AB",
"h 	c #D26DB3",
"i 	c #424342",
"j 	c #CCCCCC",
"k 	c #BAB8B8",
"l 	c #605E5F",
"m 	c #5C5B5C",
"n 	c #5F5D5E",
"o 	c #5D5C5C",
"p 	c #A1A1A1",
"q 	c #DFDDDD",
"r 	c #1B1A1A",
"s 	c #534F51",
"t 	c #ABAAAB",
"u 	c #CECDCD",
"v 	c #5D5B5C",
"w 	c #5E5D5D",
"x 	c #605F5F",
"y 	c #878586",
"z 	c #ECEBEC",
"A 	c #2E2E2E",
"B 	c #C182AC",
"C 	c #B1B0B0",
"D 	c #100B0C",
"E 	c #110C0E",
"F 	c #100C0D",
"G 	c #100B0D",
"H 	c #0F0B0C",
"I 	c #110C0D",
"J 	c #919090",
"K 	c #E0DEDF",
"L 	c #1C1A1B",
"M 	c #534F52",
"N 	c #ACABAC",
"O 	c #C7C7C7",
"P 	c #090808",
"Q 	c #100D0E",
"R 	c #0E0C0D",
"S 	c #706F6F",
"T 	c #EDEDED",
"U 	c #C183AD",
"V 	c #B1AFB0",
"W 	c #0E080A",
"X 	c #0F090B",
"Y 	c #110B0D",
"Z 	c #120B0E",
"` 	c #110B0C",
" .	c #10090B",
"..	c #100A0C",
"+.	c #909090",
"@.	c #ACABAB",
"#.	c #080607",
"$.	c #0F0A0B",
"%.	c #0F080B",
"&.	c #0E0B0C",
"*.	c #6F6E6E",
"=.	c #EDECED",
"-.	c #424343",
";.	c #CBCBCB",
">.	c #D7D6D7",
",.	c #B4B4B4",
"'.	c #A9A8A8",
").	c #040000",
"!.	c #120C0E",
"~.	c #777475",
"{.	c #B7B5B5",
"].	c #B5B3B4",
"^.	c #CECCCD",
"/.	c #DFDEDE",
"(.	c #1B1B1B",
"_.	c #E4E4E4",
":.	c #B3B2B3",
"<.	c #999797",
"[.	c #0B0507",
"}.	c #858484",
"|.	c #C3C1C2",
"1.	c #EAEAEA",
"2.	c #C284AD",
"3.	c #434343",
"4.	c #A5A5A5",
"5.	c #CECECE",
"6.	c #D1D1D1",
"7.	c #F3F1F2",
"8.	c #656364",
"9.	c #504E4F",
"0.	c #F2EFF0",
"a.	c #DEDCDD",
"b.	c #CDCDCD",
"c.	c #C0489F",
"d.	c #8E8D8E",
"e.	c #CFCECE",
"f.	c #D6D5D6",
"g.	c #FBFBFB",
"h.	c #888788",
"i.	c #161314",
"j.	c #E6E6E6",
"k.	c #D8D7D7",
"l.	c #CDCCCD",
"m.	c #C1C1C1",
"n.	c #282728",
"o.	c #C081AB",
"p.	c #D262B1",
"q.	c #6B6A6A",
"r.	c #5D5F5E",
"s.	c #606260",
"t.	c #0D0D0D",
"u.	c #D9D8D8",
"v.	c #BEBCBD",
"w.	c #0D0608",
"x.	c #C7C6C6",
"y.	c #CCCACB",
"z.	c #141213",
"A.	c #4C3444",
"B.	c #5D5E5D",
"C.	c #C457A4",
"D.	c #757374",
"E.	c #5F5F5F",
"F.	c #181617",
"G.	c #A2A1A2",
"H.	c #E1E1E1",
"I.	c #272626",
"J.	c #130E10",
"K.	c #130E0F",
"L.	c #949494",
"M.	c #434243",
"N.	c #535453",
"O.	c #5D5D5D",
"P.	c #5C5D5C",
"Q.	c #C27AAA",
"R.	c #D40DAA",
"S.	c #D453B0",
"T.	c #D458B1",
"U.	c #D55BB2",
"V.	c #805271",
"W.	c #F4F3F3",
"X.	c #444142",
"Y.	c #120D0E",
"Z.	c #5A595A",
"`.	c #93527F",
" +	c #D454B0",
".+	c #D537AD",
"++	c #D456B0",
"@+	c #BE87AB",
"#+	c #292829",
"$+	c #E1E0E0",
"%+	c #A9A8A9",
"&+	c #0F0C0D",
"*+	c #110D0E",
"=+	c #D8D7D8",
"-+	c #BCBCBC",
";+	c #3E3039",
">+	c #D168B1",
",+	c #D457B0",
"'+	c #D423AB",
")+	c #B84398",
"!+	c #292828",
"~+	c #E5E2E3",
"{+	c #AEADAD",
"]+	c #171314",
"^+	c #D3D1D2",
"/+	c #B7B6B7",
"(+	c #443940",
"_+	c #CD45A9",
":+	c #D419AB",
"<+	c #734A65",
"[+	c #848384",
"}+	c #2E2D2E",
"|+	c #7B7979",
"1+	c #F8F6F7",
"2+	c #5A5A5A",
"3+	c #97417E",
"4+	c #D40FAA",
"5+	c #D43EAD",
"6+	c #63515C",
"7+	c #A9A7A7",
"8+	c #EBE9E9",
"9+	c #1F1C1D",
"0+	c #878686",
"a+	c #EBEBEB",
"b+	c #3C3C3C",
"c+	c #AD6395",
"d+	c #C570AA",
"e+	c #2B2B2B",
"f+	c #D4D3D4",
"g+	c #0F0E0E",
"h+	c #C8C5C6",
"i+	c #CCCBCB",
"j+	c #393A39",
"k+	c #CB3EA6",
"l+	c #B2659A",
"m+	c #EEEDEE",
"n+	c #949393",
"o+	c #120D0F",
"p+	c #171214",
"q+	c #E2E1E2",
"r+	c #9E9E9E",
"s+	c #584F55",
"t+	c #D347AE",
"u+	c #8E5A7C",
"v+	c #F2F0F1",
"w+	c #5E5B5C",
"x+	c #4C4A4B",
"y+	c #F7F5F6",
"z+	c #7F7F7F",
"A+	c #833E6F",
"B+	c #D40EAA",
"C+	c #D03BAA",
"D+	c #503F4A",
"E+	c #BCBABB",
"F+	c #DBDADB",
"G+	c #201E1E",
"H+	c #0F0A0C",
"I+	c #9E9C9D",
"J+	c #E2E2E2",
"K+	c #2C2C2C",
"L+	c #B07E9F",
"M+	c #2F2B2D",
"N+	c #CAC8C8",
"O+	c #0D0809",
"P+	c #BAB8B9",
"Q+	c #0B0F0C",
"R+	c #C365A6",
"S+	c #9C5285",
"T+	c #575656",
"U+	c #F8F7F7",
"V+	c #777777",
"W+	c #120E0F",
"X+	c #353333",
"Y+	c #ECECEC",
"Z+	c #838383",
"`+	c #323232",
" @	c #504F4F",
".@	c #EEECED",
"+@	c #757474",
"@@	c #130C0E",
"#@	c #3D3C3C",
"$@	c #EDEBEB",
"%@	c #999999",
"&@	c #77576C",
"*@	c #D429AB",
"=@	c #CE36A8",
"-@	c #2F3330",
";@	c #C8C8C8",
">@	c #060203",
",@	c #D1D0D0",
"'@	c #0C0C0C",
")@	c #A8A7A7",
"!@	c #DCDCDC",
"~@	c #161213",
"{@	c #9B9899",
"]@	c #EFEEEE",
"^@	c #252324",
"/@	c #B13F92",
"(@	c #D41BAA",
"_@	c #915A7F",
":@	c #777878",
"<@	c #F1F3F2",
"[@	c #5C5C5C",
"}@	c #140E10",
"|@	c #585757",
"1@	c #EEEEEE",
"2@	c #727272",
"3@	c #E6E5E6",
"4@	c #908E8F",
"5@	c #E3E1E2",
"6@	c #ABA9AA",
"7@	c #5E565B",
"8@	c #D432AC",
"9@	c #C43CA0",
"0@	c #0A0005",
"a@	c #DADADA",
"b@	c #CBCACA",
"c@	c #E3E2E3",
"d@	c #E5E4E5",
"e@	c #302E2F",
"f@	c #150E11",
"g@	c #F1EFF0",
"h@	c #505050",
"i@	c #A73B89",
"j@	c #79546C",
"k@	c #8B8B8B",
"l@	c #EFEDEE",
"m@	c #3C3B3B",
"n@	c #150F11",
"o@	c #717071",
"p@	c #ADACAC",
"q@	c #120B0D",
"r@	c #150E10",
"s@	c #CECDCE",
"t@	c #C5C5C5",
"u@	c #32262D",
"v@	c #CE52AB",
"w@	c #B9519B",
"x@	c #2D2E2D",
"y@	c #A3A2A3",
"z@	c #1D1A1B",
"A@	c #454444",
"B@	c #666465",
"C@	c #F1F1F1",
"D@	c #9B6689",
"E@	c #D40CAA",
"F@	c #D653B2",
"G@	c #60555C",
"H@	c #A6A5A5",
"I@	c #1E1B1C",
"J@	c #434141",
"K@	c #141112",
"L@	c #323634",
"M@	c #C951A7",
"N@	c #D410AA",
"O@	c #AF5E95",
"P@	c #373636",
"Q@	c #130D0F",
"R@	c #110A0C",
"S@	c #414040",
"T@	c #ECEBEB",
"U@	c #858585",
"V@	c #805571",
"W@	c #D520AB",
"X@	c #D04EAC",
"Y@	c #4F4E4E",
"Z@	c #BAB9B9",
"`@	c #D2D0D1",
" #	c #1C1819",
".#	c #120A0D",
"+#	c #140B0E",
"@#	c #A5A4A5",
"##	c #E0DFE0",
"$#	c #131413",
"%#	c #C274A9",
"&#	c #D41FAB",
"*#	c #9A6789",
"=#	c #565555",
"-#	c #F5F3F4",
";#	c #636161",
">#	c #2D2C2D",
",#	c #E3E3E3",
"'#	c #717070",
")#	c #D338AC",
"!#	c #CF70B2",
"~#	c #2F302F",
"{#	c #C8C7C8",
"]#	c #BFBEBF",
"^#	c #0C0608",
"/#	c #110B0E",
"(#	c #120E10",
"_#	c #807F80",
":#	c #F0EFF0",
"<#	c #2F2F2F",
"[#	c #B2779E",
"}#	c #D433AC",
"|#	c #787878",
"1#	c #090405",
"2#	c #130F10",
"3#	c #908F8F",
"4#	c #E0E0E0",
"5#	c #050605",
"6#	c #D187B8",
"7#	c #0B0406",
"8#	c #919190",
"9#	c #040404",
"0#	c #D087B8",
"a#	c #777877",
"b#	c #A9A9A9",
"c#	c #0B0407",
"d#	c #919191",
"e#	c #050405",
"f#	c #D086B8",
"g#	c #B73F97",
"h#	c #A8478C",
"i#	c #AA528F",
"j#	c #AAA8A9",
"k#	c #0A0406",
"l#	c #919091",
"m#	c #E3E2E2",
"n#	c #040304",
"o#	c #A87A98",
"p#	c #A8458C",
"q#	c #D412AA",
"r#	c #801F67",
"s#	c #242222",
"t#	c #3A3839",
"u#	c #393738",
"v#	c #D0CFCF",
"w#	c #070203",
"x#	c #E5E3E4",
"y#	c #373637",
"z#	c #393839",
"A#	c #393838",
"B#	c #130B10",
"C#	c #D311A9",
"D#	c #802268",
"E#	c #8B8A8B",
"F#	c #F3F2F2",
"G#	c #CDCCCC",
"H#	c #090305",
"I#	c #F9F7F8",
"J#	c #F2F1F2",
"K#	c #F4F2F3",
"L#	c #C2C1C2",
"M#	c #8E8E8E",
"N#	c #E7E5E6",
"O#	c #2D292A",
"P#	c #322F30",
"Q#	c #312E2F",
"R#	c #242021",
"S#	c #333131",
"T#	c #302E2E",
"U#	c #2F2E2F",
"V#	c #B4B3B4",
"W#	c #812468",
"X#	c #E7E6E7",
"Y#	c #000000",
"Z#	c #0F0D0E",
"`#	c #B2B2B2",
" $	c #140C11",
".$	c #0F0C0C",
"+$	c #0D0B0C",
"@$	c #B2B1B2",
"#$	c #802167",
"$$	c #ADADAD",
"%$	c #AEAEAE",
"&$	c #AFAFAF",
"*$	c #AFAEAF",
"=$	c #D3D2D3",
"-$	c #C8C7C7",
";$	c #130C10",
">$	c #6F6F6F",
",$	c #C4C4C4",
"'$	c #C6C6C6",
")$	c #C6C5C5",
"!$	c #9E9D9E",
"~$	c #150E13",
"{$	c #852C6C",
"]$	c #30202A",
"^$	c #2F212A",
"/$	c #2E1F29",
"($	c #2F202A",
"_$	c #2F1F29",
":$	c #2E2029",
"<$	c #30222B",
"[$	c #34242E",
"}$	c #D74FB2",
"|$	c #D858B4",
"1$	c #D962B6",
"2$	c #D85DB5",
"3$	c #D85FB5",
"4$	c #D85CB5",
"5$	c #D413AA",
"                                                                                                    ",
"                                                                                                    ",
"                                                                                                    ",
"                                                                                                    ",
"                                                                                                    ",
"                                                                                                    ",
"                                                                                                    ",
"                            . + @ # # $ $ $ $ $ $ $ $ # % & * # $ # $ $ $ $ $ $ $ $ # @ =           ",
"                            - ; > , ' ) ! ~ ~ ~ ~ { ] ) ^ / ( _ : < ~ ~ ~ ~ ~ ] ! [ } | 1           ",
"                            - 2 3 4 5 6 5 7 7 7 5 8 4 9 0 / a b c d 5 7 7 7 7 5 8 8 e f g           ",
"                            h i j k l m } n n n n o p q r / s t u v n n n n } w x y z A B           ",
"                            h i j C D E F F F G H I J K L / M N O P F F F H F Q R S T A U           ",
"                            h i j V W X Y Z Y `  ...+.K L / M @.O #.$.%.Y Y Z $.&.*.=.A U           ",
"                            - -.;.>.,.'.).!.Y ~.{.].^./.(./ ( t _.:.:.<.[.!.F }.].|.1.A 2.          ",
"                            - 3.4.5.6.7.8...Y 9.0.a.b.,.r c.a d.e.f.g.h.I G i.j.k.l.m.n.o.          ",
"                            p.q.r.s.t.u.v.D !.w.x.y.z.A.B.C.D.E.F.G.H.I.J.K.L.T M.N.O.P.Q.          ",
"                            R.S.T.U.V.y W.X.Y.!.! d Z.`. +.+++@+#+$+%+&+!.*+=+-+;+>+T.,+'+          ",
"                                    )+!+~+{+!.!.]+^+/+(+_+  :+<+[+=.}+Q !.|+1+2+3+4+                ",
"                                    5+6+7+8+9+Y E 0+a+b+c+  d+e+f+].g+&+D h+i+j+k+                  ",
"                                      l+A m+n+o+!.p+q+r+s+t+u+q.v+w+Y I x+y+z+A+B+                  ",
"                                      C+D+E+F+G+H+!.I+J+K+L+M+v.N+W !.O+P+/.Q+R+                    ",
"                                      4+S+T+U+V+W+..X+Y+Z+`+ @.@+@@@Y #@$@%@&@*@                    ",
"                                        =@-@;@3 >@I I :.,@'@)@!@~@!.J.{@]@^@/@                      ",
"                                        (@_@:@<@[@!.}@|@1@2@3@4@D ` K.5@6@7@8@                      ",
"                                          9@0@a@:.*+G Y b@c@d@e@Y.f@Z+g@h@i@                        ",
"                                            j@k@l@m@*+n@o@y+p@Y.q@r@s@t@u@v@                        ",
"                                            w@x@d@y@W+Z z@e.A@*+Y.B@C@E.D@E@                        ",
"                                            F@G@H@a.I@..Y J@W+*+K@v.e.L@M@                          ",
"                                            N@O@P@]@y Q@Z R@Q@F S@T@U@V@W@                          ",
"                                              X@Y@Z@`@ #.#+#Y *+@###$#%#                            ",
"                                              &#*#=#-#;#o+Y F >#,#r+'#)#                            ",
"                                                !#~#{#]#^#/#(#_#:#<#[#4+                            ",
"                                                }#|#)@u 1#Y 2#3#4#5#6#                              ",
"                                                }#|#%+e.7#Y 2#8#J+9#0#                              ",
"                                                8@a#b#e.c#Y 2#d#c@e#f#                              ",
"                                          g#h#h#i#' j#e.k#Y 2#l#m#n#o#h#h#p#q#                      ",
"                                          r#s#t#u#u#t v#w#D 2#J x#y#z#A#<#B#C#                      ",
"                                          D#E#7.W.F#7 G#H#Y J.3#I#J#F#K#L#B#C#                      ",
"                                          D#M#N#O#P#P#Q#E Y Y.R#S#T#U#V#3 B#C#                      ",
"                                          W#d.X#Y#F *+*+Y Y Y F &+Z#Z#`#3  $C#                      ",
"                                          W#d.N#Y#F F F G I F H .$+$R @$3  $C#                      ",
"                                          #$M#l@$$%$&$&$&$&$&$&$&$*${+=$-$;$C#                      ",
"                                          #$>$,$'$'$'$'$'$'$'$'$'$'$)$,$!$~$C#                      ",
"                                          {$]$^$/$($_$_$_$_$_$_$_$/$/$:$<$[$C#                      ",
"                                          }$|$1$2$2$2$2$2$2$2$2$2$2$2$3$3$4$5$                      ",
"                                                                                                    ",
"                                                                                                    ",
"                                                                                                    ",
"                                                                                                    ",
"                                                                                                    "};
