/* XPM */
static char * tile027_xpm[] = {
"50 50 476 2",
"  	c #D411AA",
". 	c #D42AAC",
"+ 	c #DB96C4",
"@ 	c #DB95C3",
"# 	c #DB97C4",
"$ 	c #DB96C3",
"% 	c #D653B1",
"& 	c #D536AD",
"* 	c #AC869F",
"= 	c #030303",
"- 	c #050505",
"; 	c #7D5C71",
"> 	c #D34EAE",
", 	c #D40EAA",
"' 	c #A94C8E",
") 	c #262726",
"! 	c #C6C5C5",
"~ 	c #E8E7E8",
"{ 	c #EAE9E9",
"] 	c #EAE9EA",
"^ 	c #E9E9E9",
"/ 	c #DEDEDE",
"( 	c #525252",
"_ 	c #876E7E",
": 	c #D24EAE",
"< 	c #D40FAA",
"[ 	c #A9478C",
"} 	c #2C292B",
"| 	c #C2C1C1",
"1 	c #EBEAEB",
"2 	c #9D9C9C",
"3 	c #9C9B9C",
"4 	c #9D9B9C",
"5 	c #D5D4D4",
"6 	c #E2E1E2",
"7 	c #4E4E4E",
"8 	c #877480",
"9 	c #D458B1",
"0 	c #D416AA",
"a 	c #B76F9F",
"b 	c #2C2B2B",
"c 	c #B8B7B7",
"d 	c #EFEEEF",
"e 	c #676566",
"f 	c #110D0E",
"g 	c #130F10",
"h 	c #110E0F",
"i 	c #120D0E",
"j 	c #373636",
"k 	c #D6D5D5",
"l 	c #E3E2E2",
"m 	c #4C4B4C",
"n 	c #897280",
"o 	c #D448AF",
"p 	c #D418AA",
"q 	c #BF84AB",
"r 	c #393A39",
"s 	c #B1B0B1",
"t 	c #EFEEEE",
"u 	c #6F6E6F",
"v 	c #130D0F",
"w 	c #120C0E",
"x 	c #110B0D",
"y 	c #120B0E",
"z 	c #3A3939",
"A 	c #D6D4D5",
"B 	c #E2E0E1",
"C 	c #4A4949",
"D 	c #874071",
"E 	c #D31AA9",
"F 	c #D408AA",
"G 	c #BF89AC",
"H 	c #353635",
"I 	c #AEADAE",
"J 	c #F2F0F1",
"K 	c #797878",
"L 	c #110C0E",
"M 	c #120E10",
"N 	c #181617",
"O 	c #313031",
"P 	c #302F2F",
"Q 	c #302E2E",
"R 	c #2F2E2E",
"S 	c #2F2E2F",
"T 	c #222021",
"U 	c #0F0B0C",
"V 	c #110C0D",
"W 	c #3D3B3C",
"X 	c #D8D5D6",
"Y 	c #DFDCDD",
"Z 	c #3C3B3B",
"` 	c #905E80",
" .	c #D31FAA",
"..	c #D50CAA",
"+.	c #65535E",
"@.	c #8C8B8B",
"#.	c #F4F3F4",
"$.	c #858384",
"%.	c #141011",
"&.	c #120F10",
"*.	c #191718",
"=.	c #C4C3C4",
"-.	c #FAFAFA",
";.	c #FBFAFB",
">.	c #FCFBFB",
",.	c #FDFCFD",
"'.	c #FDFCFC",
").	c #DCDCDC",
"!.	c #454445",
"~.	c #100C0D",
"{.	c #110A0D",
"].	c #160D10",
"^.	c #3F3D3E",
"/.	c #DDDCDC",
"(.	c #C7C6C6",
"_.	c #0B1811",
":.	c #CF13A6",
"<.	c #D50BAA",
"[.	c #685762",
"}.	c #D3D3D3",
"|.	c #0F0C0D",
"1.	c #120D0F",
"2.	c #141213",
"3.	c #C7C6C7",
"4.	c #E9E8E9",
"5.	c #777576",
"6.	c #5D5C5C",
"7.	c #5C5A5B",
"8.	c #5C5B5B",
"9.	c #5E5D5E",
"0.	c #D3D1D2",
"a.	c #DEDDDE",
"b.	c #140D0F",
"c.	c #13090C",
"d.	c #B6B5B6",
"e.	c #06160E",
"f.	c #675661",
"g.	c #9E9D9E",
"h.	c #D4D3D3",
"i.	c #0E0B0C",
"j.	c #B8B7B8",
"k.	c #605F60",
"l.	c #613D55",
"m.	c #A62B87",
"n.	c #A62A86",
"o.	c #885A78",
"p.	c #343333",
"q.	c #DAD9D9",
"r.	c #BCBCBC",
"s.	c #0E080A",
"t.	c #130A0D",
"u.	c #B7B6B6",
"v.	c #D5D4D5",
"w.	c #D4D4D4",
"x.	c #100B0D",
"y.	c #D0CFD0",
"z.	c #BFBDBE",
"A.	c #4A243E",
"B.	c #CC2AA5",
"C.	c #D229AA",
"D.	c #363235",
"E.	c #B9B8B8",
"F.	c #B7B7B7",
"G.	c #D6D5D6",
"H.	c #04150C",
"I.	c #CFCECF",
"J.	c #C1C0C0",
"K.	c #5F1B4C",
"L.	c #D511AB",
"M.	c #D313AA",
"N.	c #383436",
"O.	c #B7B6B7",
"P.	c #0E070A",
"Q.	c #D5D5D6",
"R.	c #675560",
"S.	c #110F10",
"T.	c #100F10",
"U.	c #110F0F",
"V.	c #D1D1D1",
"W.	c #C1C1C1",
"X.	c #5F1C4D",
"Y.	c #D312AA",
"Z.	c #363234",
"`.	c #0D080A",
" +	c #D5D6D6",
".+	c #695762",
"++	c #F0EFF0",
"@+	c #D9D9D9",
"#+	c #EEEEEE",
"$+	c #C0C0C0",
"%+	c #5E1B4C",
"&+	c #D314AA",
"*+	c #C2C1C2",
"=+	c #0D090A",
"-+	c #6E6D6E",
";+	c #A7A5A6",
">+	c #A6A4A5",
",+	c #A6A5A5",
"'+	c #A6A5A6",
")+	c #A5A5A5",
"!+	c #838383",
"~+	c #5F1E4D",
"{+	c #D426AB",
"]+	c #B286A3",
"^+	c #171616",
"/+	c #CBCACB",
"(+	c #0E090A",
"_+	c #D5D5D5",
":+	c #D40CAA",
"<+	c #92587F",
"[+	c #7C3D69",
"}+	c #7C3C68",
"|+	c #7C3D68",
"1+	c #7C3E69",
"2+	c #914079",
"3+	c #D410AA",
"4+	c #B8589B",
"5+	c #272827",
"6+	c #ECEBEB",
"7+	c #6A696A",
"8+	c #B5B5B5",
"9+	c #D3D4D3",
"0+	c #07160E",
"a+	c #D40AAA",
"b+	c #C26DA8",
"c+	c #3D393C",
"d+	c #A9A8A8",
"e+	c #EBEBEB",
"f+	c #717171",
"g+	c #373535",
"h+	c #D8D8D8",
"i+	c #CBCBCB",
"j+	c #05160D",
"k+	c #D412AA",
"l+	c #C97CB0",
"m+	c #4B494A",
"n+	c #908F90",
"o+	c #EFEFEF",
"p+	c #807F7F",
"q+	c #100D0E",
"r+	c #110D0F",
"s+	c #211E1F",
"t+	c #CAC8C9",
"u+	c #E0E0E0",
"v+	c #494A4A",
"w+	c #7B546E",
"x+	c #D31DA9",
"y+	c #C738A2",
"z+	c #51434C",
"A+	c #858485",
"B+	c #EEECED",
"C+	c #939192",
"D+	c #110A0C",
"E+	c #1A1819",
"F+	c #BBBABB",
"G+	c #555455",
"H+	c #7A486A",
"I+	c #D02DA8",
"J+	c #D05FAF",
"K+	c #634E5B",
"L+	c #7C7B7C",
"M+	c #EDECEC",
"N+	c #A2A1A2",
"O+	c #6C6B6C",
"P+	c #74686F",
"Q+	c #CF1BA6",
"R+	c #D015A7",
"S+	c #7A6372",
"T+	c #646464",
"U+	c #ECEAEB",
"V+	c #ABAAAA",
"W+	c #0F0B0D",
"X+	c #0F0A0B",
"Y+	c #130E10",
"Z+	c #B1B1B1",
"`+	c #ECEBEC",
" @	c #777676",
".@	c #62525C",
"+@	c #CF60AE",
"@@	c #D025A7",
"#@	c #743261",
"$@	c #504F50",
"%@	c #E5E4E5",
"&@	c #BDBBBC",
"*@	c #1C1819",
"=@	c #0C080A",
"-@	c #797979",
";@	c #583F4F",
">@	c #C845A4",
",@	c #D442AE",
"'@	c #875E79",
")@	c #4F4E4E",
"!@	c #E1E0E1",
"~@	c #CECDCD",
"{@	c #262324",
"]@	c #140B0E",
"^@	c #130E0F",
"/@	c #8F8E8E",
"(@	c #868585",
"_@	c #513146",
":@	c #C73CA3",
"<@	c #984480",
"[@	c #393939",
"}@	c #DCDBDC",
"|@	c #D2D1D1",
"1@	c #878787",
"2@	c #F0EEEF",
"3@	c #9A9999",
"4@	c #473D43",
"5@	c #C0449E",
"6@	c #CE3AA8",
"7@	c #CE3CA8",
"8@	c #CF39A9",
"9@	c #D415AA",
"0@	c #97367D",
"a@	c #262928",
"b@	c #CECDCE",
"c@	c #DBDADB",
"d@	c #3B3939",
"e@	c #828182",
"f@	c #A1A0A1",
"g@	c #131111",
"h@	c #363636",
"i@	c #454746",
"j@	c #404241",
"k@	c #424443",
"l@	c #434543",
"m@	c #424544",
"n@	c #754B67",
"o@	c #D417AA",
"p@	c #A4608E",
"q@	c #2C2E2D",
"r@	c #C8C8C8",
"s@	c #E6E4E5",
"t@	c #545353",
"u@	c #6B6B6B",
"v@	c #EBEAEA",
"w@	c #A4A3A3",
"x@	c #3A3739",
"y@	c #4E4C4D",
"z@	c #848383",
"A@	c #C8C7C7",
"B@	c #C7C7C7",
"C@	c #C8C7C8",
"D@	c #848484",
"E@	c #672B56",
"F@	c #D510AA",
"G@	c #B75499",
"H@	c #282828",
"I@	c #686768",
"J@	c #0E0C0D",
"K@	c #5D5C5D",
"L@	c #E7E7E7",
"M@	c #B3B2B3",
"N@	c #252224",
"O@	c #B53193",
"P@	c #64545E",
"Q@	c #A09FA0",
"R@	c #E4E3E4",
"S@	c #A8A7A7",
"T@	c #A8A8A8",
"U@	c #9FA09F",
"V@	c #662955",
"W@	c #B63495",
"X@	c #272326",
"Y@	c #ADADAD",
"Z@	c #ECECEC",
"`@	c #6B696A",
" #	c #100E0F",
".#	c #545454",
"+#	c #E3E3E3",
"@#	c #C2C2C2",
"##	c #B485A4",
"$#	c #63545E",
"%#	c #A19FA0",
"&#	c #D2D2D2",
"*#	c #0B090A",
"=#	c #070607",
"-#	c #DDDDDD",
";#	c #A0A0A0",
">#	c #D40DAA",
",#	c #BB519C",
"'#	c #343133",
")#	c #A3A3A3",
"!#	c #F4F3F3",
"~#	c #7A7A7A",
"{#	c #515050",
"]#	c #E1E1E1",
"^#	c #947589",
"/#	c #C33B9F",
"(#	c #C43BA0",
"_#	c #5D5058",
":#	c #A1A0A0",
"<#	c #D2D1D2",
"[#	c #0F0D0E",
"}#	c #090808",
"|#	c #A1A1A1",
"1#	c #C96BAC",
"2#	c #464244",
"3#	c #9B9A9B",
"4#	c #F4F2F3",
"5#	c #919091",
"6#	c #140E10",
"7#	c #3F3C3D",
"8#	c #DEDDDD",
"9#	c #CCCBCC",
"0#	c #262626",
"a#	c #010101",
"b#	c #1F2020",
"c#	c #161817",
"d#	c #191B1A",
"e#	c #040504",
"f#	c #9D9D9D",
"g#	c #090607",
"h#	c #D510AB",
"i#	c #5C2D4D",
"j#	c #7E7D7E",
"k#	c #F1F1F1",
"l#	c #949393",
"m#	c #333031",
"n#	c #D3D2D2",
"o#	c #FAF8F9",
"p#	c #DFDFDF",
"q#	c #DFDEDE",
"r#	c #DFDEDF",
"s#	c #CDCCCD",
"t#	c #411935",
"u#	c #D2D2D1",
"v#	c #C5C4C4",
"w#	c #595657",
"x#	c #8A8989",
"y#	c #898989",
"z#	c #898888",
"A#	c #888888",
"B#	c #898889",
"C#	c #747474",
"D#	c #100A0C",
"E#	c #BEBCBD",
"F#	c #0E0D0E",
"G#	c #080606",
"H#	c #411A36",
"I#	c #BEBDBD",
"J#	c #090606",
"K#	c #421A36",
"L#	c #CBCACA",
"M#	c #7B7B7B",
"N#	c #7D7B7C",
"O#	c #7C7C7C",
"P#	c #7A797A",
"Q#	c #662854",
"R#	c #431C37",
"S#	c #C5C4C5",
"T#	c #E8E8E8",
"U#	c #EAEAEA",
"V#	c #E7E6E7",
"W#	c #E8E7E7",
"X#	c #969696",
"Y#	c #431E37",
"Z#	c #1A1C1B",
"`#	c #151515",
" $	c #151615",
".$	c #151715",
"+$	c #141615",
"@$	c #111312",
"#$	c #161716",
"$$	c #151716",
"%$	c #111513",
"&$	c #662A55",
"*$	c #C974AF",
"=$	c #C65EA7",
"-$	c #C86CAB",
";$	c #C763A9",
">$	c #C766A9",
",$	c #C76BAB",
"'$	c #C767AA",
")$	c #C84FA6",
"                                                                                                    ",
"                                                                                                    ",
"                                                                                                    ",
"                                                                                                    ",
"                                                                                                    ",
"                                                                                                    ",
"                                                                                                    ",
"                                      . + @ @ + # # # # # # + $ %                                   ",
"                                    & * = = - = = = = = = = = - ; >                                 ",
"                                  , ' ) ! ~ { { ] ] ] ] ] ] ^ / ( _ :                               ",
"                                < [ } | 1 2 2 3 4 4 4 4 4 4 3 5 6 7 8 9                             ",
"                              0 a b c d e f g f h h h f f i f j k l m n o                           ",
"                            p q r s t u v w x x y y y x x x x f z A B C D E                         ",
"                          F G H I J K L f M N O P Q R R S T U V V W X Y Z `  .                      ",
"                          ..+.@.#.$.%.L &.*.=.-.;.>.,.'.,.).!.~.{.].^./.(._.:.                      ",
"                          <.[.3 }.|.1.1.2.3.4.5.6.7.7.8.9.0.a.C b.c.V d.}.e.:.                      ",
"                          <.f.g.h.i.L x j.^ k.l.m.m.n.n.o.p.q.r.s.t.x u.v.e.:.                      ",
"                          <.f.g.w.i.x.x.y.z.A.B.        C.D.E.| s.t.x F.G.H.:.                      ",
"                          <.f.g.w.i.x.x.I.J.K.L.        M.N.O.| P.t.x F.Q.H.:.                      ",
"                          <.R.3 }.S.T.U.V.W.X.L.        Y.Z.O.W.`.x x F. +H.:.                      ",
"                          <..+4 ++@+q.@+#+$+%+L.        &+N.O.*+=+x V F. +H.:.                      ",
"                          <..+-+;+>+,+'+)+!+~+L.      {+]+^+/+J.(+x x.F._+H.:.                      ",
"                          :+<+[+}+}+|+}+[+1+2+3+    , 4+5+c 6+7+~.v 1.8+9+0+:.                      ",
"                            3+                    a+b+c+d+e+f+S.~.v g+h+i+j+:.                      ",
"                                                k+l+m+n+o+p+M q+r+s+t+u+v+w+x+                      ",
"                                                y+z+A+B+C+D+t.|.E+F+{ G+H+I+                        ",
"                                              J+K+L+M+N+`.x {.E+F.t O+P+Q+                          ",
"                                            R+S+T+U+V+W+U X+Y+Z+`+ @.@+@                            ",
"                                          @@#@$@%@&@*@1.~.=@3 ] -@;@>@                              ",
"                                        ,@'@)@!@~@{@]@i ^@/@d (@_@:@                                ",
"                                      k+<@[@}@|@R i v ^@1@2@3@4@5@6@7@7@7@7@8@3+                    ",
"                                    9@0@a@b@c@d@i V h e@++f@g@h@i@j@k@l@k@m@n@<                     ",
"                                  o@p@q@r@s@t@f V |.u@v@w@x@y@z@A@B@C@C@r@D@E@F@                    ",
"                                  G@H@$+{ I@q+|.J@K@L@M@N@O@P@Q@R@S@T@T@^ U@V@F@                    ",
"                                W@X@Y@Z@`@i ~. #.#+#@#H@##F@$#%#&#*#J@=#-#;#V@F@                    ",
"                            >#,#'#)#!#~#w x g {#]#i+H@^#/#(#_#:#<#*#[#}#).|#V@F@                    ",
"                            1#2#3#4#5#x 6#w 7#8#9#0#a#b#c#d#e#f#&#X+x.g#/ |#V@F@                    ",
"                          h#i#j#k#l#L w w m#n#o#6 a.p#q#r#r#a.L@s#X+x g#/ |#V@F@                    ",
"                          h#t#u#v#=+L x x w#x#y#z#A#B#y#B#A#B#y#C#D#x g#/ |#V@F@                    ",
"                          h#t#&#E#U V x x x ~.f [#[#q+f f f q+F#J@V x G#/ |#V@F@                    ",
"                          h#H#&#I#~.f w w w i h  #r+v v v v 1. #q+i L J#-#|#V@F@                    ",
"                          h#K#<#L#M#L+N#L+L+L+L+L+L+L+L+L+L+L+L+L+L+O#P#6 |#Q#F@                    ",
"                          h#R#S#T#] ] ] U#U#U#U#U#U#U#U#U#U#U#U#U#U#V#T#W#X#E@F@                    ",
"                          h#Y#Z#`# $.$ $ $ $ $ $ $ $ $ $ $ $ $ $ $+$@$#$$$%$&$F@                    ",
"                          >#*$=$-$;$;$;$;$;$;$;$;$;$;$;$;$;$;$;$;$;$>$,$'$=$)$                      ",
"                                                                                                    ",
"                                                                                                    ",
"                                                                                                    ",
"                                                                                                    ",
"                                                                                                    "};
