/* XPM */
static char * tile002_xpm[] = {
"50 50 347 2",
"  	c #D411AA",
". 	c #D664B5",
"+ 	c #DB99C4",
"@ 	c #DB98C4",
"# 	c #DA98C4",
"$ 	c #D982BC",
"% 	c #D25CB0",
"& 	c #7A6672",
"* 	c #000000",
"= 	c #252826",
"- 	c #B55999",
"; 	c #D40EAA",
"> 	c #D463B3",
", 	c #7C6C76",
"' 	c #5F5E5E",
") 	c #E0DFDF",
"! 	c #EAEAEA",
"~ 	c #ECEBEB",
"{ 	c #ECEAEB",
"] 	c #E9E7E8",
"^ 	c #A9A9A9",
"/ 	c #373838",
"( 	c #C37EAC",
"_ 	c #D405AA",
": 	c #D018A7",
"< 	c #7D6173",
"[ 	c #5F5E5F",
"} 	c #E7E6E6",
"| 	c #D1D0D1",
"1 	c #989797",
"2 	c #999898",
"3 	c #9D9C9C",
"4 	c #A2A0A1",
"5 	c #F3F1F2",
"6 	c #A4A4A4",
"7 	c #373636",
"8 	c #C485AF",
"9 	c #D40CAA",
"0 	c #D124A9",
"a 	c #7E436C",
"b 	c #555354",
"c 	c #E8E7E7",
"d 	c #CCCACB",
"e 	c #2E2C2C",
"f 	c #120E0F",
"g 	c #110D0E",
"h 	c #110D0F",
"i 	c #110C0E",
"j 	c #130E10",
"k 	c #888788",
"l 	c #F5F4F5",
"m 	c #A5A4A5",
"n 	c #343434",
"o 	c #C489B0",
"p 	c #D419AA",
"q 	c #D331AB",
"r 	c #885F7A",
"s 	c #464545",
"t 	c #E3E2E2",
"u 	c #D0CFCF",
"v 	c #2F2C2D",
"w 	c #100A0C",
"x 	c #110B0D",
"y 	c #120B0E",
"z 	c #120C0E",
"A 	c #100B0C",
"B 	c #929191",
"C 	c #F5F4F4",
"D 	c #3C3D3D",
"E 	c #BF4F9F",
"F 	c #D43CAD",
"G 	c #987A8D",
"H 	c #363535",
"I 	c #DEDDDD",
"J 	c #D6D5D6",
"K 	c #353334",
"L 	c #120D0F",
"M 	c #100C0E",
"N 	c #2A2929",
"O 	c #383838",
"P 	c #383737",
"Q 	c #383738",
"R 	c #141112",
"S 	c #100C0D",
"T 	c #0A0607",
"U 	c #939292",
"V 	c #F5F3F4",
"W 	c #A1A1A1",
"X 	c #41303B",
"Y 	c #C1439F",
"Z 	c #C71EA0",
"` 	c #161E19",
" .	c #CBCACA",
"..	c #DAD9D9",
"+.	c #3A3738",
"@.	c #130D0F",
"#.	c #100E0F",
"$.	c #545353",
"%.	c #E2E2E2",
"&.	c #FBFBFB",
"*.	c #FCFCFC",
"=.	c #F6F6F6",
"-.	c #AAAAAA",
";.	c #0D0A0B",
">.	c #949393",
",.	c #717171",
"'.	c #9A207C",
").	c #181F1B",
"!.	c #D7D5D6",
"~.	c #A8A8A8",
"{.	c #5A5959",
"].	c #E3E2E3",
"^.	c #CCCBCC",
"/.	c #595959",
"(.	c #565656",
"_.	c #878787",
":.	c #F0EFF0",
"<.	c #A3A2A3",
"[.	c #1F1C1D",
"}.	c #EFEFEF",
"|.	c #848484",
"1.	c #9B237D",
"2.	c #D9D8D9",
"3.	c #120D0E",
"4.	c #0D090A",
"5.	c #C7C7C7",
"6.	c #D6D5D5",
"7.	c #303030",
"8.	c #8C4B77",
"9.	c #A82A88",
"0.	c #A82888",
"a.	c #572147",
"b.	c #828182",
"c.	c #F1F0F0",
"d.	c #9F9D9D",
"e.	c #1E1B1C",
"f.	c #F2F2F2",
"g.	c #858585",
"h.	c #9A217D",
"i.	c #DAD8D9",
"j.	c #0F0B0C",
"k.	c #CCCCCC",
"l.	c #C1C0C1",
"m.	c #452C3D",
"n.	c #D41CAA",
"o.	c #CB17A3",
"p.	c #441437",
"q.	c #CCCBCB",
"r.	c #CAC8C8",
"s.	c #1F1C1C",
"t.	c #F4F3F3",
"u.	c #C1BFC0",
"v.	c #462A3D",
"w.	c #D510AB",
"x.	c #D511AB",
"y.	c #5C164A",
"z.	c #CCC8C9",
"A.	c #1E1C1C",
"B.	c #9A217C",
"C.	c #0E0A0B",
"D.	c #CDCCCC",
"E.	c #5D164A",
"F.	c #C8C7C8",
"G.	c #C8C6C7",
"H.	c #131212",
"I.	c #201F1F",
"J.	c #F1F1F1",
"K.	c #868686",
"L.	c #C2C1C2",
"M.	c #46293C",
"N.	c #CDCCCD",
"O.	c #EFEEEE",
"P.	c #DDDCDD",
"Q.	c #FAFAFA",
"R.	c #9B217D",
"S.	c #5D174B",
"T.	c #848384",
"U.	c #A1A0A1",
"V.	c #A2A1A1",
"W.	c #A1A0A0",
"X.	c #D410AA",
"Y.	c #933C7A",
"Z.	c #813C6C",
"`.	c #803B6C",
" +	c #B13590",
".+	c #D404AA",
"++	c #D401AA",
"@+	c #D400AA",
"#+	c #D409AA",
"$+	c #9D8193",
"%+	c #918C8F",
"&+	c #928C8F",
"*+	c #928D90",
"=+	c #938D91",
"-+	c #908B8E",
";+	c #B76C9F",
">+	c #737273",
",+	c #8E8E8E",
"'+	c #8F8F8F",
")+	c #504F50",
"!+	c #EEECED",
"~+	c #DEDDDE",
"{+	c #DDDCDC",
"]+	c #888787",
"^+	c #9B247D",
"/+	c #C2C0C1",
"(+	c #C9C8C9",
"_+	c #C7C6C7",
":+	c #050304",
"<+	c #060203",
"[+	c #1B1819",
"}+	c #EFEEEF",
"|+	c #9B227D",
"1+	c #C8C8C8",
"2+	c #110A0D",
"3+	c #1F1B1C",
"4+	c #858485",
"5+	c #9B217C",
"6+	c #C0BFC0",
"7+	c #472C3E",
"8+	c #D50FAB",
"9+	c #C53EA1",
"0+	c #412538",
"a+	c #C9C9C9",
"b+	c #CBC8C9",
"c+	c #130A0D",
"d+	c #201B1C",
"e+	c #171E1A",
"f+	c #A9A8A8",
"g+	c #110C0D",
"h+	c #0F0A0B",
"i+	c #C6C5C6",
"j+	c #D3D1D3",
"k+	c #292728",
"l+	c #996186",
"m+	c #B0709B",
"n+	c #B1729C",
"o+	c #B2729D",
"p+	c #AF6D99",
"q+	c #4D4148",
"r+	c #818181",
"s+	c #A7A6A6",
"t+	c #130A0E",
"u+	c #F3F2F2",
"v+	c #858484",
"w+	c #C71DA0",
"x+	c #1A1E1B",
"y+	c #D8D5D5",
"z+	c #140B0E",
"A+	c #5D5A5B",
"B+	c #C0BFBF",
"C+	c #585757",
"D+	c #585858",
"E+	c #575857",
"F+	c #8A8A8A",
"G+	c #ABABAB",
"H+	c #161415",
"I+	c #898989",
"J+	c #191F1B",
"K+	c #D2D0D1",
"L+	c #DBDADB",
"M+	c #3D3C3D",
"N+	c #100D0E",
"O+	c #140E10",
"P+	c #656464",
"Q+	c #EBEAEA",
"R+	c #100F0F",
"S+	c #130F10",
"T+	c #8E8D8D",
"U+	c #737373",
"V+	c #D33DAC",
"W+	c #897882",
"X+	c #4E4D4D",
"Y+	c #E4E3E4",
"Z+	c #D6D4D5",
"`+	c #373737",
" @	c #3C393A",
".@	c #504E4E",
"+@	c #4F4D4E",
"@@	c #4E4C4D",
"#@	c #4E4D4E",
"$@	c #4C4B4C",
"%@	c #121010",
"&@	c #0F0C0D",
"*@	c #878686",
"=@	c #F5F2F3",
"-@	c #9B9B9B",
";@	c #434142",
">@	c #C565A8",
",@	c #D557B1",
"'@	c #8A7381",
")@	c #4E4E4E",
"!@	c #CFCFCF",
"~@	c #242323",
"{@	c #110E0E",
"]@	c #A6A5A5",
"^@	c #313031",
"/@	c #BD5BA0",
"(@	c #D40DAA",
"_@	c #886D7E",
":@	c #E6E6E6",
"<@	c #171617",
"[@	c #140C0F",
"}@	c #130C0E",
"|@	c #140F11",
"1@	c #828282",
"2@	c #F2F0F1",
"3@	c #B3B2B3",
"4@	c #282627",
"5@	c #B63A95",
"6@	c #D245AC",
"7@	c #79556D",
"8@	c #575757",
"9@	c #EAE9E9",
"0@	c #828081",
"a@	c #817F80",
"b@	c #979596",
"c@	c #F4F3F4",
"d@	c #B8B7B7",
"e@	c #251B21",
"f@	c #B63D95",
"g@	c #CF27A7",
"h@	c #6B385B",
"i@	c #6D6B6B",
"j@	c #E0DEDF",
"k@	c #E6E5E5",
"l@	c #E7E7E7",
"m@	c #E6E5E6",
"n@	c #B3B3B3",
"o@	c #323332",
"p@	c #BD82A9",
"q@	c #D414AA",
"r@	c #D259AF",
"s@	c #70686D",
"t@	c #111412",
"u@	c #0F1310",
"v@	c #101311",
"w@	c #161917",
"x@	c #2B2D2C",
"y@	c #BB84A8",
"z@	c #D420AB",
"A@	c #D046AB",
"B@	c #CB6FAE",
"C@	c #CA65AB",
"D@	c #C95FAA",
"E@	c #CE70B1",
"F@	c #D417AA",
"                                                                                                    ",
"                                                                                                    ",
"                                                                                                    ",
"                                                                                                    ",
"                                                                                                    ",
"                                        . + @ + + + + + + + + # # $                                 ",
"                                      % & * * * * * * * * * * * * = - ;                             ",
"                                    > , ' ) ! ~ ~ ~ ~ ~ ~ ~ ~ { ] ^ / ( _                           ",
"                                  : < [ } | 1 2 2 2 2 2 2 2 2 3 4 5 6 7 8 9                         ",
"                                0 a b c d e f g h h h h h h g i j k l m n o p                       ",
"                              q r s t u v w x x y y y y y y x z z A B C ^ D E                       ",
"                            F G H I J K L g M N O P P P Q O H R L S T U V W X Y                     ",
"                            Z `  ...+.@.f #.$.%.&.&.*.*.*.&.=.-.;.S S @.>.l ,.'.                    ",
"                            Z ).!.~.S z g {.].^./.(.(.(.(.(._.:.<.S g z [.}.|.1.                    ",
"                            Z ).2.^ 3.z 4.5.6.7.8.9.9.9.9.0.a.b.c.d.S z e.f.g.h.                    ",
"                            Z ).i.^ 3.A j.k.l.m.n.          o.p.q.r.i x s.t.g.h.                    ",
"                            Z )...^ 3.x 4.k.u.v.w.          x.y. .z.S x A.t.g.B.                    ",
"                            Z )...^ 3.x C.D.l.v.w.          x.E.F.G.H.H.I.J.K.B.                    ",
"                            Z )...^ 3.x C.D.L.M.w.          x.E.N.O.P.P.I Q.K.R.                    ",
"                            Z )...^ 3.x C.D.L.M.w.          x.S.T.U.V.4 W.6 (.R.                    ",
"                            Z )...^ 3.x C.D.L.M.w.          X.Y.Z.Z.Z.Z.Z.Z.`. +                    ",
"                            Z )...^ 3.x C.D.L.M.w.                                                  ",
"                            Z )...^ 3.x C.D.L.M.w.                                                  ",
"                            Z )...^ 3.x C.D.L.M.w.                                                  ",
"                            Z )...^ 3.x C.D.L.M.w.                                                  ",
"                            Z )...^ 3.x C.D.L.M.w.                                                  ",
"                            Z )...^ 3.x C.D.L.M.w.            .+++@+@+@+@+++++#+                    ",
"                            Z )...^ 3.x C.D.L.M.w.          9 $+%+&+*+=+*+-+-+;+                    ",
"                            Z )...^ 3.x C.D.L.M.w.          x.E.>+,+,+,+,+'+)+R.                    ",
"                            Z )...^ 3.x C.D.L.M.w.          x.y.q.!+~+~+{+Q.]+^+                    ",
"                            Z )...^ 3.x C.D./+M.w.          x.y.(+_+:+<+[+}+k |+                    ",
"                            Z )...^ 3.x C.k.u.v.w.          x.y.1+(+S 2+3+t.4+5+                    ",
"                            Z )...^ 3.x 4.N.6+7+8+          9+0+a+b+x c+d+V 4+R.                    ",
"                            Z e+2.f+g+x h+i+j+k+l+m+n+o+o+p+q+r+}.s+x t+d+u+v+R.                    ",
"                            w+x+y+~.S 3.z+A+] B+C+D+D+D+(.E+F+J.G+H+g x 3+J.I+R.                    ",
"                            w+J+K+L+M+N+O+x P+Q+f.f.f.f.J.J.c.^ R+#.f S+T+C U+'.                    ",
"                            V+W+X+Y+Z+`+3.S+j. @.@+@@@X+#@+@$@%@&@N+h *@=@-@;@>@                    ",
"                              ,@'@)@%.!@~@N+{@3.L L f f f f g g+A f b.:.]@^@/@(@                    ",
"                                ,@_@)@:@F.<@L L [@}@z z 3.@.@.@.|@1@2@3@4@5@                        ",
"                                  6@7@8@9@i+0@b.b.b.b.b.b.b.b.a@b@c@d@e@f@                          ",
"                                    g@h@i@j@k@l@l@l@l@l@l@l@l@l@m@n@o@p@q@                          ",
"                                      r@s@t@u@u@v@v@v@v@v@v@u@t@w@x@y@z@                            ",
"                                      X.A@B@C@C@C@C@C@C@C@C@C@C@D@E@F@                              ",
"                                                                                                    ",
"                                                                                                    ",
"                                                                                                    ",
"                                                                                                    ",
"                                                                                                    ",
"                                                                                                    ",
"                                                                                                    "};
