/* XPM */
static char * tile014_xpm[] = {
"50 50 314 2",
"  	c #D411AA",
". 	c #D40FAA",
"+ 	c #D381B8",
"@ 	c #D198BD",
"# 	c #D298BE",
"$ 	c #D294BC",
"% 	c #D42CAC",
"& 	c #D415AA",
"* 	c #C680AF",
"= 	c #454545",
"- 	c #333333",
"; 	c #303030",
"> 	c #2F2F2F",
", 	c #313031",
"' 	c #313131",
") 	c #323031",
"! 	c #343333",
"~ 	c #1D1D1D",
"{ 	c #AD88A0",
"] 	c #D42DAC",
"^ 	c #C470AA",
"/ 	c #464746",
"( 	c #9B9A9A",
"_ 	c #F3F2F2",
": 	c #F1F0F1",
"< 	c #F3F2F3",
"[ 	c #F2F1F1",
"} 	c #F4F2F3",
"| 	c #CAC9C9",
"1 	c #151515",
"2 	c #AA6D96",
"3 	c #C12F9D",
"4 	c #401C35",
"5 	c #9E9D9D",
"6 	c #F6F5F6",
"7 	c #A7A6A7",
"8 	c #838283",
"9 	c #848283",
"0 	c #828081",
"a 	c #818080",
"b 	c #8C8B8B",
"c 	c #EBE9EA",
"d 	c #CCCACB",
"e 	c #1A1E1B",
"f 	c #A63788",
"g 	c #D410AA",
"h 	c #C442A1",
"i 	c #483942",
"j 	c #959394",
"k 	c #F4F3F4",
"l 	c #9D9D9D",
"m 	c #120E0F",
"n 	c #100C0D",
"o 	c #100C0E",
"p 	c #120C0E",
"q 	c #666464",
"r 	c #E9E7E8",
"s 	c #C3C1C2",
"t 	c #292929",
"u 	c #AC5491",
"v 	c #D40BAA",
"w 	c #CA5EAA",
"x 	c #554D52",
"y 	c #858484",
"z 	c #9F9E9E",
"A 	c #110E0F",
"B 	c #110B0C",
"C 	c #140E10",
"D 	c #140B0E",
"E 	c #130B0E",
"F 	c #171113",
"G 	c #6B6A6B",
"H 	c #EEEDED",
"I 	c #B5B4B5",
"J 	c #292829",
"K 	c #B672A0",
"L 	c #D40DAA",
"M 	c #CE64AE",
"N 	c #645E62",
"O 	c #7C7B7C",
"P 	c #F2F1F2",
"Q 	c #A09FA0",
"R 	c #0E0B0C",
"S 	c #110C0D",
"T 	c #100D0E",
"U 	c #0F0B0C",
"V 	c #5E5E5E",
"W 	c #6D6D6D",
"X 	c #1B1819",
"Y 	c #120D0E",
"Z 	c #110C0E",
"` 	c #6F6D6E",
" .	c #F0EFEF",
"..	c #AFAEAE",
"+.	c #BE7DA8",
"@.	c #A8348A",
"#.	c #222222",
"$.	c #EDECED",
"%.	c #A9A8A9",
"&.	c #100B0C",
"*.	c #110B0D",
"=.	c #0F0D0E",
"-.	c #939293",
";.	c #F4F3F3",
">.	c #F4F4F4",
",.	c #F5F5F5",
"'.	c #C0BFBF",
").	c #201E1F",
"!.	c #110D0E",
"~.	c #130E0F",
"{.	c #130D0F",
"].	c #757373",
"^.	c #7E3168",
"/.	c #A9368A",
"(.	c #282828",
"_.	c #535353",
":.	c #0E090B",
"<.	c #959595",
"[.	c #F0EFF0",
"}.	c #3D3C3D",
"|.	c #3F3E3E",
"1.	c #3F3E3F",
"2.	c #3E3E3E",
"3.	c #3D3D3D",
"4.	c #3F3F3F",
"5.	c #707070",
"6.	c #EAE9EA",
"7.	c #C4C3C4",
"8.	c #1D1B1C",
"9.	c #010000",
"0.	c #E8E7E8",
"a.	c #868586",
"b.	c #7F3469",
"c.	c #AA3A8B",
"d.	c #000000",
"e.	c #ABABAB",
"f.	c #353234",
"g.	c #AC3C8E",
"h.	c #B72694",
"i.	c #B72794",
"j.	c #B62A93",
"k.	c #65435A",
"l.	c #737273",
"m.	c #F7F6F6",
"n.	c #747474",
"o.	c #040000",
"p.	c #E9E9E9",
"q.	c #898888",
"r.	c #7F3369",
"s.	c #AA398B",
"t.	c #272727",
"u.	c #F6F5F5",
"v.	c #545353",
"w.	c #100B0D",
"x.	c #908F90",
"y.	c #8A206F",
"z.	c #AE238D",
"A.	c #4C4B4B",
"B.	c #F8F7F8",
"C.	c #747373",
"D.	c #030000",
"E.	c #EBEAEA",
"F.	c #898889",
"G.	c #100A0D",
"H.	c #F5F4F5",
"I.	c #908E8F",
"J.	c #8A1E6F",
"K.	c #AF258D",
"L.	c #4D4C4D",
"M.	c #F8F6F7",
"N.	c #747273",
"O.	c #282627",
"P.	c #F6F4F5",
"Q.	c #110A0D",
"R.	c #909090",
"S.	c #AE218C",
"T.	c #4F4E4E",
"U.	c #F9F7F8",
"V.	c #282727",
"W.	c #F6F6F6",
"X.	c #909191",
"Y.	c #F9F8F9",
"Z.	c #4E4E4E",
"`.	c #919191",
" +	c #8A1F6F",
".+	c #4F4F4F",
"++	c #F7F6F7",
"@+	c #F3F3F3",
"#+	c #871F6D",
"$+	c #AC228B",
"%+	c #747374",
"&+	c #AA388B",
"*+	c #F5F3F4",
"=+	c #120D0F",
"-+	c #110A0C",
";+	c #EAEAEA",
">+	c #BCBCBC",
",+	c #212422",
"'+	c #976687",
")+	c #9E708E",
"!+	c #9F718F",
"~+	c #A27693",
"{+	c #4C2740",
"]+	c #8B8B8B",
"^+	c #666666",
"/+	c #100A0C",
"(+	c #888787",
"_+	c #2B2829",
":+	c #717171",
"<+	c #EFEFEF",
"[+	c #B3B3B3",
"}+	c #797979",
"|+	c #777777",
"1+	c #787878",
"2+	c #787978",
"3+	c #989898",
"4+	c #160E10",
"5+	c #888888",
"6+	c #1C1B1B",
"7+	c #E6E5E5",
"8+	c #CCCBCB",
"9+	c #2E2C2C",
"0+	c #0F0A0C",
"a+	c #100F10",
"b+	c #7C7B7B",
"c+	c #E5E4E5",
"d+	c #EDECEC",
"e+	c #ECEBEB",
"f+	c #ECEBEC",
"g+	c #ECECEC",
"h+	c #A09F9F",
"i+	c #131011",
"j+	c #070203",
"k+	c #A4A3A3",
"l+	c #737373",
"m+	c #D572B7",
"n+	c #766A71",
"o+	c #626262",
"p+	c #ECEAEB",
"q+	c #C8C7C7",
"r+	c #252222",
"s+	c #0E0C0D",
"t+	c #0D0A0B",
"u+	c #262525",
"v+	c #2D2C2C",
"w+	c #2D2B2C",
"x+	c #2C2A2B",
"y+	c #2C2B2C",
"z+	c #2C2B2B",
"A+	c #0E0A0B",
"B+	c #9A9899",
"C+	c #969696",
"D+	c #474747",
"E+	c #C883B1",
"F+	c #D367B3",
"G+	c #796D74",
"H+	c #5F5F5F",
"I+	c #EEECED",
"J+	c #C0BDBE",
"K+	c #1E1C1D",
"L+	c #130F10",
"M+	c #918E8F",
"N+	c #969595",
"O+	c #464445",
"P+	c #C780B0",
"Q+	c #D15BAF",
"R+	c #786A73",
"S+	c #666565",
"T+	c #EEEDEE",
"U+	c #B9B7B8",
"V+	c #1A1517",
"W+	c #150C0F",
"X+	c #120B0D",
"Y+	c #888687",
"Z+	c #484547",
"`+	c #C97CB0",
" @	c #D409AA",
".@	c #CF4EAB",
"+@	c #695160",
"@@	c #BEBDBD",
"#@	c #9D9B9B",
"$@	c #9D9C9D",
"%@	c #9D9B9C",
"&@	c #A7A5A6",
"*@	c #A0A0A0",
"=@	c #3D3B3C",
"-@	c #C267A6",
";@	c #CA37A5",
">@	c #5D3550",
",@	c #7D7C7D",
"'@	c #D3D2D2",
")@	c #D4D3D4",
"!@	c #D4D3D3",
"~@	c #D6D5D5",
"{@	c #D5D5D5",
"]@	c #D2D1D2",
"^@	c #A4A3A4",
"/@	c #2C292B",
"(@	c #B84598",
"_@	c #C826A2",
":@	c #5B5A5B",
"<@	c #000300",
"[@	c #000200",
"}@	c #000100",
"|@	c #241F22",
"1@	c #B8549B",
"2@	c #D413AA",
"3@	c #D551B0",
"4@	c #D66DB6",
"5@	c #D669B5",
"6@	c #D772B8",
"7@	c #D670B7",
"8@	c #D55EB2",
"9@	c #D417AA",
"                                                                                                    ",
"                                                                                                    ",
"                                                                                                    ",
"                                                                                                    ",
"                                                                                                    ",
"                                                                                                    ",
"                                          . + @ @ # # # # # # # # # @ @ $ %                         ",
"                                        & * = - ; > , ' ' ' ' ' ' , ) ! ~ { ]                       ",
"                                      . ^ / ( _ : : < < < < < < < < [ } | 1 2                       ",
"                                      3 4 5 6 7 8 9 0 0 0 0 0 0 0 a 0 b c d e f g                   ",
"                                    h i j k l m n n o o o o o o o n p p q r s t u v                 ",
"                                g w x y < z A B C p p p p p p p p p D E F G H I J K L               ",
"                                M N O P Q R S T U V W W W W W W W W X Y Z m `  ...> +.              ",
"                                @.#.$.%.&.*.Y =.-._ ;.k >.,.,.>.>.,.'.).!.~.{.].[ O ^.              ",
"                                /.(.;._.!.*.:.<.[.5 }.|.1.2.2.3.4.5.6.7.8.Z *.9.0.a.b.              ",
"                                c.t ,._.!.*.d.P e.f.g.h.h.h.h.i.j.k.l.m.n.&.*.o.p.q.r.              ",
"                                s.t.u.v.!.w.d.k x.y.              z.A.B.C.n *.D.E.F.b.              ",
"                                s.t.u._.!.G.d.H.I.J.              K.L.M.N.n *.D.E.F.b.              ",
"                                s.O.P.v.!.Q.d.,.R.J.              S.T.U.n.S *.D.E.F.b.              ",
"                                s.V.u.v.!.Q.d.W.X.J.              S.T.Y.n.S *.D.E.F.b.              ",
"                                s.V.u.v.!.Q.d.W.R.J.              S.T.Y.n.S *.D.E.F.b.              ",
"                                s.V.u.v.!.Q.d.W.R.J.              S.T.Y.n.S *.D.E.F.b.              ",
"                                s.V.u.v.!.Q.d.W.R.J.              S.T.Y.n.S *.D.E.F.b.              ",
"                                s.V.u.v.!.Q.d.W.R.J.              S.T.Y.n.S *.D.E.F.b.              ",
"                                s.V.u.v.!.Q.d.W.R.J.              S.T.Y.n.S *.D.E.F.b.              ",
"                                s.V.u.v.!.Q.d.W.R.J.              S.T.Y.n.S *.D.E.F.b.              ",
"                                s.V.u.v.!.Q.d.W.R.J.              S.T.Y.n.S *.D.E.F.b.              ",
"                                s.V.u.v.!.Q.d.W.R.J.              S.T.Y.n.S *.D.E.F.b.              ",
"                                s.V.u.v.!.Q.d.W.R.J.              S.T.Y.n.S *.D.E.F.b.              ",
"                                s.V.u.v.!.Q.d.W.R.J.              S.Z.Y.n.n *.D.E.F.b.              ",
"                                s.V.u.v.!.Q.d.W.`.J.              S.Z.Y.n.n S D.E.F.b.              ",
"                                s.V.u.v.!.Q.d.,.R.J.              S.Z.Y.n.n S D.E.F.b.              ",
"                                s.V.u.v.!.Q.d.>.R. +              z..+++n.n S D.E.F.b.              ",
"                                s.V.u.v.!.Q.d.@+R.#+              $+Z.++%+n S D.E.q.b.              ",
"                                &+O.*+v.=+-+d.;+>+,+'+)+!+!+!+!+~+{+]+k ^+Z /+D.6.(+b.              ",
"                                /._+} _.{.E p :+<+[+}+|+|+1+2+1+|+3+ .Q w.p 4+d.p.5+^.              ",
"                                &+6+7+8+9+p 0+a+b+c+d+e+f+f+f+g+f+E.h+i+m m j+k+>.l+r.              ",
"                              g m+n+o+p+q+r+!.s+t+u+v+w+x+x+x+y+z+w+!.S U A+B+} C+D+E+              ",
"                                  F+G+H+I+J+K+!.&.Z !.!.!.!.!.!.!.!.p p L+M+*+N+O+P+g               ",
"                                    Q+R+S+T+U+V+{.*.p p p p p p p p W+X+Y+;.( Z+`+ @                ",
"                                      .@+@5. .@@#@$@$@$@$@$@$@$@$@$@%@&@_ *@=@-@v                   ",
"                                        ;@>@,@'@)@!@~@~@~@~@~@~@~@~@{@]@^@/@(@g                     ",
"                                          _@:@<@<@[@}@}@}@}@}@}@}@}@d.}@|@1@2@                      ",
"                                            3@4@5@5@5@5@5@5@5@5@5@5@6@7@8@9@                        ",
"                                                                                                    ",
"                                                                                                    ",
"                                                                                                    ",
"                                                                                                    ",
"                                                                                                    ",
"                                                                                                    "};
