/* XPM */
static char * tile032_xpm[] = {
"50 50 404 2",
"  	c #D411AA",
". 	c #D40DAA",
"+ 	c #8E4879",
"@ 	c #750C5C",
"# 	c #750C5D",
"$ 	c #740C5C",
"% 	c #740D5C",
"& 	c #750E5D",
"* 	c #740B5C",
"= 	c #75175E",
"- 	c #CA19A2",
"; 	c #D50BAA",
"> 	c #6B5864",
", 	c #727070",
"' 	c #BDBABB",
") 	c #BDBBBC",
"! 	c #BEBBBC",
"~ 	c #BDBCBC",
"{ 	c #BCBABB",
"] 	c #BDBCBD",
"^ 	c #B9B9B9",
"/ 	c #ADADAD",
"( 	c #222824",
"_ 	c #C71DA0",
": 	c #6C5A65",
"< 	c #939192",
"[ 	c #F1EEEF",
"} 	c #D9D7D7",
"| 	c #D9D7D8",
"1 	c #D8D7D8",
"2 	c #D8D6D7",
"3 	c #D5D4D5",
"4 	c #E0DEDF",
"5 	c #E4E4E4",
"6 	c #2B302D",
"7 	c #C71CA0",
"8 	c #6B5963",
"9 	c #939191",
"0 	c #D6D3D4",
"a 	c #110E0E",
"b 	c #100C0D",
"c 	c #110D0E",
"d 	c #100C0E",
"e 	c #9A9899",
"f 	c #E6E5E6",
"g 	c #2B2F2D",
"h 	c #120E0F",
"i 	c #120D0E",
"j 	c #130E0F",
"k 	c #110C0D",
"l 	c #110C0E",
"m 	c #9B9999",
"n 	c #6A5963",
"o 	c #2F2D2D",
"p 	c #2E2B2C",
"q 	c #2E2C2C",
"r 	c #2D2A2B",
"s 	c #282526",
"t 	c #100A0C",
"u 	c #120C0E",
"v 	c #9B999A",
"w 	c #695963",
"x 	c #929191",
"y 	c #D5D3D4",
"z 	c #110E0F",
"A 	c #0F090A",
"B 	c #CFCDCE",
"C 	c #EBE9EA",
"D 	c #ECEBEC",
"E 	c #EDEBEC",
"F 	c #ECEAEB",
"G 	c #EAE9E9",
"H 	c #EAE8E9",
"I 	c #E9E7E8",
"J 	c #949293",
"K 	c #130D0F",
"L 	c #120D0F",
"M 	c #0F0E0E",
"N 	c #B2B3B2",
"O 	c #D7D7D7",
"P 	c #212724",
"Q 	c #C720A0",
"R 	c #0E080A",
"S 	c #D7D6D6",
"T 	c #C1C0C1",
"U 	c #959495",
"V 	c #969495",
"W 	c #949393",
"X 	c #959394",
"Y 	c #969595",
"Z 	c #B1B0B1",
"` 	c #F3F1F2",
" .	c #3F3C3D",
"..	c #2A2A2A",
"+.	c #E5E7E6",
"@.	c #A3A3A3",
"#.	c #623C55",
"$.	c #D328AA",
"%.	c #929292",
"&.	c #D4D3D4",
"*.	c #0E090A",
"=.	c #DCDADB",
"-.	c #A3A1A2",
";.	c #4B3543",
">.	c #9F658C",
",.	c #9D638A",
"'.	c #9D6289",
").	c #957289",
"!.	c #131112",
"~.	c #BFBEBF",
"{.	c #C2C1C1",
"].	c #0E090B",
"^.	c #828282",
"/.	c #F6F8F7",
"(.	c #3B3B3B",
"_.	c #A66090",
":.	c #D40EAA",
"<.	c #6A5964",
"[.	c #908F8F",
"}.	c #D3D2D3",
"|.	c #120F10",
"1.	c #0F090B",
"2.	c #DAD9DA",
"3.	c #A2A1A2",
"4.	c #632751",
"5.	c #D510AA",
"6.	c #D410AA",
"7.	c #A4578C",
"8.	c #494848",
"9.	c #757474",
"0.	c #070102",
"a.	c #CFCFCF",
"b.	c #C4C5C4",
"c.	c #343836",
"d.	c #D36AB3",
"e.	c #919090",
"f.	c #514F4F",
"g.	c #535051",
"h.	c #514E4F",
"i.	c #DEDCDD",
"j.	c #A2A1A1",
"k.	c #D230AB",
"l.	c #6C696A",
"m.	c #9B9A9B",
"n.	c #E2E1E2",
"o.	c #1A1919",
"p.	c #545253",
"q.	c #F5F4F4",
"r.	c #808080",
"s.	c #884B75",
"t.	c #D414AA",
"u.	c #FAFAFA",
"v.	c #F6F5F6",
"w.	c #F8F6F7",
"x.	c #F7F5F6",
"y.	c #F9F8F9",
"z.	c #622751",
"A.	c #BF69A4",
"B.	c #201F1F",
"C.	c #D7D6D7",
"D.	c #A8A5A6",
"E.	c #0F0A0C",
"F.	c #110B0D",
"G.	c #A3A2A2",
"H.	c #0D0C0D",
"I.	c #BA549C",
"J.	c #6B5A65",
"K.	c #414141",
"L.	c #777777",
"M.	c #767676",
"N.	c #464646",
"O.	c #622651",
"P.	c #D419AB",
"Q.	c #8A5C7B",
"R.	c #656364",
"S.	c #EFEDEE",
"T.	c #4A4748",
"U.	c #050001",
"V.	c #E3E1E2",
"W.	c #ADABAC",
"X.	c #5B5358",
"Y.	c #D41FAB",
"Z.	c #D40AAA",
"`.	c #B979A4",
" +	c #B2759E",
".+	c #B479A0",
"++	c #B3769E",
"@+	c #B478A0",
"#+	c #B86C9F",
"$+	c #CD4AA9",
"%+	c #4A4C4B",
"&+	c #B7B5B6",
"*+	c #CAC7C8",
"=+	c #7E7C7D",
"-+	c #575657",
";+	c #A76190",
">+	c #B386A3",
",+	c #373637",
"'+	c #EAE7E8",
")+	c #848182",
"!+	c #140E10",
"~+	c #BFBCBD",
"{+	c #D4D2D3",
"]+	c #271120",
"^+	c #C834A3",
"/+	c #D442AE",
"(+	c #6E646A",
"_+	c #898788",
":+	c #E8E6E7",
"<+	c #2B2829",
"[+	c #110B0E",
"}+	c #312E2F",
"|+	c #F2EFF0",
"1+	c #8B8A8B",
"2+	c #835C75",
"3+	c #C25EA4",
"4+	c #2B2B2B",
"5+	c #D3D1D2",
"6+	c #AFADAE",
"7+	c #999697",
"8+	c #E8E5E6",
"9+	c #292A29",
"0+	c #B93997",
"a+	c #D416AA",
"b+	c #9D7F92",
"c+	c #5C5C5C",
"d+	c #EEEDEE",
"e+	c #595758",
"f+	c #1D1C1C",
"g+	c #D5D4D4",
"h+	c #B6B5B5",
"i+	c #5A3E51",
"j+	c #D339AB",
"k+	c #D360B1",
"l+	c #AEADAE",
"m+	c #100B0D",
"n+	c #5F5F5F",
"o+	c #F5F5F5",
"p+	c #575757",
"q+	c #D41BAB",
"r+	c #B577A0",
"s+	c #8A8989",
"t+	c #0F0C0D",
"u+	c #0E0709",
"v+	c #B5B4B4",
"w+	c #D5D5D5",
"x+	c #CA3FA6",
"y+	c #D42FAB",
"z+	c #82737D",
"A+	c #E6E6E6",
"B+	c #100D0E",
"C+	c #3A3738",
"D+	c #E7E6E7",
"E+	c #826E7B",
"F+	c #D42FAC",
"G+	c #CE76B2",
"H+	c #353636",
"I+	c #C7C7C7",
"J+	c #BABABA",
"K+	c #0A0809",
"L+	c #838182",
"M+	c #272727",
"N+	c #B780A4",
"O+	c #D401AA",
"P+	c #A98C9E",
"Q+	c #414041",
"R+	c #EEEDED",
"S+	c #626262",
"T+	c #0E0C0D",
"U+	c #0A0607",
"V+	c #CBC9CA",
"W+	c #B8B7B8",
"X+	c #4D4C4D",
"Y+	c #D56DB5",
"Z+	c #D357B0",
"`+	c #626062",
" @	c #A8A7A8",
".@	c #D8D5D7",
"+@	c #221F20",
"@@	c #EFEFEF",
"#@	c #656565",
"$@	c #9B8693",
"%@	c #D415AA",
"&@	c #D40FAA",
"*@	c #C587B0",
"=@	c #282728",
"-@	c #DFDDDE",
";@	c #9D9B9C",
">@	c #0F0D0E",
",@	c #A4A4A4",
"'@	c #D9D9D9",
")@	c #272827",
"!@	c #C57AAC",
"~@	c #D418AA",
"{@	c #93888F",
"]@	c #6C6B6C",
"^@	c #EDECED",
"/@	c #434142",
"(@	c #1F1D1E",
"_@	c #DEDDDD",
":@	c #969696",
"<@	c #6F696D",
"[@	c #D660B4",
"}@	c #CF6CB0",
"|@	c #383737",
"1@	c #C6C4C5",
"2@	c #C2C1C2",
"3@	c #110D0F",
"4@	c #727172",
"5@	c #383838",
"6@	c #AF87A1",
"7@	c #D408AA",
"8@	c #D413AA",
"9@	c #B388A4",
"0@	c #474646",
"a@	c #F0EFF0",
"b@	c #7B7A7B",
"c@	c #0F0B0C",
"d@	c #151213",
"e@	c #C4C3C4",
"f@	c #C3C2C2",
"g@	c #464847",
"h@	c #CF6DB1",
"i@	c #A75F90",
"j@	c #912075",
"k@	c #901F74",
"l@	c #912275",
"m@	c #626061",
"n@	c #999798",
"o@	c #E2DFE0",
"p@	c #1F1C1D",
"q@	c #474546",
"r@	c #717071",
"s@	c #543D4C",
"t@	c #922676",
"u@	c #D773B8",
"v@	c #797678",
"w@	c #5C5B5C",
"x@	c #807F7F",
"y@	c #7F7E7F",
"z@	c #E0DEDE",
"A@	c #A5A2A3",
"B@	c #959293",
"C@	c #7D7D7D",
"D@	c #686868",
"E@	c #222222",
"F@	c #DA93C2",
"G@	c #B8B6B7",
"H@	c #F8F7F8",
"I@	c #555353",
"J@	c #231F20",
"K@	c #D0CDCE",
"L@	c #EDECEC",
"M@	c #F3F3F3",
"N@	c #C9C9C9",
"O@	c #202020",
"P@	c #D993C1",
"Q@	c #7A7779",
"R@	c #B8B7B7",
"S@	c #D6D5D6",
"T@	c #000000",
"U@	c #020000",
"V@	c #060001",
"W@	c #0D0709",
"X@	c #9D9D9D",
"Y@	c #CACACA",
"Z@	c #1E1E1E",
"`@	c #DA94C2",
" #	c #7A7778",
".#	c #040202",
"+#	c #0D0B0C",
"@#	c #9E9E9E",
"##	c #0C090A",
"$#	c #0E0A0B",
"%#	c #090708",
"&#	c #9C9C9C",
"*#	c #7A7879",
"=#	c #B7B7B7",
"-#	c #CECCCD",
";#	c #CECBCC",
">#	c #CECDCE",
",#	c #CCCBCB",
"'#	c #CBCACA",
")#	c #DDDBDC",
"!#	c #C8C8C8",
"~#	c #D992C1",
"{#	c #7F7F7F",
"]#	c #B3B3B3",
"^#	c #B4B2B3",
"/#	c #B4B3B4",
"(#	c #B3B2B3",
"_#	c #B3B1B2",
":#	c #919191",
"<#	c #212121",
"[#	c #D993C2",
"}#	c #8C6D80",
"|#	c #5E174C",
"1#	c #5E164C",
"2#	c #5E144B",
"3#	c #5E154B",
"4#	c #5E164B",
"5#	c #622350",
"6#	c #D786BD",
"7#	c #D511AA",
"                                                                                                    ",
"                                                                                                    ",
"                                                                                                    ",
"                                                                                                    ",
"                                                                                                    ",
"                                                                                                    ",
"                                                                                                    ",
"                                                                                                    ",
"                          . + @ # @ @ $ $ % % % % % % % % % % % % % $ & * $ = -                     ",
"                          ; > , ' ) ! ! ~ ~ ~ ~ ~ ~ ~ ~ ~ ~ ~ ~ ~ ~ { ] ^ / ( _                     ",
"                          ; : < [ } | | 1 1 1 1 1 1 1 1 1 1 1 1 1 1 2 3 4 5 6 7                     ",
"                          ; 8 9 0 a b c c c b b b b b b b b b b d b b c e f g 7                     ",
"                          ; 8 9 0 h b c i j j k k k k k k k k l l i l i m f 6 7                     ",
"                          ; n 9 0 h b c o p p p q p p p p p r p s t u u v f g 7                     ",
"                          ; w x y z k A B C C D E D E E F G H I J K L M N O P Q                     ",
"                          ; w x y z k R S T U V W X U U Y < Z `  .K L ..+.@.#.$.                    ",
"                          ; w %.&.z b *.=.-.;.>.,.'.,.,.).!.~.{.].u i ^./.(._.:.                    ",
"                          ; <.[.}.|.c 1.2.3.4.5.      6.7.8.E 9.b K 0.a.b.c.d.                      ",
"                          ; w e.3 f.g.h.i.j.4.5.      k.l.m.n.o.l K p.q.r.s.t.                      ",
"                          ; w %.u.v.w.x.y.j.z.5.      A.B.C.D.E.i F.G.D H.I.                        ",
"                          ; J.K.L.M.M.M.L.N.O.5.    P.Q.R.S.T.u u U.V.W.X.Y.                        ",
"                          Z.`. +.+ + +++@+@+#+:.    $+%+&+*+K u L =+` -+;+                          ",
"                                                  Z.>+,+'+)+!+F.l ~+{+]+^+                          ",
"                                                  /+(+_+:+<+i [+}+|+1+2+Z.                          ",
"                                                  3+4+5+6+c u K 7+8+9+0+                            ",
"                                                a+b+c+d+e+c F.f+g+h+i+j+                            ",
"                                                k+p.l+5+|.b m+n+o+p+>.q+                            ",
"                                                r+..f s+t+c u+v+w+P x+                              ",
"                                              y+z+^.A+,+B+c C+D+%.E+F+                              ",
"                                              G+H+I+J+K+t+b L+D M+N+                                ",
"                                            O+P+Q+R+S+T+t+U+V+W+X+Y+                                ",
"                                            Z+`+ @.@+@b B+p+@@#@$@%@                                ",
"                                          &@*@=@-@;@F.c >@,@'@)@!@                                  ",
"                                          ~@{@]@^@/@u b (@_@:@<@[@                                  ",
"                                          }@|@1@2@3@u h 4@F 5@6@7@                                  ",
"                                        8@9@0@a@b@c@u d@e@f@g@h@                                    ",
"                                t.i@j@k@l@m@n@o@p@L F.q@S.r@s@l@t@u@                                ",
"                                a+v@w@x@=+y@z@A@t u 1.B@:+y@C@D@E@F@                                ",
"                                a+v@G@H@d+E 8+I@u u J@K@S.L@M@N@O@P@                                ",
"                                a+Q@R@S@T@U@V@E.!+u u W@T@T@X@Y@Z@`@                                ",
"                                a+ #W+3 .#B+c u F.F.F.k B++#@#Y@Z@`@                                ",
"                                a+ #W+3 T@##$#A R A 1.*.##%#&#Y@Z@`@                                ",
"                                a+*#=#@@-#;#-#B B B >#>#,#'#)#!#Z@~#                                ",
"                                a+*#{#]#^#^#/#/#/#/#/#/#(#_#Z :#<#[#                                ",
"                                %@}#|#1#2#2#3#3#3#3#3#3#1#3#1#4#5#6#                                ",
"                                  :.7#7#7#7#7#7#7#7#7#7#7#7#7#7#7#.                                 ",
"                                                                                                    ",
"                                                                                                    ",
"                                                                                                    ",
"                                                                                                    "};
