/* XPM */
static char * tile006_xpm[] = {
"50 50 399 2",
"  	c #D411AA",
". 	c #D410AA",
"+ 	c #AA278A",
"@ 	c #6E0C57",
"# 	c #6E0D58",
"$ 	c #6E0B57",
"% 	c #6E0C58",
"& 	c #905A7E",
"* 	c #D348AE",
"= 	c #A9348A",
"- 	c #1B1E1C",
"; 	c #A6A5A6",
"> 	c #BFBEBF",
", 	c #C1C0C0",
"' 	c #C0BEBF",
") 	c #B6B4B5",
"! 	c #3C3C3C",
"~ 	c #947B8B",
"{ 	c #D40CAA",
"] 	c #D40FAA",
"^ 	c #A83E8A",
"/ 	c #1E201F",
"( 	c #B4B2B3",
"_ 	c #EFEEEF",
": 	c #D4D3D3",
"< 	c #D4D3D4",
"[ 	c #D2D1D2",
"} 	c #E2E0E1",
"| 	c #323332",
"1 	c #903877",
"2 	c #D412AA",
"3 	c #D40DAA",
"4 	c #AB5491",
"5 	c #2A2829",
"6 	c #B2B0B1",
"7 	c #F3F1F2",
"8 	c #7A7878",
"9 	c #100C0D",
"0 	c #110D0E",
"a 	c #120D0E",
"b 	c #4A4848",
"c 	c #E0DEDF",
"d 	c #CFCECE",
"e 	c #323232",
"f 	c #8D3D76",
"g 	c #D316A9",
"h 	c #D413AA",
"i 	c #B36D9C",
"j 	c #2D2A2B",
"k 	c #ACABAC",
"l 	c #F2F0F1",
"m 	c #7A7979",
"n 	c #120D0F",
"o 	c #110C0D",
"p 	c #120C0E",
"q 	c #110C0E",
"r 	c #120E0F",
"s 	c #4F4D4E",
"t 	c #E7E5E6",
"u 	c #CDCBCC",
"v 	c #313131",
"w 	c #945580",
"x 	c #D321AA",
"y 	c #D41DAB",
"z 	c #BB80A7",
"A 	c #363636",
"B 	c #A3A2A2",
"C 	c #F1EFF0",
"D 	c #787778",
"E 	c #130D0F",
"F 	c #0E080A",
"G 	c #090305",
"H 	c #090304",
"I 	c #080204",
"J 	c #0C0608",
"K 	c #525151",
"L 	c #CCCBCB",
"M 	c #303131",
"N 	c #9E6E8E",
"O 	c #D428AB",
"P 	c #D03CAA",
"Q 	c #525553",
"R 	c #979596",
"S 	c #7D7B7C",
"T 	c #100A0C",
"U 	c #141213",
"V 	c #ADACAD",
"W 	c #E1E1E1",
"X 	c #E0E0E0",
"Y 	c #E2E2E2",
"Z 	c #CBCBCB",
"` 	c #323031",
" .	c #100D0E",
"..	c #595657",
"+.	c #E7E4E5",
"@.	c #BFBFBF",
"#.	c #282929",
"$.	c #C374AA",
"%.	c #CE35A8",
"&.	c #474B49",
"*.	c #C6C4C5",
"=.	c #BAB8B9",
"-.	c #110B0D",
";.	c #0E0A0B",
">.	c #A9A8A9",
",.	c #F3F2F2",
"'.	c #B1B1B1",
").	c #ADADAD",
"!.	c #AFAFAF",
"~.	c #AEAEAE",
"{.	c #E1E0E1",
"].	c #D0CECF",
"^.	c #2B292A",
"/.	c #140E10",
"(.	c #848283",
"_.	c #EBEAEB",
":.	c #3B3B3B",
"<.	c #C184AC",
"[.	c #CE33A7",
"}.	c #444846",
"|.	c #C8C6C7",
"1.	c #B9B7B8",
"2.	c #979697",
"3.	c #F5F3F4",
"4.	c #858485",
"5.	c #5A5B5B",
"6.	c #841A6A",
"7.	c #840D69",
"8.	c #6A3359",
"9.	c #4C4B4B",
"0.	c #E3E1E2",
"a.	c #CECBCC",
"b.	c #2E2C2C",
"c.	c #E9E9E9",
"d.	c #C17FAB",
"e.	c #CE34A8",
"f.	c #454947",
"g.	c #C9C7C8",
"h.	c #B9B8B9",
"i.	c #0F0B0C",
"j.	c #100B0C",
"k.	c #AAA8A8",
"l.	c #CAC8C9",
"m.	c #201F1F",
"n.	c #C985B3",
"o.	c #D139AA",
"p.	c #7F6A77",
"q.	c #525051",
"r.	c #F6F4F5",
"s.	c #7F7D7D",
"t.	c #EBEBEB",
"u.	c #3A3A3A",
"v.	c #C285AD",
"w.	c #100B0D",
"x.	c #AAA9A9",
"y.	c #CBC9CA",
"z.	c #262626",
"A.	c #D37FB8",
"B.	c #C67DAE",
"C.	c #7E7B7B",
"D.	c #ABA9AA",
"E.	c #CDCCCC",
"F.	c #C57BAD",
"G.	c #141313",
"H.	c #7C7A7B",
"I.	c #ECEBEB",
"J.	c #3B3A3A",
"K.	c #C284AD",
"L.	c #CDCCCD",
"M.	c #C67CAE",
"N.	c #BEBDBE",
"O.	c #B0AEAF",
"P.	c #AFAEAF",
"Q.	c #ECEAEB",
"R.	c #3B3A3B",
"S.	c #C386AE",
"T.	c #120F10",
"U.	c #DCDADB",
"V.	c #DFDEDF",
"W.	c #E0DFE0",
"X.	c #363536",
"Y.	c #C389AF",
"Z.	c #272627",
"`.	c #D37EB8",
" +	c #C47EAD",
".+	c #050001",
"++	c #030000",
"@+	c #020000",
"#+	c #040001",
"$+	c #1A1518",
"%+	c #C18AAE",
"&+	c #262526",
"*+	c #D37DB7",
"=+	c #CC3CA7",
"-+	c #AB7098",
";+	c #AE749B",
">+	c #AE749A",
",+	c #AD739A",
"'+	c #AD7299",
")+	c #B1799E",
"!+	c #B680A3",
"~+	c #B57FA3",
"{+	c #B580A3",
"]+	c #B681A4",
"^+	c #CF71B2",
"/+	c #272626",
"(+	c #BE1898",
"_+	c #0D110E",
":+	c #757575",
"<+	c #828282",
"[+	c #818181",
"}+	c #838283",
"|+	c #828182",
"1+	c #838282",
"2+	c #838182",
"3+	c #828181",
"4+	c #7B7A7A",
"5+	c #242323",
"6+	c #C286AE",
"7+	c #BE1A98",
"8+	c #161B18",
"9+	c #E2E4E3",
"0+	c #F5F6F6",
"a+	c #F4F4F4",
"b+	c #F5F4F4",
"c+	c #F4F3F3",
"d+	c #F6F5F6",
"e+	c #EEEEEE",
"f+	c #3D3C3C",
"g+	c #C38EB1",
"h+	c #BE1998",
"i+	c #171A18",
"j+	c #E1E2E2",
"k+	c #9C9C9C",
"l+	c #474646",
"m+	c #474546",
"n+	c #454344",
"o+	c #858585",
"p+	c #EAEAEA",
"q+	c #C176A8",
"r+	c #171918",
"s+	c #E3E2E3",
"t+	c #989797",
"u+	c #7E7C7D",
"v+	c #C282AD",
"w+	c #151716",
"x+	c #9A9999",
"y+	c #130E0F",
"z+	c #151917",
"A+	c #E2E3E2",
"B+	c #D4D4D4",
"C+	c #C7C6C7",
"D+	c #C5C4C5",
"E+	c #636263",
"F+	c #0F0C0D",
"G+	c #7C7C7C",
"H+	c #121714",
"I+	c #BABCBC",
"J+	c #CDCECE",
"K+	c #CDCDCD",
"L+	c #C9C9C9",
"M+	c #7D7C7C",
"N+	c #0E0D0E",
"O+	c #0F0D0E",
"P+	c #C388AE",
"Q+	c #C33B9F",
"R+	c #6E676B",
"S+	c #6E5F68",
"T+	c #6B4C60",
"U+	c #6B4D61",
"V+	c #6E626A",
"W+	c #63575E",
"X+	c #171717",
"Y+	c #F2F1F2",
"Z+	c #7E7B7C",
"`+	c #3B393A",
" @	c #C48DB1",
".@	c #D52BAC",
"+@	c #D64DB1",
"@@	c #D647B0",
"#@	c #D63AAE",
"$@	c #D63BAE",
"%@	c #D64AB0",
"&@	c #C782B0",
"*@	c #101010",
"=@	c #AAA9AA",
"-@	c #C579AC",
";@	c #131313",
">@	c #F1F0F1",
",@	c #7C7B7C",
"'@	c #0F0C0C",
")@	c #CBCACB",
"!@	c #D27DB7",
"~@	c #111111",
"{@	c #C87FB0",
"]@	c #D369B3",
"^@	c #73656E",
"/@	c #696969",
"(@	c #7C7B7B",
"_@	c #464947",
":@	c #0F0A0B",
"<@	c #908F90",
"[@	c #F5F4F5",
"}@	c #868686",
"|@	c #3C3A3B",
"1@	c #5F5C5D",
"2@	c #5F5C5E",
"3@	c #4B494A",
"4@	c #6B6B6B",
"5@	c #CACACA",
"6@	c #3C3B3C",
"7@	c #C280AC",
"8@	c #120E0E",
"9@	c #100F0F",
"0@	c #A6A6A6",
"a@	c #C3C2C2",
"b@	c #C2C2C2",
"c@	c #C5C5C5",
"d@	c #C2C1C2",
"e@	c #C4C4C4",
"f@	c #C8C8C8",
"g@	c #242424",
"h@	c #100E0F",
"i@	c #898888",
"j@	c #3D3D3D",
"k@	c #C27FAB",
"l@	c #CF30A8",
"m@	c #51494E",
"n@	c #8B8A8A",
"o@	c #918F90",
"p@	c #161515",
"q@	c #A2A1A1",
"r@	c #C4C2C3",
"s@	c #C6C5C6",
"t@	c #C5C4C4",
"u@	c #212121",
"v@	c #666364",
"w@	c #EAE8E9",
"x@	c #B3B2B2",
"y@	c #C476AB",
"z@	c #BF409D",
"A@	c #423E40",
"B@	c #F0EFF0",
"C@	c #888686",
"D@	c #0D090A",
"E@	c #0C0708",
"F@	c #0E090A",
"G@	c #0E090B",
"H@	c #0C0809",
"I@	c #565555",
"J@	c #BBBABB",
"K@	c #2C2D2C",
"L@	c #B18CA4",
"M@	c #D52AAC",
"N@	c #D417AA",
"O@	c #C58CB1",
"P@	c #393A3A",
"Q@	c #F0EEEF",
"R@	c #7F7E7E",
"S@	c #545252",
"T@	c #E9E7E8",
"U@	c #A27492",
"V@	c #D430AC",
"W@	c #D407AA",
"X@	c #BC7DA7",
"Y@	c #A19FA0",
"Z@	c #F2EFF0",
"`@	c #7F7D7E",
" #	c #0F090B",
".#	c #0F080A",
"+#	c #5D5B5C",
"@#	c #CAC9CA",
"##	c #2B2A2B",
"$#	c #9B6489",
"%#	c #D31FAA",
"&#	c #B3679B",
"*#	c #2D302E",
"=#	c #AEADAE",
"-#	c #D1D0D1",
";#	c #D2D0D1",
">#	c #D0CFD0",
",#	c #934C7D",
"'#	c #D414AA",
")#	c #AB488E",
"!#	c #242725",
"~#	c #999899",
"{#	c #ADABAC",
"]#	c #B0AFAF",
"^#	c #B0AFB0",
"/#	c #AEACAD",
"(#	c #A5A4A5",
"_#	c #2E2E2E",
":#	c #913B79",
"<#	c #AA3A8C",
"[#	c #661751",
"}#	c #651551",
"|#	c #651651",
"1#	c #932877",
"2#	c #D312AA",
"                                                                                                    ",
"                                                                                                    ",
"                                                                                                    ",
"                                                                                                    ",
"                                                                                                    ",
"                                                                .                                   ",
"                                    + @ # $ % % % % % % % % % # & *                                 ",
"                                  = - ; > , , , , , , , , , ' ) ! ~ {                               ",
"                              ] ^ / ( _ : : < < < < < < < < [ } [ | 1 2                             ",
"                            3 4 5 6 7 8 9 0 0 0 0 0 0 0 0 9 a b c d e f g                           ",
"                          h i j k l m n n o p p p p p p p q q r s t u v w x                         ",
"                        y z A B C D 9 q E F G H I I I H H J o E 9 K t L M N O                       ",
"                        P Q R _ S T r 0 U V W X Y Y Y W X Z `  .r q ..+.@.#.$.                      ",
"                        %.&.*.=.0 -.q ;.>.,.'.).!.!.!.~.~.{.].^.r 9 /.(._.:.<.                      ",
"                        [.}.|.1.9 p o 2.3.4.5.6.7.7.7.7.8.9.0.a.b.n p S c.:.d.                      ",
"                        e.f.g.h.i.p j.k.l.m.n.2         o.p.q.r.s.n p S t.u.v.                      ",
"                        e.f.g.h.i.p w.x.y.z.A.            B.U 7 C.n p S t.u.v.                      ",
"                        e.f.g.h.i.p i.D.E.z.A.            F.G.l H. .0 S I.J.K.                      ",
"                        e.f.g.h.i.p i.D.L.z.A.            M.U l N.O.P.> Q.R.S.                      ",
"                        e.f.g.h.i.p i.D.L.z.A.            M.T.U.V.} {.W.< X.Y.                      ",
"                        e.f.g.h.i.p i.D.L.Z.`.          .  +.+.+++@+@+++#+$+%+                      ",
"                        e.f.g.h.i.p i.D.L.&+*+=+-+;+>+,+'+)+!+~+~+{+{+]+~+]+^+                      ",
"                        e.f.g.h.i.p i.D.L./+`.(+_+:+<+<+<+[+}+}+|+1+2+3+4+5+6+                      ",
"                        e.f.g.h.i.p i.D.L./+`.7+8+9+0+a+a+a+b+b+a+c+a+d+e+f+g+                      ",
"                        e.f.g.h.i.p i.D.L.z.`.h+i+j+k+l+l+l+l+l+m+n+n+o+p+:.q+                      ",
"                        e.f.g.h.i.p i.D.L.z.`.h+r+s+t+0 p p p p p p n u+p+u.v+                      ",
"                        e.f.g.h.i.p i.D.L.z.`.h+w+0.x+0 n p y+y+q -.p S t.u.v.                      ",
"                        e.f.g.h.i.p i.D.L.z.`.h+z+A+B+C+C+C+*.D+E+F+ .G+t.u.v.                      ",
"                        e.f.g.h.i.p i.D.L.&+*+h+H+I+J+K+K+K+L+d+M+N+O+G+t.u.P+                      ",
"                        e.f.g.h.i.p i.D.L.&+*+Q+R+S+T+U+V+W+X+Y+M+r p Z+Q.`+ @                      ",
"                        e.f.g.h.i.p i.D.L./+`..@+@@@#@$@%@&@*@Y+S r p Z+Q.`+ @                      ",
"                        e.f.g.h.i.p i.=@L.&+`.            -@;@>@,@r p Z+Q.`+ @                      ",
"                        e.f.g.h.i.p '@>.)@/+!@            B.~@c+M+r p Z+Q.`+ @                      ",
"                        e.f.g.h.i.p 9 >.)@m.{@2 2 2 2 2 ]@^@/@Y+(@r p Z+Q.`+ @                      ",
"                        e._@|.1.:@-. .<@[@}@|@1@2@2@2@1@3@4@e+5@Z.a p M+p+6@7@                      ",
"                        e._@g.' 8@E F+9@0@d+a@b@c@c@c@d@e@e+f@g@h@9 n i@t.j@k@                      ",
"                        l@m@n@7 o@0  .O+p@q@D+r@s@s@s@D+t@( u@h@O+0 v@w@x@^.y@                      ",
"                        . z@A@<@B@C@0 0 r ;.D@E@F@G@G@H@H@;.r r  .I@t J@K@L@M@                      ",
"                          N@O@P@2.Q@R@n q 0 a a 0 q q a a q a 9 S@T@, z.U@V@                        ",
"                            W@X@A Y@Z@`@T F  # #.#.#.# # # #:@+#w@@###$#%#                          ",
"                              { &#*#=#C ].-#-#-#;#;#;#;#;#;#>#T@>#v ,#'#                            ",
"                                2 )#!#~#{#]#^#^#^#^#^#^#^#^#/#(#_#:#2                               ",
"                                  2 <#[#}#}#}#}#}#}#}#}#}#}#|#|#1#2#                                ",
"                                                                                                    ",
"                                                                                                    ",
"                                                                                                    ",
"                                                                                                    ",
"                                                                                                    ",
"                                                                                                    ",
"                                                                                                    "};
