/* XPM */
static char * tile016_xpm[] = {
"50 50 391 2",
"  	c #D411AA",
". 	c #D40FAA",
"+ 	c #BD5A9F",
"@ 	c #3A3839",
"# 	c #10000A",
"$ 	c #0E0008",
"% 	c #0D0008",
"& 	c #10020B",
"* 	c #3C1C32",
"= 	c #C0249B",
"- 	c #D408AA",
"; 	c #C472AA",
"> 	c #464546",
", 	c #8A898A",
"' 	c #CECCCD",
") 	c #D1CFD0",
"! 	c #D2D1D2",
"~ 	c #CFD0CF",
"{ 	c #D1D1D1",
"] 	c #8B8B8B",
"^ 	c #372531",
"/ 	c #C0339C",
"( 	c #D410AA",
"_ 	c #CB84B3",
": 	c #4F4D4E",
"< 	c #848383",
"[ 	c #F0EFF0",
"} 	c #BEBDBE",
"| 	c #B8B7B7",
"1 	c #B8B7B8",
"2 	c #B8B8B8",
"3 	c #B5B6B6",
"4 	c #C3C4C4",
"5 	c #F4F3F3",
"6 	c #8A8989",
"7 	c #453840",
"8 	c #C246A0",
"9 	c #C532A0",
"0 	c #545052",
"a 	c #7B7B7B",
"b 	c #EFEEEE",
"c 	c #9A9999",
"d 	c #130E10",
"e 	c #120D0E",
"f 	c #110C0E",
"g 	c #110C0D",
"h 	c #100C0D",
"i 	c #0F0D0D",
"j 	c #0E0C0D",
"k 	c #A6A6A6",
"l 	c #F4F2F3",
"m 	c #848484",
"n 	c #50454C",
"o 	c #C65EA7",
"p 	c #C53DA1",
"q 	c #52394A",
"r 	c #787777",
"s 	c #EEECED",
"t 	c #A3A1A2",
"u 	c #120B0D",
"v 	c #140C0E",
"w 	c #140B0E",
"x 	c #130A0D",
"y 	c #120C0E",
"z 	c #130C0E",
"A 	c #120F10",
"B 	c #A5A5A5",
"C 	c #EEF0EF",
"D 	c #777878",
"E 	c #5A5458",
"F 	c #CC70AF",
"G 	c #C649A4",
"H 	c #533F4C",
"I 	c #787878",
"J 	c #EFEEEF",
"K 	c #AEACAD",
"L 	c #120E0F",
"M 	c #110A0C",
"N 	c #191315",
"O 	c #1B1517",
"P 	c #1B1617",
"Q 	c #191517",
"R 	c #191617",
"S 	c #130D0F",
"T 	c #131112",
"U 	c #A8A8A8",
"V 	c #EEEEEE",
"W 	c #6E6E6E",
"X 	c #666465",
"Y 	c #CD5AAC",
"Z 	c #D403AA",
"` 	c #8F7D88",
" .	c #535253",
"..	c #F2F0F1",
"+.	c #B5B2B3",
"@.	c #110B0D",
"#.	c #130E0F",
"$.	c #0F0A0C",
"%.	c #7C7A7B",
"&.	c #E8E4E5",
"*.	c #ECE8EA",
"=.	c #EDEAEB",
"-.	c #EBEAEB",
";.	c #EBEBEB",
">.	c #EAEAEA",
",.	c #E3E2E3",
"'.	c #828080",
").	c #110D0E",
"!.	c #161214",
"~.	c #AEADAD",
"{.	c #E8E8E8",
"].	c #555555",
"^.	c #974D80",
"/.	c #D404AA",
"(.	c #8C7A85",
"_.	c #666565",
":.	c #E3E1E2",
"<.	c #252223",
"[.	c #7C7B7B",
"}.	c #EFEDEE",
"|.	c #B9B7B8",
"1.	c #A09F9F",
"2.	c #A1A0A1",
"3.	c #A1A1A1",
"4.	c #A0A1A1",
"5.	c #9FA09F",
"6.	c #9D9F9E",
"7.	c #BEBFBE",
"8.	c #F4F3F4",
"9.	c #888787",
"0.	c #130B0E",
"a.	c #2B2929",
"b.	c #EDEDED",
"c.	c #747474",
"d.	c #964C80",
"e.	c #8D7B86",
"f.	c #686667",
"g.	c #E4E1E2",
"h.	c #242222",
"i.	c #403E3E",
"j.	c #A9A8A8",
"k.	c #353233",
"l.	c #957589",
"m.	c #9F8295",
"n.	c #9E7F93",
"o.	c #9D7F92",
"p.	c #9F8194",
"q.	c #997D8F",
"r.	c #333433",
"s.	c #B6B4B5",
"t.	c #EDEBEC",
"u.	c #3C3A3A",
"v.	c #2A2728",
"w.	c #747374",
"x.	c #974C80",
"y.	c #4E4C4C",
"z.	c #5E5D5D",
"A.	c #AA899E",
"B.	c #D405AA",
"C.	c #D40AAA",
"D.	c #D40BAA",
"E.	c #D41CAB",
"F.	c #A4899A",
"G.	c #575656",
"H.	c #EFECED",
"I.	c #3F3D3D",
"J.	c #242122",
"K.	c #4C4A4A",
"L.	c #F3F1F2",
"M.	c #5E5D5E",
"N.	c #AB6194",
"O.	c #AA8D9F",
"P.	c #565556",
"Q.	c #F1EFF0",
"R.	c #3E3C3D",
"S.	c #676666",
"T.	c #E4E0E1",
"U.	c #4C494A",
"V.	c #575556",
"W.	c #4A4A4A",
"X.	c #F2F1F2",
"Y.	c #5D5D5D",
"Z.	c #AB6294",
"`.	c #F2F2F2",
" +	c #AC6193",
".+	c #AA8C9F",
"++	c #F1F0F1",
"@+	c #AB5F92",
"#+	c #3E3D3D",
"$+	c #9C798F",
"%+	c #C385AE",
"&+	c #C185AD",
"*+	c #C183AC",
"=+	c #C182AC",
"-+	c #C283AD",
";+	c #C284AD",
">+	c #9A8B94",
",+	c #F1EEEF",
"'+	c #3E3C3C",
")+	c #4A4A4B",
"!+	c #F3F2F3",
"~+	c #5F5E5F",
"{+	c #0A0607",
"]+	c #2F2E2F",
"^+	c #555656",
"/+	c #555455",
"(+	c #555454",
"_+	c #565555",
":+	c #2D2C2C",
"<+	c #0C0A0B",
"[+	c #565455",
"}+	c #939292",
"|+	c #F9FAF9",
"1+	c #F9F8F9",
"2+	c #FAF8F9",
"3+	c #F9F7F8",
"4+	c #898889",
"5+	c #100E0F",
"6+	c #4B4A4B",
"7+	c #110E0F",
"8+	c #939293",
"9+	c #E4E3E4",
"0+	c #666566",
"a+	c #686767",
"b+	c #656464",
"c+	c #F7F5F6",
"d+	c #8D8C8D",
"e+	c #100F0F",
"f+	c #4C4A4B",
"g+	c #0F0D0E",
"h+	c #949394",
"i+	c #E2E0E1",
"j+	c #0B0406",
"k+	c #040001",
"l+	c #8B8A8A",
"m+	c #0F0F0F",
"n+	c #676566",
"o+	c #E3E0E1",
"p+	c #4D4B4C",
"q+	c #646363",
"r+	c #0C0507",
"s+	c #040000",
"t+	c #8C8A8B",
"u+	c #686768",
"v+	c #2B2828",
"w+	c #DFDCDD",
"x+	c #252222",
"y+	c #252324",
"z+	c #DAD9D9",
"A+	c #3C3B3C",
"B+	c #919091",
"C+	c #E1DFE0",
"D+	c #F6F5F6",
"E+	c #888788",
"F+	c #4E4E4E",
"G+	c #E5E4E5",
"H+	c #D7D4D5",
"I+	c #2D2B2B",
"J+	c #F0EEEF",
"K+	c #737172",
"L+	c #8D7B87",
"M+	c #515050",
"N+	c #100D0E",
"O+	c #3C3B3B",
"P+	c #D5D4D4",
"Q+	c #E9E8E9",
"R+	c #E2E1E2",
"S+	c #F5F3F4",
"T+	c #D8D6D7",
"U+	c #3E3D3E",
"V+	c #555354",
"W+	c #727071",
"X+	c #A27392",
"Y+	c #333333",
"Z+	c #D1D0D0",
"`+	c #E6E4E5",
" @	c #504F50",
".@	c #423F40",
"+@	c #AAA7A8",
"@@	c #ADAAAB",
"#@	c #9F9C9D",
"$@	c #100709",
"%@	c #0D0507",
"&@	c #AAA8A9",
"*@	c #ACAAAB",
"=@	c #A9A7A8",
"-@	c #3C3A3B",
";@	c #4B4849",
">@	c #C6C5C6",
",@	c #323131",
"'@	c #AA4A8E",
")@	c #D322AA",
"!@	c #8F537C",
"~@	c #2E2D2E",
"{@	c #CFCDCE",
"]@	c #DEDCDD",
"^@	c #494848",
"/@	c #110D0F",
"(@	c #140E10",
"_@	c #140C0F",
":@	c #150C0F",
"<@	c #120D0F",
"[@	c #3F3D3E",
"}@	c #CCC9CA",
"|@	c #333233",
"1@	c #A28597",
"2@	c #D536AD",
"3@	c #D316AA",
"4@	c #8E4979",
"5@	c #323132",
"6@	c #D0CFD0",
"7@	c #D9D8D8",
"8@	c #DFDDDD",
"9@	c #D2D0D1",
"0@	c #333132",
"a@	c #947288",
"b@	c #D440AD",
"c@	c #D311AA",
"d@	c #95808D",
"e@	c #3A3939",
"f@	c #D6D4D5",
"g@	c #D5D3D4",
"h@	c #2F2C2D",
"i@	c #000000",
"j@	c #444344",
"k@	c #E0DFE0",
"l@	c #DAD9DA",
"m@	c #885A78",
"n@	c #D22BAA",
"o@	c #D555B1",
"p@	c #8E7987",
"q@	c #3D3C3C",
"r@	c #DBD9DA",
"s@	c #F6F4F5",
"t@	c #F6F5F5",
"u@	c #F5F4F5",
"v@	c #DBDADB",
"w@	c #0D0709",
"x@	c #030001",
"y@	c #F6F6F6",
"z@	c #DDDCDD",
"A@	c #434243",
"B@	c #81466E",
"C@	c #D21FA9",
"D@	c #D242AC",
"E@	c #816376",
"F@	c #424141",
"G@	c #7A797A",
"H@	c #7D7B7C",
"I@	c #B1AFB0",
"J@	c #E1E0E1",
"K@	c #080405",
"L@	c #7D7D7D",
"M@	c #7C7C7C",
"N@	c #3D3D3D",
"O@	c #7E3368",
"P@	c #D119A8",
"Q@	c #D254AE",
"R@	c #9D3781",
"S@	c #950A77",
"T@	c #502443",
"U@	c #949393",
"V@	c #080607",
"W@	c #0E0D0E",
"X@	c #020001",
"Y@	c #8B898A",
"Z@	c #681353",
"`@	c #950B77",
" #	c #9D1B7E",
".#	c #D117A8",
"+#	c #712E5E",
"@#	c #050204",
"##	c #8C8B8C",
"$#	c #941777",
"%#	c #702A5C",
"&#	c #D3D2D2",
"*#	c #D4D2D3",
"=#	c #D3D2D3",
"-#	c #951C78",
";#	c #6E6D6D",
">#	c #B5B4B5",
",#	c #B7B6B7",
"'#	c #B7B5B6",
")#	c #6A6869",
"!#	c #941877",
"~#	c #8C2672",
"{#	c #670752",
"]#	c #680A52",
"^#	c #670952",
"/#	c #680B52",
"(#	c #A41583",
"                                                                                                    ",
"                                                                                                    ",
"                                                                                                    ",
"                                                                                                    ",
"                                                                                                    ",
"                                . + @ # $ $ $ $ $ $ $ $ $ $ % & * =                                 ",
"                              - ; > , ' ) ! ! ! ! ! ! ! ! ! ~ { ] ^ /                               ",
"                            ( _ : < [ } | 1 1 1 1 1 1 1 1 2 3 4 5 6 7 8 (                           ",
"                            9 0 a b c d e f g g g g g g g h i j k l m n o .                         ",
"                          p q r s t u v w x w w y y y y y y z f A B C D E F (                       ",
"                        G H I J K L M z z N O P Q Q Q R R R z S h T U V W X Y                       ",
"                      Z `  ...+.R @.#.$.%.&.*.=.-.-.-.;.>.,.'.$.).y !.~.{.].^.                      ",
"                      /.(._.:.<.y S h [.}.|.1.2.3.4.4.5.6.7.8.9.).S 0.a.b.c.d.                      ",
"                      Z e.f.g.h.y y i.-.j.k.l.m.n.o.o.p.q.r.s.t.u.f y v...w.x.                      ",
"                      Z e.f.g.h.y y y...z.A.B.C.D.D.D.D.E.F.G.H.I.f y v...w.x.                      ",
"                      Z e.f.g.J.y y K.L.M.N.            - O.P.Q.R.f y v...w.x.                      ",
"                      Z e.S.T.J.y y U.L.z.N.            - O.V.Q.R.f y v...w.x.                      ",
"                      Z e.S.T.J.y y U.L.z.N.            - O.V.Q.R.f y v...w.x.                      ",
"                      Z e.S.T.J.y y W.X.Y.Z.            - O.V.Q.R.f y v...w.x.                      ",
"                      Z e.S.T.J.y y W.`.Y.Z.            - O.V.Q.R.f y v...w.x.                      ",
"                      Z e.S.T.J.y y W.`.Y.Z.            - O.V.Q.R.f y v...w.x.                      ",
"                      Z e.S.T.J.y y W.`.Y.Z.            - O.V.Q.R.f y v...w.x.                      ",
"                      Z e.S.T.J.y y W.`.Y.Z.            - O.V.Q.R.f y v...w.x.                      ",
"                      Z e.S.T.J.y y W.`.Y.Z.            - O.V.Q.R.f y v...w.x.                      ",
"                      Z e.S.T.J.y y W.`.Y. +            - .+V.++R.f y v...w.x.                      ",
"                      Z e.S.T.J.y y W.`.Y.@+            - O.V.Q.#+f y v...w.x.                      ",
"                      Z e.S.T.J.y y W.`.z.$+%+&+*+=+=+-+;+>+G.,+'+f y v...w.x.                      ",
"                      Z e.S.T.J.y y )+!+~+{+]+^+/+/+(+_+:+<+[+Q.R.f y v...w.x.                      ",
"                      Z e.S.T.J.y y )+!+~+L }+|+1+2+3+2+4+5+_+Q.R.f y v...w.x.                      ",
"                      Z e.S.T.J.y y 6+!+~+7+8+9+0+a+b+c+d+e+_+Q.R.f y v...w.x.                      ",
"                      Z e.S.T.J.y y f+!+~+g+h+i+j+e k+c+l+m+_+Q.R.f y v...w.x.                      ",
"                      Z e.S.T.J.y y f+!+~+g+h+i+j+e k+c+l+m+_+Q.R.f y v...w.x.                      ",
"                      Z e.n+o+h.y y p+..q+g+}+i+r+y s+c+t+m+u+Q.R.f y v+..w.^.                      ",
"                      Z e.n+w+x+@.S y+' z+A+B+C+r+e s+D+E+F+G+H+I+e y v.J+K+^.                      ",
"                      Z L+n+H.M+g @.N+O+P+-.Q+R+r+e k+S+>.V T+U+).f S V+..W+x.                      ",
"                      C.X+Y+Z+`+ @A h )..@+@@@#@$@w %@&@*@=@-@@.@.y ;@:.>@,@'@                      ",
"                        )@!@~@{@]@^@/@y (@@.S (@_@:@_@<@<@).e f #.[@w+}@|@1@2@                      ",
"                          3@4@5@6@7@R.S y (@y S 0.w y f N+N+h ).#+8@9@0@a@b@                        ",
"                            c@d@e@f@g@h@i@i@i@i@y g h i@i@i@i@j@k@l@R.m@n@                          ",
"                              o@p@q@r@s@t@L.u@v@w@).x@L.D+y@D+t@z@A@B@C@                            ",
"                                D@E@F@G@[.H@I@J@K@).x@u@k L@L@M@N@O@P@                              ",
"                                  Q@R@S@S@T@U@i+V@W@X@c+Y@Z@`@`@ #.#                                ",
"                                        ( +#8+C+@#j i@S+##$#                                        ",
"                                          %#B+Q.&#*#=#2+E+-#                                        ",
"                                        ( +#;#>#,#,#,#'#)#!#                                        ",
"                                          ~#{#]#^#^#^#^#/#(#                                        ",
"                                                                                                    ",
"                                                                                                    ",
"                                                                                                    ",
"                                                                                                    "};
