/* XPM */
static char * tile015_xpm[] = {
"50 50 318 2",
"  	c #D411AA",
". 	c #D40BAA",
"+ 	c #D511AB",
"@ 	c #D410AA",
"# 	c #AF7F9F",
"$ 	c #420734",
"% 	c #400031",
"& 	c #410232",
"* 	c #940976",
"= 	c #AF89A1",
"- 	c #575656",
"; 	c #D4D2D3",
"> 	c #D5D4D5",
", 	c #D6D4D5",
"' 	c #D5D4D4",
") 	c #CECDCE",
"! 	c #363737",
"~ 	c #900F73",
"{ 	c #D311A9",
"] 	c #B089A2",
"^ 	c #656364",
"/ 	c #F4F3F4",
"( 	c #C4C2C3",
"_ 	c #C0BEBF",
": 	c #C0BFC0",
"< 	c #E4E2E3",
"[ 	c #E2E0E1",
"} 	c #333333",
"| 	c #8C1C71",
"1 	c #D413AA",
"2 	c #AE88A1",
"3 	c #656465",
"4 	c #F2F1F2",
"5 	c #535253",
"6 	c #0F0D0E",
"7 	c #110D0E",
"8 	c #120E0F",
"9 	c #100C0D",
"0 	c #504D4E",
"a 	c #EBE8E9",
"b 	c #DAD7D8",
"c 	c #3E3E3E",
"d 	c #8F3B77",
"e 	c #545354",
"f 	c #100E0F",
"g 	c #110C0E",
"h 	c #120C0E",
"i 	c #110C0D",
"j 	c #110B0D",
"k 	c #120D0E",
"l 	c #5E5D5E",
"m 	c #ECE8EA",
"n 	c #D3D2D2",
"o 	c #975883",
"p 	c #D317AA",
"q 	c #AF8AA2",
"r 	c #656464",
"s 	c #F1F0F1",
"t 	c #6B6A6A",
"u 	c #4D4C4D",
"v 	c #191617",
"w 	c #000000",
"x 	c #140E10",
"y 	c #130D0F",
"z 	c #555454",
"A 	c #E9E8E9",
"B 	c #C8C7C8",
"C 	c #2B2B2B",
"D 	c #A37392",
"E 	c #D42AAB",
"F 	c #AF89A2",
"G 	c #676566",
"H 	c #F9F8F9",
"I 	c #F9F7F8",
"J 	c #FAF9FA",
"K 	c #3F3E3E",
"L 	c #1B1718",
"M 	c #EEEDEE",
"N 	c #F0F1F1",
"O 	c #F4F4F4",
"P 	c #F3F3F3",
"Q 	c #D4D4D4",
"R 	c #313031",
"S 	c #110E0F",
"T 	c #525151",
"U 	c #E9E7E8",
"V 	c #B7B5B6",
"W 	c #292F2B",
"X 	c #CA26A3",
"Y 	c #212021",
"Z 	c #5C5C5C",
"` 	c #5F5E5E",
" .	c #706F70",
"..	c #FDFCFD",
"+.	c #3F3E3F",
"@.	c #1F1A1B",
"#.	c #F5F4F5",
"$.	c #A9AAA9",
"%.	c #959595",
"&.	c #969696",
"*.	c #939393",
"=.	c #E0DFE0",
"-.	c #312F2F",
";.	c #120D0F",
">.	c #ACABAC",
",.	c #D9D8D9",
"'.	c #282E2A",
").	c #C921A2",
"!.	c #CB70AE",
"~.	c #B1679A",
"{.	c #B36A9C",
"].	c #8A5679",
"^.	c #4C4A4B",
"/.	c #FEFDFE",
"(.	c #1C1818",
"_.	c #696A6A",
":.	c #6C2F5A",
"<.	c #960C78",
"[.	c #713A60",
"}.	c #4F4F4F",
"|.	c #E5E3E4",
"1.	c #D6D5D6",
"2.	c #100B0C",
"3.	c #ADABAC",
"4.	c #DAD8D9",
"5.	c #282D2A",
"6.	c #A01A81",
"7.	c #4C4B4B",
"8.	c #FFFEFF",
"9.	c #403F3F",
"0.	c #F4F4F5",
"a.	c #994480",
"b.	c #CF26A7",
"c.	c #733761",
"d.	c #8B8A8B",
"e.	c #F5F3F4",
"f.	c #0E090A",
"g.	c #0F0B0C",
"h.	c #ACABAB",
"i.	c #DAD9DA",
"j.	c #A01981",
"k.	c #971E79",
"l.	c #878687",
"m.	c #4D4B4B",
"n.	c #9A4480",
"o.	c #898889",
"p.	c #120B0E",
"q.	c #4E4B4C",
"r.	c #FFFDFE",
"s.	c #888888",
"t.	c #F5F5F5",
"u.	c #120B0D",
"v.	c #1C1819",
"w.	c #696A69",
"x.	c #9A4481",
"y.	c #D213A9",
"z.	c #751F5F",
"A.	c #878787",
"B.	c #0F0A0B",
"C.	c #130C0F",
"D.	c #DBD9DA",
"E.	c #1D1819",
"F.	c #6A6B6B",
"G.	c #63485A",
"H.	c #875777",
"I.	c #875576",
"J.	c #895A79",
"K.	c #8A5A7A",
"L.	c #6D3F5E",
"M.	c #484848",
"N.	c #DFDEDF",
"O.	c #D8D8D8",
"P.	c #140D0F",
"Q.	c #0F0A0C",
"R.	c #B7B7B7",
"S.	c #A5A4A5",
"T.	c #A6A5A6",
"U.	c #A8A7A7",
"V.	c #A8A7A8",
"W.	c #A7A6A7",
"X.	c #E1E0E0",
"Y.	c #D9D9D9",
"Z.	c #140F10",
"`.	c #150D0F",
" +	c #100B0D",
".+	c #130B0E",
"++	c #1B1517",
"@+	c #DCD9DA",
"#+	c #E1E1E1",
"$+	c #CDCCCD",
"%+	c #3B3A3A",
"&+	c #140F11",
"*+	c #140B0E",
"=+	c #585757",
"-+	c #E8E6E7",
";+	c #BBBABB",
">+	c #212824",
",+	c #1A1818",
"'+	c #191718",
")+	c #1A1717",
"!+	c #151012",
"~+	c #130F10",
"{+	c #4F4D4E",
"]+	c #E3E2E3",
"^+	c #C6C5C6",
"/+	c #1D1C1C",
"(+	c #A3538B",
"_+	c #130B0D",
":+	c #100D0E",
"<+	c #140C0E",
"[+	c #474747",
"}+	c #E2E2E2",
"|+	c #2D2C2C",
"1+	c #A58499",
"2+	c #D431AC",
"3+	c #0F0C0D",
"4+	c #100C0E",
"5+	c #D7D8D8",
"6+	c #3A3A3A",
"7+	c #986C89",
"8+	c #1C1517",
"9+	c #AFADAE",
"0+	c #B3B2B2",
"a+	c #B5B4B5",
"b+	c #B5B5B5",
"c+	c #434343",
"d+	c #8A4C76",
"e+	c #D225AA",
"f+	c #1C1718",
"g+	c #F7F5F6",
"h+	c #D3D3D3",
"i+	c #CCCBCC",
"j+	c #CCCCCC",
"k+	c #CBCCCC",
"l+	c #CAC8C9",
"m+	c #585758",
"n+	c #822D6A",
"o+	c #D216A8",
"p+	c #6A6A6A",
"q+	c #161314",
"r+	c #171515",
"s+	c #181616",
"t+	c #141212",
"u+	c #161413",
"v+	c #801466",
"w+	c #994380",
"x+	c #9A4380",
"y+	c #4D4A4B",
"z+	c #A11B81",
"A+	c #B778A2",
"B+	c #711D5B",
"C+	c #711E5B",
"D+	c #572047",
"E+	c #4A4949",
"F+	c #F3F2F2",
"G+	c #6B6A6B",
"H+	c #532B46",
"I+	c #71205C",
"J+	c #7D416B",
"K+	c #D261B1",
"L+	c #B08AA2",
"M+	c #484747",
"N+	c #A8A8A8",
"O+	c #ADACAD",
"P+	c #1D1919",
"Q+	c #F4F1F2",
"R+	c #B8B6B7",
"S+	c #7D7C7D",
"T+	c #464646",
"U+	c #D26EB4",
"V+	c #666565",
"W+	c #D9D8D8",
"X+	c #363536",
"Y+	c #191516",
"Z+	c #D3D1D2",
"`+	c #D3D1D1",
" @	c #D5D3D4",
".@	c #454545",
"+@	c #D26DB3",
"@@	c #515050",
"#@	c #0C0A0B",
"$@	c #0E0C0D",
"%@	c #0D0B0C",
"&@	c #646363",
"*@	c #F2F0F1",
"=@	c #AEACAD",
"-@	c #C0BFBF",
";@	c #504F4F",
">@	c #030102",
",@	c #040203",
"'@	c #070203",
")@	c #060202",
"!@	c #050001",
"~@	c #070103",
"{@	c #050102",
"]@	c #464545",
"^@	c #D26EB3",
"/@	c #676666",
"(@	c #F8F7F8",
"_@	c #E6E4E5",
":@	c #E8E5E6",
"<@	c #E7E5E6",
"[@	c #EFEEEF",
"}@	c #3C3B3B",
"|@	c #908F8F",
"1@	c #939293",
"2@	c #939192",
"3@	c #918F90",
"4@	c #929192",
"5@	c #6E6E6E",
"6@	c #464546",
"7@	c #BB6EA2",
"8@	c #85156B",
"9@	c #85146B",
"0@	c #86166B",
"a@	c #86156B",
"b@	c #8E3976",
"c@	c #D35AB0",
"                                                                                                    ",
"                                                                                                    ",
"                                                                                                    ",
"                                                                                                    ",
"                                                                                                    ",
"                                                                                                    ",
"                      . + + + + + + + + + + + + + + + + + + + +                                     ",
"                    @ # $ % % % % % % % % % % % % % % % % % % & *                                   ",
"                    @ = - ; ; > , > ' ' ' ' ' ' ' ' ' ' ' ' ' ) ! ~ {                               ",
"                    @ ] ^ / ( _ : : : : : : : : : : : : : : : < [ } | 1                             ",
"                    @ 2 3 4 5 6 6 7 7 7 7 7 7 7 7 7 7 7 7 8 9 0 a b c d 1                           ",
"                    @ = ^ 4 e f 6 g h h h h h h h h h h i j k h l m n } o p                         ",
"                    @ q r s t u e v h h h w w w w w w w w w 8 x y z A B C D E                       ",
"                    @ F G H I I J K g h L M N O P P O O P Q R S 8 x T U V W X                       ",
"                    @ F Y Z `  ...+.i h @.#.$.%.&.%.%.%.*.=.' -.;.j 7 >.,.'.).                      ",
"                      !.~.{.].^./.+.7 j (.O _.:.<.<.<.<.[.}.|.1.2.y i 3.4.5.).                      ",
"                            6.7.8.9.g h L 0._.a.        b.c.d.e.f.h g.h.i.5.).                      ",
"                            j.^.8.9.g h L 0._.a.          k.l.e.f.h g.h.i.5.).                      ",
"                            6.m.8.9.g h L 0._.n.          k.o.e.f.p.g.h.i.5.).                      ",
"                            6.q.r.9.g h L 0._.n.          k.s.t.f.p.g.h.i.5.).                      ",
"                            6.q.r.9.g h L 0._.n.          k.s.t.f.u.g.h.i.5.).                      ",
"                            6.q.r.9.g h v./ w.x.@ @ @ @ y.z.A.t.B.C.2.h.D.5.).                      ",
"                            6.q.r.9.g h E./ F.G.H.I.J.K.L.M.N.O.g.P.Q.h.D.5.).                      ",
"                            6.q.r.9.g h L / R.S.T.U.U.V.W.X.Y.c Z.`. +3.D.5.).                      ",
"                            6.q.r.9.g .+++@+=.#+#+#+#+#+N.$+%+&+P.*+=+-+;+>+).                      ",
"                            6.q.r.9.g .+`.v ,+'+'+'+'+'+)+!+~+i 8 {+]+^+/+(+                        ",
"                            6.q.r.9.g .+_+i :+h h h h h .+<+k :+[+}+) |+1+2+                        ",
"                            6.q.r.9.g .+.+k 3+g g g g g g g 4+K }+5+6+7+2+                          ",
"                            6.q.r.9.g .+8+9+0+a+a+a+a+a+b+b+b+]+X.c+d+e+                            ",
"                            6.q.r.9.g .+f+g+h+i+j+i+i+i+k+k+j+l+m+n+o+                              ",
"                            6.q.r.9.g h L O p+q+r+s+t+t+t+t+t+u+v+{                                 ",
"                            6.q.r.9.g h f+O p+w+{ { { { { { { {                                     ",
"                            6.m.8.9.g h (.P w.x+                                                    ",
"                            6.y+8.9.g h L 0._.n.                                                    ",
"                      @     z+m.8.9.g h L 0._.n.      @                                             ",
"                    @ A+B+C+D+E+r.9.7 i @.F+G+H+I+C+J+K+                                            ",
"                    @ L+M+W.N+O+r.9.9 7 P+Q+R+V.W.S+T+U+                                            ",
"                    @ F V+g+1., W+X+9 7 Y+Z+`+ @-+_ .@+@                                            ",
"                    @ = 3 s @@#@$@7 7 7 g.2.g.%@>._ .@U+                                            ",
"                    @ 2 &@*@5 f $@7 7 7 8 7 4+6 =@-@.@U+                                            ",
"                    @ F 3 s ;@>@,@'@'@)@!@~@{@>@>.-@]@^@                                            ",
"                    @ = /@(@-+_@_@:@:@:@:@:@<@|.[@_ T+U+                                            ",
"                    @ = }@|@1@2@*.1@1@1@1@1@1@3@4@5@6@+@                                            ",
"                    @ 7@8@8@9@8@8@0@a@a@a@a@0@9@9@0@b@c@                                            ",
"                                                                                                    ",
"                                                                                                    ",
"                                                                                                    ",
"                                                                                                    ",
"                                                                                                    ",
"                                                                                                    "};
