/* XPM */
static char * tile39_xpm[] = {
"50 50 598 2",
"  	c None",
". 	c #D411AA",
"+ 	c #C472A1",
"@ 	c #AD968E",
"# 	c #9BAA82",
"$ 	c #8AB96E",
"% 	c #7CC16A",
"& 	c #6BC65A",
"* 	c #6AC855",
"= 	c #6BC659",
"- 	c #7AC769",
"; 	c #80BE6D",
"> 	c #94AD7F",
", 	c #AB9C8B",
"' 	c #BE7F9D",
") 	c #B88495",
"! 	c #8DB27A",
"~ 	c #5FD052",
"{ 	c #3DD438",
"] 	c #32D52E",
"^ 	c #2FD72C",
"/ 	c #2CD730",
"( 	c #2BD72C",
"_ 	c #2CD72D",
": 	c #28D82D",
"< 	c #2DD72E",
"[ 	c #2DD62A",
"} 	c #2BD729",
"| 	c #2ED62A",
"1 	c #31D82E",
"2 	c #39D636",
"3 	c #54CF49",
"4 	c #82BB73",
"5 	c #AC918C",
"6 	c #A1A382",
"7 	c #67CB57",
"8 	c #3AD53A",
"9 	c #29D62B",
"0 	c #2DD82C",
"a 	c #2ED62C",
"b 	c #2AD82C",
"c 	c #2CD62B",
"d 	c #2CD62C",
"e 	c #2BD72D",
"f 	c #2AD82A",
"g 	c #2BD82A",
"h 	c #2BD52D",
"i 	c #2BD62C",
"j 	c #2AD826",
"k 	c #29D929",
"l 	c #2BD630",
"m 	c #2DD82D",
"n 	c #2CD52B",
"o 	c #28D82B",
"p 	c #37D530",
"q 	c #54D049",
"r 	c #93AD7B",
"s 	c #A99C90",
"t 	c #60CD50",
"u 	c #36D534",
"v 	c #2CD72B",
"w 	c #2BD72B",
"x 	c #2AD62C",
"y 	c #29D927",
"z 	c #2DD52C",
"A 	c #29D92C",
"B 	c #2FD72F",
"C 	c #51D249",
"D 	c #99AA7C",
"E 	c #80C272",
"F 	c #3BD637",
"G 	c #2BD828",
"H 	c #2CD629",
"I 	c #2ED82B",
"J 	c #26D62B",
"K 	c #2ED730",
"L 	c #26D828",
"M 	c #2CD82B",
"N 	c #32D832",
"O 	c #6DCC5F",
"P 	c #B48A94",
"Q 	c #63CE58",
"R 	c #33D52E",
"S 	c #2CD828",
"T 	c #28D72A",
"U 	c #2BD730",
"V 	c #28D72E",
"W 	c #2ED72B",
"X 	c #2FD62A",
"Y 	c #2CD72C",
"Z 	c #2AD82D",
"` 	c #2DD72C",
" .	c #2ED42B",
"..	c #29D82D",
"+.	c #2CD82D",
"@.	c #4AD442",
"#.	c #A1A689",
"$.	c #B29295",
"%.	c #54CE4D",
"&.	c #31D62B",
"*.	c #2AD72F",
"=.	c #2AD92B",
"-.	c #2AD82B",
";.	c #2BD62D",
">.	c #32D731",
",.	c #60DD62",
"'.	c #63DC64",
").	c #3CD83D",
"!.	c #2ED728",
"~.	c #2AD92C",
"{.	c #2BD62E",
"].	c #43D43B",
"^.	c #9BAD85",
"/.	c #B98299",
"(.	c #55D14A",
"_.	c #2DD82E",
":.	c #2DD62B",
"<.	c #29D72D",
"[.	c #2BD82B",
"}.	c #2AD72A",
"|.	c #2BD72A",
"1.	c #2BD62B",
"2.	c #28D92A",
"3.	c #2ED52D",
"4.	c #2BD829",
"5.	c #29D72B",
"6.	c #31D830",
"7.	c #6FDB6F",
"8.	c #E3F5E0",
"9.	c #F2FBF4",
"0.	c #D3F3D3",
"a.	c #98E49B",
"b.	c #51DA52",
"c.	c #31D72E",
"d.	c #2CD628",
"e.	c #2AD72C",
"f.	c #43D23C",
"g.	c #A2A085",
"h.	c #C6609E",
"i.	c #6BC959",
"j.	c #2FD52D",
"k.	c #2DD62E",
"l.	c #29D627",
"m.	c #28DA28",
"n.	c #2BD628",
"o.	c #2CD72A",
"p.	c #29D82C",
"q.	c #2CD62A",
"r.	c #2CD929",
"s.	c #31D62F",
"t.	c #5DD85D",
"u.	c #D6F5DB",
"v.	c #F8FEF6",
"w.	c #FEFDFE",
"x.	c #FDFEF8",
"y.	c #FAFCFB",
"z.	c #E9F6E8",
"A.	c #B7EAB7",
"B.	c #47D848",
"C.	c #29D827",
"D.	c #29DA2A",
"E.	c #50D247",
"F.	c #BB8A9D",
"G.	c #8EB276",
"H.	c #38D636",
"I.	c #30D72F",
"J.	c #2BD929",
"K.	c #29D62C",
"L.	c #2DD42E",
"M.	c #29D92A",
"N.	c #2BD928",
"O.	c #2CD62F",
"P.	c #2AD72B",
"Q.	c #2ED62D",
"R.	c #2CD728",
"S.	c #29D62F",
"T.	c #51DB51",
"U.	c #CAF0C8",
"V.	c #FBFCF9",
"W.	c #FEFEFD",
"X.	c #FCFFFE",
"Y.	c #FBFFFB",
"Z.	c #F7FCF6",
"`.	c #AFEAB1",
" +	c #44D844",
".+	c #29D828",
"++	c #2FD52B",
"@+	c #2AD72D",
"#+	c #34D636",
"$+	c #6CC85E",
"%+	c #BE7C99",
"&+	c #4FD348",
"*+	c #2CD82C",
"=+	c #2DD62D",
"-+	c #2CD52E",
";+	c #2ED727",
">+	c #29DA28",
",+	c #29DA26",
"'+	c #2BD82E",
")+	c #48D947",
"!+	c #B7E9B7",
"~+	c #F7FAF9",
"{+	c #FBFEFB",
"]+	c #FEFCFE",
"^+	c #FDFEFF",
"/+	c #FEFFFD",
"(+	c #FAFDF7",
"_+	c #C8EDC7",
":+	c #50DB51",
"<+	c #2AD729",
"[+	c #2DD72A",
"}+	c #2AD62A",
"|+	c #41D638",
"1+	c #A8A486",
"2+	c #94B478",
"3+	c #3CD538",
"4+	c #2CD82A",
"5+	c #2FD527",
"6+	c #27D92B",
"7+	c #2BD82D",
"8+	c #30D82E",
"9+	c #29D82B",
"0+	c #2CD62D",
"a+	c #2DD72B",
"b+	c #2BD728",
"c+	c #2CD82E",
"d+	c #29D62D",
"e+	c #40D93F",
"f+	c #A4E5A1",
"g+	c #F3FBF4",
"h+	c #FDFFFC",
"i+	c #FEFEFE",
"j+	c #FDFEFD",
"k+	c #FBFCFC",
"l+	c #D3F3D4",
"m+	c #5CDA5B",
"n+	c #2BD82F",
"o+	c #30D631",
"p+	c #6DCB5D",
"q+	c #5FCF54",
"r+	c #2ED72E",
"s+	c #2BD631",
"t+	c #28D827",
"u+	c #2CD729",
"v+	c #30D729",
"w+	c #35D737",
"x+	c #5EDC5D",
"y+	c #A2E5A3",
"z+	c #B2E9B4",
"A+	c #51D950",
"B+	c #2DD72D",
"C+	c #28D629",
"D+	c #2AD831",
"E+	c #29D92B",
"F+	c #2DD52E",
"G+	c #28D928",
"H+	c #37D938",
"I+	c #8CE391",
"J+	c #F3F9F1",
"K+	c #FEFCFC",
"L+	c #FDFFFB",
"M+	c #FDFEFE",
"N+	c #FBFDFD",
"O+	c #E2F5E2",
"P+	c #6DDC6C",
"Q+	c #2DD729",
"R+	c #2AD829",
"S+	c #27DB29",
"T+	c #48CF3E",
"U+	c #BE839A",
"V+	c #4BD33E",
"W+	c #2BD92D",
"X+	c #45D744",
"Y+	c #89E087",
"Z+	c #C5F0CB",
"`+	c #F1F9EF",
" @	c #F9FBFA",
".@	c #F8FDF9",
"+@	c #BEECBE",
"@@	c #4AD84B",
"#@	c #31D72C",
"$@	c #2AD928",
"%@	c #2ED628",
"&@	c #28D929",
"*@	c #32D635",
"=@	c #7DDF79",
"-@	c #EAF7EC",
";@	c #F9FDFC",
">@	c #FEFEFF",
",@	c #FEFFFF",
"'@	c #FDFCFB",
")@	c #EBF7E9",
"!@	c #7CE27C",
"~@	c #32D835",
"{@	c #2FD62C",
"]@	c #27D82B",
"^@	c #2CD928",
"/@	c #42D23A",
"(@	c #9FA587",
"_@	c #AA9E8D",
":@	c #43D13E",
"<@	c #2CD829",
"[@	c #2AD52C",
"}@	c #2BD82C",
"|@	c #44D947",
"1@	c #B1EBAC",
"2@	c #F7FAF6",
"3@	c #FEFEFC",
"4@	c #FBFEFD",
"5@	c #F6F9F3",
"6@	c #B0E9AE",
"7@	c #44DA45",
"8@	c #2AD629",
"9@	c #6ADC6A",
"0@	c #E2F6E0",
"a@	c #FCFDFD",
"b@	c #FFFDFE",
"c@	c #FBFEF9",
"d@	c #F0FAF3",
"e@	c #8DE28D",
"f@	c #3BD838",
"g@	c #2ED72C",
"h@	c #29D729",
"i@	c #29D72C",
"j@	c #2BD72F",
"k@	c #3BD535",
"l@	c #8DB974",
"m@	c #A29C82",
"n@	c #40D236",
"o@	c #2DD630",
"p@	c #2FD82D",
"q@	c #63DD66",
"r@	c #DCF4E2",
"s@	c #FCFDF8",
"t@	c #FEFDFD",
"u@	c #FFFEFE",
"v@	c #FEFFFA",
"w@	c #99E298",
"x@	c #3CD93A",
"y@	c #29D72A",
"z@	c #5ADB59",
"A@	c #D4F2CF",
"B@	c #FBFCFB",
"C@	c #FCFEFD",
"D@	c #FCFDFC",
"E@	c #F7FAF5",
"F@	c #A2E69F",
"G@	c #40D940",
"H@	c #2CD62E",
"I@	c #2DD629",
"J@	c #2AD929",
"K@	c #2AD82E",
"L@	c #2AD727",
"M@	c #38D234",
"N@	c #7DB866",
"O@	c #9CA281",
"P@	c #40D238",
"Q@	c #2BD42D",
"R@	c #33D731",
"S@	c #77DD77",
"T@	c #E8F9E7",
"U@	c #FDFFFE",
"V@	c #FCFBFE",
"W@	c #EAF7EB",
"X@	c #82E081",
"Y@	c #38D734",
"Z@	c #30D52F",
"`@	c #4EDA4D",
" #	c #C0F0C5",
".#	c #F8FDF4",
"+#	c #FCFEFC",
"@#	c #F6FCF7",
"##	c #B6ECB8",
"$#	c #49D84A",
"%#	c #2DD62C",
"&#	c #29D928",
"*#	c #2DD728",
"=#	c #2BD72E",
"-#	c #35D42F",
";#	c #7CBA68",
">#	c #A99B90",
",#	c #45D13D",
"'#	c #29D82A",
")#	c #30D42F",
"!#	c #35DA36",
"~#	c #85E283",
"{#	c #EAFAEC",
"]#	c #FEFCFD",
"^#	c #FCFDFE",
"/#	c #FDFEFC",
"(#	c #F9FEFA",
"_#	c #E7F5E3",
":#	c #72DD72",
"<#	c #4AD949",
"[#	c #B1E8AD",
"}#	c #F7FBF8",
"|#	c #FFFEF8",
"1#	c #FEFFFE",
"2#	c #F7FCF8",
"3#	c #CAF0C7",
"4#	c #52D752",
"5#	c #29D728",
"6#	c #2BD52A",
"7#	c #2CD72F",
"8#	c #27D92C",
"9#	c #2ED72A",
"0#	c #3BD834",
"a#	c #8CB777",
"b#	c #BC85A0",
"c#	c #4ACE41",
"d#	c #2FD72D",
"e#	c #28D82A",
"f#	c #3FD73D",
"g#	c #9DE59A",
"h#	c #FBFDFE",
"i#	c #FEFEFA",
"j#	c #FFFEFD",
"k#	c #FAFEFA",
"l#	c #DFF6DD",
"m#	c #B1E8B2",
"n#	c #F5FCF3",
"o#	c #FCFDFB",
"p#	c #FAFDFD",
"q#	c #FEFCFF",
"r#	c #FBFEFF",
"s#	c #FAFEF8",
"t#	c #D8F2D8",
"u#	c #60DB60",
"v#	c #30D72C",
"w#	c #2AD628",
"x#	c #2ED629",
"y#	c #41D43B",
"z#	c #A1A885",
"A#	c #60CC54",
"B#	c #2ED72D",
"C#	c #46D945",
"D#	c #AFE9AD",
"E#	c #F6F9F8",
"F#	c #FBFEFC",
"G#	c #FEFFFB",
"H#	c #FAFEFC",
"I#	c #E5F4E3",
"J#	c #6EDD6C",
"K#	c #31D730",
"L#	c #29D92F",
"M#	c #2FD42C",
"N#	c #47D140",
"O#	c #B78593",
"P#	c #91B579",
"Q#	c #3BD636",
"R#	c #4CDB4B",
"S#	c #C3F0C0",
"T#	c #F8FCFA",
"U#	c #FFFDFF",
"V#	c #FFFCFE",
"W#	c #FFFDFC",
"X#	c #FBFDFF",
"Y#	c #EDF8ED",
"Z#	c #80E17F",
"`#	c #34D935",
" $	c #28D92B",
".$	c #2CD52C",
"+$	c #32D72E",
"@$	c #6CCA60",
"#$	c #C07F9E",
"$$	c #51D048",
"%$	c #2ED633",
"&$	c #59D959",
"*$	c #D6F0D2",
"=$	c #F9FDF9",
"-$	c #FEFFFC",
";$	c #EFFAF2",
">$	c #95E397",
",$	c #3BD839",
"'$	c #2BD62F",
")$	c #41D238",
"!$	c #A8A28B",
"~$	c #92B375",
"{$	c #3CD536",
"]$	c #2ED92C",
"^$	c #68DA6A",
"/$	c #DCF5DE",
"($	c #FCFDF9",
"_$	c #FDFCFD",
":$	c #FDFDFF",
"<$	c #F6FCF4",
"[$	c #A6E8A6",
"}$	c #42D943",
"|$	c #32D634",
"1$	c #71C65E",
"2$	c #C4629E",
"3$	c #68C958",
"4$	c #31D532",
"5$	c #2BD826",
"6$	c #32D833",
"7$	c #79E07A",
"8$	c #EBF5ED",
"9$	c #FBFFFD",
"0$	c #F8FBF7",
"a$	c #BBEBBD",
"b$	c #4BD84A",
"c$	c #2CD92A",
"d$	c #4ED044",
"e$	c #BB8999",
"f$	c #BA8395",
"g$	c #58CF4A",
"h$	c #30D52D",
"i$	c #29D62A",
"j$	c #2DD82F",
"k$	c #2CD725",
"l$	c #2ED52C",
"m$	c #39D63C",
"n$	c #8EE290",
"o$	c #EEF9ED",
"p$	c #F8FDF8",
"q$	c #FCFDFA",
"r$	c #F6FCF6",
"s$	c #C9EFC9",
"t$	c #54D952",
"u$	c #2DD92F",
"v$	c #28D729",
"w$	c #2DD528",
"x$	c #44D23F",
"y$	c #A4A483",
"z$	c #B09395",
"A$	c #55D24C",
"B$	c #2DD52F",
"C$	c #2BD52E",
"D$	c #28D828",
"E$	c #2AD827",
"F$	c #2ED529",
"G$	c #74DD76",
"H$	c #8AE18B",
"I$	c #8AE38A",
"J$	c #86E18A",
"K$	c #52D950",
"L$	c #2FD82C",
"M$	c #2AD52D",
"N$	c #27D82C",
"O$	c #44D33C",
"P$	c #9BAB84",
"Q$	c #B88591",
"R$	c #61CF56",
"S$	c #32D630",
"T$	c #2AD72E",
"U$	c #2AD92D",
"V$	c #28D725",
"W$	c #28D829",
"X$	c #4BD244",
"Y$	c #A2A185",
"Z$	c #C5769F",
"`$	c #85C06D",
" %	c #3CD636",
".%	c #34D633",
"+%	c #6BCB5E",
"@%	c #B78C9B",
"#%	c #A69C8E",
"$%	c #5ECC51",
"%%	c #36D531",
"&%	c #2ED62B",
"*%	c #2BD827",
"=%	c #29D82E",
"-%	c #27D828",
";%	c #29D829",
">%	c #2CD529",
",%	c #2DD82A",
"'%	c #51D146",
")%	c #97AB78",
"!%	c #A59F85",
"~%	c #65CB53",
"{%	c #3ED538",
"]%	c #27D829",
"^%	c #29D528",
"/%	c #2ED729",
"(%	c #33D631",
"_%	c #52D04A",
":%	c #91B27E",
"<%	c #B68696",
"[%	c #93B17A",
"}%	c #5ECD50",
"|%	c #3ED539",
"1%	c #30D630",
"2%	c #30D62F",
"3%	c #3CD337",
"4%	c #4FD448",
"5%	c #83BB6D",
"6%	c #AF9189",
"7%	c #AC948B",
"8%	c #9EA87F",
"9%	c #86B971",
"0%	c #7EC26A",
"a%	c #6CC75A",
"b%	c #6AC756",
"c%	c #6CC75B",
"d%	c #79C668",
"e%	c #84BC6B",
"f%	c #94AE7A",
"g%	c #AA9E8C",
". . . . . . . . . . . . . . . . . . . . . . . . . . . . . . . . . . . . . . . . . . . . . . . . . . ",
". . . . . . . . . . . . . . . . . . . . . . . . . . . . . . . . . . . . . . . . . . . . . . . . . . ",
". . . . . . . . . . . . . . . . . . . . . . . . . . . . . . . . . . . . . . . . . . . . . . . . . . ",
". . . . . . . . . . . . . . . . . . . . . . . . . . . . . . . . . . . . . . . . . . . . . . . . . . ",
". . . . . . . . . . . . . . . . . . . . . . . . . . . . . . . . . . . . . . . . . . . . . . . . . . ",
". . . . . . . . . . . . . . . . . . . . . . . . . . . . . . . . . . . . . . . . . . . . . . . . . . ",
". . . . . . . . . . . . . . . . . . . . . . . . . . . . . . . . . . . . . . . . . . . . . . . . . . ",
". . . . . . . . . . . . . . . . . . . . . . . . . . . . . . . . . . . . . . . . . . . . . . . . . . ",
". . . . . . . . . . . . . . . . . . . . . . . . . . . . . . . . . . . . . . . . . . . . . . . . . . ",
". . . . . . . . . . . . . . . . . . + @ # $ % & * = - ; > , ' . . . . . . . . . . . . . . . . . . . ",
". . . . . . . . . . . . . . . ) ! ~ { ] ^ / ( _ : < [ } | 1 2 3 4 5 . . . . . . . . . . . . . . . . ",
". . . . . . . . . . . . . 6 7 8 9 0 a b c d e f g h i j k l m n o p q r . . . . . . . . . . . . . . ",
". . . . . . . . . . . s t u v w w w w w w w w w w w w w w ( x y z A n B C D . . . . . . . . . . . . ",
". . . . . . . . . . E F G H w w w w w w w w w w w w w w w w I J K v L M } N O P . . . . . . . . . . ",
". . . . . . . . . Q R S T U ( w w w w w w w w w w w w w w w V W X Y Z `  ...+.@.#.. . . . . . . . . ",
". . . . . . . $.%.&.*.=.-.[ w w w w w w w w w w w w w w w w ;.>.,.'.)._ !.g ~.{.].^.. . . . . . . . ",
". . . . . . /.(._.:.Y <.[.}.w w w w w w w w |.|.1.2.<.3.4.5.6.7.8.9.0.a.b.c.Z d.e.f.g.. . . . . . . ",
". . . . . h.i.j.k.b l.m.n.o.w w w w w w w w p.q.|.{.q.r.1.s.t.u.v.w.x.y.z.A.B.< C.D.E.F.. . . . . . ",
". . . . . G.H.I.J.K.L.M.N.O.w w w w w w w w |.P.Q.R.p.S.w T.U.V.W.X.w.Y.Z.`. +.+++@+#+$+. . . . . . ",
". . . . %+&+*+=+}.e.|.-+;+p.w w w w w w w w d >+k.,+i '+)+!+~+{+]+^+/+(+_+:+e <+[+h }+|+1+. . . . . ",
". . . . 2+3+-.4+5+A {.( [+6+<+7+8+ .9+_ j 0+a+@+b+c+d+e+f+g+w.h+i+j+k+l+m+n+1.N.;.} c o+p+. . . . . ",
". . . . q+r+:.s+}.t+z u+v+w+x+y+z+A+B+g C+D+E+P.F+G+H+I+J+K+]+L+M+N+O+P+_.m Q+R+U =+1.S+T+. . . . . ",
". . . U+V+w T f w F+W+X+Y+Z+`+ @.@+@@@i #@$@%@&@r+*@=@-@;@>@,@i+'@)@!@~@w H {@5.]@^@u+q./@(@. . . . ",
". . . _@:@O.` <@[@}@|@1@2@L+3@4@j+5@6@7@@+8@;.` m 9@0@a@j+/+b@c@d@e@f@g@g ;.} +.h@[+i@j@k@l@. . . . ",
". . . m@n@Z =.} o@[.p@q@r@s@h+t@u@v@9.w@x@y@f r+z@A@B@C@W.3@D@E@F@G@H@I@<+e e J@K@c L@n+M@N@. . . . ",
". . . O@P@v e Q@g 9+8@R@S@T@j+W.U@X.V@W@X@Y@Z@`@ #.#u@j+W.+#@###$#g@%#&#*#i w } =#: } :.-#;#. . . . ",
". . . >#,#|.[.'#h@< o.)#!#~#{#]#^#'@/#(#_#:#<#[#}#W.|#1#+#2#3#4#_ g 5#6#7#9+}.<+c 8#}+9#0#a#. . . . ",
". . . b#c#2.x d#e#M d.7+'#f#g#g+h#i#j#M+k#l#m#n#o#p#q#r#s#t#u#v#=._ w#F+P.R.( 9+x#g i 5.y#z#. . . . ",
". . . . A#B#w w w w w w w Y C#D#E#>@W.W.U@M+F#t@3@G#M+H#I#J#K#w w w w w w w q.d#5#L#4.M#N#O#. . . . ",
". . . . P#Q#w w w w w w w w ( R#S#T#/#U#V#^+u@W#X#i+i#Y#Z#`#w w w w w w w w  $i@{@.$..+$@$. . . . . ",
". . . . #$$$Y w w w w w w w o.%$&$*$=$-$M+w.F#w.i+o#;$>$,$'$w w w w w w w w w e H >+v )$!$. . . . . ",
". . . . . ~${$w w w w w w w ;.M ]$^$/$($/#M+_$:$^#<$[$}$Y P.w w w w w w w w i@i@9#.$|$1$. . . . . . ",
". . . . . 2$3$4$_ e#5$@+e 4.f @+4.6$7$8${+K+b@9$0$a$b$c$i@} w w w w w w w w *+}._ I d$e$. . . . . . ",
". . . . . . f$g$h$k.5#i$j$:.n+k$l$~.m$n$o$p$q$r$s$t$u$H@v$w$w w w w w w w w S {@w x$y$. . . . . . . ",
". . . . . . . z$A$B$[.S C$D$<.f E$F$Q.H+G$H$I$J$K$L$}+` M$g w w w w w w w w f N$O$P$. . . . . . . . ",
". . . . . . . . Q$R$S$( ( G |.4.3.T$U$V$g@w G 0+M {.W$u+x Y w w w w w w w w a X$Y$. . . . . . . . . ",
". . . . . . . . . Z$`$ %_ e i W$e.< o.h@}@%#w w w w w w w w }.a+[@H@<@9+l .%+%@%. . . . . . . . . . ",
". . . . . . . . . . . #%$%%%&%C$}@*%i =%-%|.w w w w w w w w {.Z ;%>%=#,%'%)%. . . . . . . . . . . . ",
". . . . . . . . . . .   . !%~%{%]%^%g@/ {./%w w w w w w w w [+1.v (%_%:%. . . . . . . . . . . . . . ",
". . . . . . . . . . . . . . . <%[%}%|%1%m i w w w w w w Y 2%3%4%5%6%. . . . . . . . . . . . . . . . ",
". . . . . . . . . . . . . . . . . . . 7%8%9%0%a%b%c%d%e%f%g%. . . . . . . . . . . . . . . . . . . . ",
". . . . . . . . . . . . . . . . . . . . . . . . . . . . . . . . . . . . . . . . . . . . . . . . . . ",
". . . . . . . . . . . . . . . . . . . . . . . . . . . . . . . . . . . . . . . . . . . . . . . . . . ",
". . . . . . . . . . . . . . . . . . . . . . . . . . . . . . . . . . . . . . . . . . . . . . . . . . ",
". . . . . . . . . . . . . . . . . . . . . . . . . . . . . . . . . . . . . . . . . . . . . . . . . . ",
". . . . . . . . . . . . . . . . . . . . . . . . . . . . . . . . . . . . . . . . . . . . . . . . . . ",
". . . . . . . . . . . . . . . . . . . . . . . . . . . . . . . . . . . . . . . . . . . . . . . . . . ",
". . . . . . . . . . . . . . . . . . . . . . . . . . . . . . . . . . . . . . . . . . . . . . . . . . ",
". . . . . . . . . . . . . . . . . . . . . . . . . . . . . . . . . . . . . . . . . . . . . . . . . . ",
". . . . . . . . . . . . . . . . . . . . . . . . . . . . . . . . . . . . . . . . . . . . . . . . . . "};
