/* XPM */
static char * tile008_xpm[] = {
"50 50 184 2",
"  	c #D411AA",
". 	c #D40CAA",
"+ 	c #915F81",
"@ 	c #6E0B57",
"# 	c #6E0D58",
"$ 	c #6E0C58",
"% 	c #6E0C57",
"& 	c #6F1058",
"* 	c #C258A3",
"= 	c #D40AAA",
"- 	c #787175",
"; 	c #6D6C6D",
"> 	c #C1C0C0",
", 	c #BFBEBE",
"' 	c #C0BFC0",
") 	c #C0C0C0",
"! 	c #BDBDBD",
"~ 	c #AFAEAE",
"{ 	c #130F10",
"] 	c #BD66A2",
"^ 	c #797276",
"/ 	c #8D8C8D",
"( 	c #EFEDEE",
"_ 	c #D2D0D1",
": 	c #D4D3D4",
"< 	c #D3D3D4",
"[ 	c #D9D9D9",
"} 	c #E4E2E3",
"| 	c #0D0709",
"1 	c #BE68A3",
"2 	c #8E8D8E",
"3 	c #D7D5D5",
"4 	c #140F11",
"5 	c #110D0E",
"6 	c #100C0D",
"7 	c #0F0D0D",
"8 	c #787878",
"9 	c #E5E3E4",
"0 	c #8E8C8D",
"a 	c #D7D5D6",
"b 	c #141011",
"c 	c #110B0D",
"d 	c #120D0E",
"e 	c #110C0E",
"f 	c #120C0E",
"g 	c #130E0F",
"h 	c #110F0F",
"i 	c #7A7A7A",
"j 	c #0E080A",
"k 	c #787075",
"l 	c #D8D4D6",
"m 	c #343132",
"n 	c #333031",
"o 	c #363334",
"p 	c #221E1F",
"q 	c #322F30",
"r 	c #323031",
"s 	c #7D7D7D",
"t 	c #E4E3E4",
"u 	c #777075",
"v 	c #8D8D8D",
"w 	c #FAF9FA",
"x 	c #EBE9EA",
"y 	c #EEEDEE",
"z 	c #7D7C7D",
"A 	c #130D0F",
"B 	c #090405",
"C 	c #D6D5D6",
"D 	c #EDEBEC",
"E 	c #F1EFF0",
"F 	c #E3E1E2",
"G 	c #0C0A0B",
"H 	c #777074",
"I 	c #4D4C4D",
"J 	c #8E8D8D",
"K 	c #8F8E8F",
"L 	c #908E8F",
"M 	c #858485",
"N 	c #E1E0E1",
"O 	c #BFBDBE",
"P 	c #908F90",
"Q 	c #8F8E8E",
"R 	c #828081",
"S 	c #161415",
"T 	c #D40BAA",
"U 	c #B17B9E",
"V 	c #A1648D",
"W 	c #9F618B",
"X 	c #8B597A",
"Y 	c #2E2D2E",
"Z 	c #848384",
"` 	c #A4A2A3",
" .	c #523448",
"..	c #A2658E",
"+.	c #A1638D",
"@.	c #9F608A",
"#.	c #CA62AB",
"$.	c #B41E91",
"%.	c #2F2D2E",
"&.	c #080304",
"*.	c #E4E2E2",
"=.	c #A4A3A4",
"-.	c #6B1456",
";.	c #B41F91",
">.	c #D40DAA",
",.	c #A35A8C",
"'.	c #8D2072",
").	c #8D2172",
"!.	c #782361",
"~.	c #ECECEC",
"{.	c #848484",
"].	c #E2E0E1",
"^.	c #A3A1A2",
"/.	c #47183A",
"(.	c #8E2172",
"_.	c #8D1F72",
":.	c #8D1E71",
"<.	c #C754A6",
"[.	c #766F73",
"}.	c #4C4C4C",
"|.	c #878686",
"1.	c #878687",
"2.	c #8C8C8C",
"3.	c #F1F0F0",
"4.	c #E1DFE0",
"5.	c #878787",
"6.	c #7A7879",
"7.	c #151112",
"8.	c #8D8B8C",
"9.	c #F6F4F5",
"0.	c #EAE8E9",
"a.	c #EAE9EA",
"b.	c #7B7A7B",
"c.	c #D4D3D3",
"d.	c #E9E8E8",
"e.	c #ECEBEC",
"f.	c #BD67A2",
"g.	c #D6D3D4",
"h.	c #070203",
"i.	c #060102",
"j.	c #0F0A0B",
"k.	c #040001",
"l.	c #000000",
"m.	c #757374",
"n.	c #0D0708",
"o.	c #8E8B8D",
"p.	c #D7D4D5",
"q.	c #140F10",
"r.	c #110C0D",
"s.	c #0F0D0E",
"t.	c #0F0E0F",
"u.	c #7C7A7B",
"v.	c #E5E4E5",
"w.	c #8E8B8C",
"x.	c #D6D2D4",
"y.	c #0F090B",
"z.	c #0F090A",
"A.	c #0E090A",
"B.	c #0C0809",
"C.	c #0B0809",
"D.	c #0B090A",
"E.	c #777576",
"F.	c #E6E4E5",
"G.	c #787176",
"H.	c #F1EEEF",
"I.	c #D1CFD0",
"J.	c #DAD7D8",
"K.	c #0C0607",
"L.	c #636162",
"M.	c #AFADAD",
"N.	c #AFADAE",
"O.	c #B0AFB0",
"P.	c #AEACAD",
"Q.	c #9F9D9D",
"R.	c #151313",
"S.	c #8D647F",
"T.	c #651551",
"U.	c #651451",
"V.	c #651651",
"W.	c #661752",
"X.	c #C15CA3",
"Y.	c #D40FAA",
"Z.	c #D410AA",
"`.	c #FFFFFF",
"                                                                                                    ",
"                                                                                                    ",
"                                                                                                    ",
"                                                                                                    ",
"                                                                                                    ",
"                                                                                                    ",
"                                      . + @ # # # $ $ $ $ $ $ $ % % $ & *                           ",
"                                      = - ; > , ' > > > > > > > ) ! ~ { ]                           ",
"                                      = ^ / ( _ : : : : : : : : < [ } | 1                           ",
"                                      = - 2 3 4 5 6 6 6 5 5 5 5 7 8 9 | 1                           ",
"                                      = - 0 a b c d e e f f d g h i 9 j 1                           ",
"                                      = k 0 l m n o p f f c n q r s t | 1                           ",
"                                      = u v w x y ( z f A B C D ( E F G 1                           ",
"                                      = H I J K L E M f A B N O P Q R S ]                           ",
"                                      T U V W X Y D Z f A B } `  ...+.@.#.                          ",
"                                              $.%.y M f A &.*.=.-.                                  ",
"                                              $.%.y M f A &.*.=.-.                                  ",
"                                              $.%.y M f A &.*.=.-.                                  ",
"                                              $.%.y M f A &.*.=.-.                                  ",
"                                              $.%.y M f A &.*.=.-.                                  ",
"                                              $.%.y M f A &.*.=.-.                                  ",
"                                              $.%.y M f A &.*.=.-.                                  ",
"                                              $.%.y M f A &.*.=.-.                                  ",
"                                              $.%.y M f A &.*.=.-.                                  ",
"                                              $.%.y M f A &.*.=.-.                                  ",
"                                              $.%.y M f A &.*.=.-.                                  ",
"                                              $.%.y M f A &.*.=.-.                                  ",
"                                              $.%.y M f A &.*.=.-.                                  ",
"                                              $.%.y M f A &.*.=.-.                                  ",
"                                              $.%.y M f A &.*.=.-.                                  ",
"                                              $.%.y M f A &.*.=.-.                                  ",
"                                              $.%.y M f A &.*.=.-.                                  ",
"                                              ;.%.y M f A &.*.=.-.                                  ",
"                                              ;.%.y M f A &.*.=.-.                                  ",
"                                      >.,.'.).!.Y ~.{.f A B ].^./.(._.:.<.                          ",
"                                      = [.}.|.1.2.3.{.f A B 4.O 5.1.6.7.]                           ",
"                                      = - 8.9.0.x a.b.f A B c.x d.e.].j f.                          ",
"                                      = - 0 g.h.i.h.5 f f 5 j.k.l.m.9 n.1                           ",
"                                      = - o.p.q.r.d d f f 5 6 s.t.u.v.| 1                           ",
"                                      = - w.x.d y.z.j z.z.A.B.C.D.E.F.| 1                           ",
"                                      = G.0 H.I._ _ _ _ _ _ _ _ _ J.F K.]                           ",
"                                      = H L.M.N.O.O.O.O.O.O.O.O.O.P.Q.R.f.                          ",
"                                      . S.T.T.T.T.T.T.T.T.T.T.T.T.U.V.W.X.                          ",
"                                        Y.                              Z.                          ",
"                                                                                                    ",
"                                                                                                    ",
"                                                                                                    ",
"                                                                                                    ",
"                                                                                                    ",
"                                                                                                    "};
