/* XPM */
static char * tile030_xpm[] = {
"50 50 406 2",
"  	c #D411AA",
". 	c #C01F9B",
"+ 	c #75115D",
"@ 	c #740A5C",
"# 	c #750D5D",
"$ 	c #740C5D",
"% 	c #740C5C",
"& 	c #740D5C",
"* 	c #740E5D",
"= 	c #75105D",
"- 	c #A61B85",
"; 	c #B82495",
"> 	c #3A3939",
", 	c #B7B5B6",
"' 	c #BCBBBB",
") 	c #BCBBBC",
"! 	c #BDBCBC",
"~ 	c #BDBCBD",
"{ 	c #BEBDBD",
"] 	c #6D6D6D",
"^ 	c #911F75",
"/ 	c #484747",
"( 	c #EFEDEE",
"_ 	c #DCDBDB",
": 	c #D6D4D5",
"< 	c #D8D7D8",
"[ 	c #D5D4D5",
"} 	c #D7D5D6",
"| 	c #F7F6F7",
"1 	c #8C8C8C",
"2 	c #B82395",
"3 	c #494848",
"4 	c #F0EEEF",
"5 	c #7C7A7B",
"6 	c #0E0C0D",
"7 	c #100C0D",
"8 	c #100C0E",
"9 	c #000000",
"0 	c #F4F2F3",
"a 	c #8D8C8D",
"b 	c #7C7B7B",
"c 	c #0F0D0E",
"d 	c #120D0E",
"e 	c #110C0E",
"f 	c #110C0D",
"g 	c #100B0C",
"h 	c #201C1E",
"i 	c #2F2D2E",
"j 	c #2E2B2C",
"k 	c #2E2C2C",
"l 	c #2D2B2C",
"m 	c #2A2728",
"n 	c #100A0C",
"o 	c #110B0D",
"p 	c #7D7B7B",
"q 	c #120C0E",
"r 	c #0F0B0C",
"s 	c #878586",
"t 	c #EDEBEC",
"u 	c #EAE9EA",
"v 	c #EBEBEB",
"w 	c #ECEBEB",
"x 	c #EBEAEB",
"y 	c #E9E8E8",
"z 	c #C0BEBF",
"A 	c #F4F3F3",
"B 	c #8D8D8D",
"C 	c #141011",
"D 	c #908E8F",
"E 	c #EFEEEE",
"F 	c #949494",
"G 	c #929292",
"H 	c #959495",
"I 	c #969595",
"J 	c #939293",
"K 	c #959494",
"L 	c #CECECE",
"M 	c #CAC9CA",
"N 	c #110D0E",
"O 	c #908F8F",
"P 	c #131213",
"Q 	c #9A7E8F",
"R 	c #9C6389",
"S 	c #9D638A",
"T 	c #9E6A8D",
"U 	c #4F4F4F",
"V 	c #B6B6B6",
"W 	c #F5F4F4",
"X 	c #8F8E8E",
"Y 	c #ECEAEB",
"Z 	c #CF8EB9",
"` 	c #D33FAD",
" .	c #6F706F",
"..	c #B7B6B6",
"+.	c #E0DEDF",
"@.	c #A19FA0",
"#.	c #A29EA0",
"$.	c #9E9C9D",
"%.	c #F4F4F4",
"&.	c #8B8B8B",
"*.	c #A8A8A8",
"=.	c #E9E7E8",
"-.	c #E9E6E7",
";.	c #EAE8EA",
">.	c #EAE8E9",
",.	c #E7E6E7",
"'.	c #838383",
").	c #912175",
"!.	c #8F8E8F",
"~.	c #131313",
"{.	c #D08FBA",
"].	c #D33CAC",
"^.	c #777676",
"/.	c #3B3B3B",
"(.	c #3C3C3B",
"_.	c #3E3E3E",
":.	c #3B3C3B",
"<.	c #3D3E3E",
"[.	c #97397C",
"}.	c #0E0D0E",
"|.	c #8F8F8F",
"1.	c #EAEAEA",
"2.	c #121212",
"3.	c #B189A3",
"4.	c #B45A99",
"5.	c #B55E9A",
"6.	c #B0789C",
"7.	c #AB7498",
"8.	c #AE799C",
"9.	c #B27A9F",
"0.	c #CE57AC",
"a.	c #D05AAE",
"b.	c #CF57AC",
"c.	c #CE56AC",
"d.	c #D144AB",
"e.	c #100D0E",
"f.	c #262526",
"g.	c #222122",
"h.	c #232222",
"i.	c #212221",
"j.	c #212121",
"k.	c #222121",
"l.	c #1C1C1B",
"m.	c #A36990",
"n.	c #D419AA",
"o.	c #939091",
"p.	c #FEFCFD",
"q.	c #FFFEFF",
"r.	c #FFFFFF",
"s.	c #FEFDFE",
"t.	c #C5C4C4",
"u.	c #1B1A1B",
"v.	c #B1709C",
"w.	c #130F10",
"x.	c #363334",
"y.	c #585556",
"z.	c #575455",
"A.	c #585657",
"B.	c #6D6C6D",
"C.	c #E8E7E8",
"D.	c #C7C5C6",
"E.	c #0C080A",
"F.	c #AB0F89",
"G.	c #130B0E",
"H.	c #100E0F",
"I.	c #666566",
"J.	c #ECEBEC",
"K.	c #C7C6C7",
"L.	c #1C1519",
"M.	c #A81887",
"N.	c #D410AA",
"O.	c #EFEEEF",
"P.	c #7F7D7E",
"Q.	c #120F10",
"R.	c #120D0F",
"S.	c #747272",
"T.	c #F3F2F3",
"U.	c #C3C5C5",
"V.	c #282427",
"W.	c #A83389",
"X.	c #494849",
"Y.	c #C3C2C3",
"Z.	c #B6B5B6",
"`.	c #B7B7B7",
" +	c #B5B3B4",
".+	c #A3A1A2",
"++	c #211F20",
"@+	c #7E7D7E",
"#+	c #F3F5F4",
"$+	c #BEBEBE",
"%+	c #232323",
"&+	c #B35898",
"*+	c #434242",
"=+	c #D0CECF",
"-+	c #D7D6D7",
";+	c #D6D5D6",
">+	c #D4D3D4",
",+	c #EDECED",
"'+	c #1F1E1E",
")+	c #130D0F",
"!+	c #110F10",
"~+	c #7B7B7B",
"{+	c #686868",
"]+	c #9A6187",
"^+	c #160E13",
"/+	c #070003",
"(+	c #080004",
"_+	c #080003",
":+	c #0A0006",
"<+	c #0A0005",
"[+	c #060004",
"}+	c #5F5E5E",
"|+	c #E7E7E7",
"1+	c #201D1E",
"2+	c #363536",
"3+	c #EFEFEF",
"4+	c #6C6C6C",
"5+	c #9A6288",
"6+	c #D350AF",
"7+	c #C358A4",
"8+	c #C256A3",
"9+	c #C257A3",
"0+	c #D063B0",
"a+	c #CD56AB",
"b+	c #65505E",
"c+	c #7A7B7B",
"d+	c #EBECEB",
"e+	c #413F40",
"f+	c #373536",
"g+	c #BE61A2",
"h+	c #222021",
"i+	c #080607",
"j+	c #010101",
"k+	c #171717",
"l+	c #AE839F",
"m+	c #D40FAA",
"n+	c #9E7590",
"o+	c #6C6D6D",
"p+	c #EDEEED",
"q+	c #3E3C3D",
"r+	c #6C6B6C",
"s+	c #9B6288",
"t+	c #C167A5",
"u+	c #0E090A",
"v+	c #DDDBDC",
"w+	c #F5F5F5",
"x+	c #F6F7F7",
"y+	c #F5F7F6",
"z+	c #F4F3F4",
"A+	c #F1EFF0",
"B+	c #6A6969",
"C+	c #B187A2",
"D+	c #9D718D",
"E+	c #6D6E6D",
"F+	c #EEEEEE",
"G+	c #3F3D3E",
"H+	c #9B6188",
"I+	c #0A0505",
"J+	c #E6E5E6",
"K+	c #A5A4A5",
"L+	c #808080",
"M+	c #808180",
"N+	c #C166A5",
"O+	c #070304",
"P+	c #E6E4E5",
"Q+	c #565455",
"R+	c #686768",
"S+	c #B085A1",
"T+	c #9D718E",
"U+	c #6D6E6E",
"V+	c #EDEDED",
"W+	c #C066A5",
"X+	c #030101",
"Y+	c #E7E5E6",
"Z+	c #585758",
"`+	c #F1F0F1",
" @	c #676566",
".@	c #B288A3",
"+@	c #9C6F8C",
"@@	c #140C0F",
"#@	c #130A0D",
"$@	c #5B5A5A",
"%@	c #F2F0F1",
"&@	c #644559",
"*@	c #CC46A8",
"=@	c #D427AB",
"-@	c #8B6F80",
";@	c #6B6B6B",
">@	c #403E3F",
",@	c #090505",
"'@	c #171113",
")@	c #C4C2C3",
"!@	c #ECE9EA",
"~@	c #6A6768",
"{@	c #484446",
"]@	c #635E61",
"^@	c #625E61",
"/@	c #5F5A5D",
"(@	c #2E2E2E",
"_@	c #CCCBCC",
":@	c #E0DFDF",
"<@	c #312F2F",
"[@	c #130E0F",
"}@	c #373636",
"|@	c #EEEDEE",
"1@	c #9A6087",
"2@	c #C063A3",
"3@	c #080304",
"4@	c #E7E4E5",
"5@	c #8D8B8C",
"6@	c #120F0F",
"7@	c #120E0F",
"8@	c #211C1E",
"9@	c #EBE8E9",
"0@	c #C1C0C0",
"a@	c #C1BFC0",
"b@	c #C3C2C2",
"c@	c #C2C2C2",
"d@	c #C1C1C1",
"e@	c #E5E4E5",
"f@	c #4A4748",
"g@	c #4A4949",
"h@	c #C563A7",
"i@	c #2B2B2B",
"j@	c #B0AFB0",
"k@	c #F3F1F2",
"l@	c #737273",
"m@	c #121011",
"n@	c #1F1C1D",
"o@	c #B0AEAE",
"p@	c #C8C6C7",
"q@	c #C9C8C9",
"r@	c #C5C4C5",
"s@	c #504F50",
"t@	c #393738",
"u@	c #DDDCDD",
"v@	c #383838",
"w@	c #A46990",
"x@	c #A94D8E",
"y@	c #282527",
"z@	c #787878",
"A@	c #0E0A0B",
"B@	c #0C0507",
"C@	c #0C0607",
"D@	c #0C0809",
"E@	c #0B0608",
"F@	c #0A0607",
"G@	c #333132",
"H@	c #DFDCDD",
"I@	c #4D4C4D",
"J@	c #835173",
"K@	c #D22EAA",
"L@	c #A53487",
"M@	c #282727",
"N@	c #C8C8C8",
"O@	c #F2F2F2",
"P@	c #696969",
"Q@	c #0F0C0D",
"R@	c #130C0E",
"S@	c #323030",
"T@	c #D8D5D6",
"U@	c #5A5959",
"V@	c #7A3466",
"W@	c #D020A8",
"X@	c #A51A84",
"Y@	c #0B110E",
"Z@	c #CCCCCC",
"`@	c #5D5C5D",
" #	c #10090B",
".#	c #10080B",
"+#	c #0F080A",
"@#	c #0F090B",
"##	c #0F0A0C",
"$#	c #292727",
"%#	c #CDCACB",
"&#	c #5F5E5F",
"*#	c #76145E",
"=#	c #D111A7",
"-#	c #A80F86",
";#	c #0D110F",
">#	c #CCC9CA",
",#	c #CDCBCC",
"'#	c #CFCDCE",
")#	c #CECDCD",
"!#	c #D8D8D8",
"~#	c #E9E8E9",
"{#	c #5B5A5B",
"]#	c #790B60",
"^#	c #D211A9",
"/#	c #AB0C89",
"(#	c #302A2D",
"_#	c #ABA9AA",
":#	c #B3B2B3",
"<#	c #B4B3B4",
"[#	c #B1B1B1",
"}#	c #595959",
"|#	c #7E0964",
"1#	c #D311A9",
"2#	c #AF0E8C",
"3#	c #5D154B",
"4#	c #5E164C",
"5#	c #5E154B",
"6#	c #5E164B",
"7#	c #5E174C",
"8#	c #870D6C",
"9#	c #D511AA",
"                                                                                                    ",
"                                                                                                    ",
"                                                                                                    ",
"                                                                                                    ",
"                                                                                                    ",
"                                                                                                    ",
"                                                                                                    ",
"                                                                                                    ",
"                        . + @ # $ % & & & & & & & & & & & & & % * = % -                             ",
"                        ; > , ' ) ! ! ! ! ! ! ! ! ! ! ! ! ! ! ) ~ { ] ^                             ",
"                        ; / ( _ : < < < < < < < < < < < < < < [ } | 1 ^                             ",
"                        2 3 4 5 6 7 8 7 7 7 7 7 7 7 7 7 7 7 7 7 9 0 a ^                             ",
"                        2 3 4 b c d e e f f f f f f f f e e d e 9 0 a ^                             ",
"                        2 3 4 b c g h i j k j j j j j j l m n o 9 0 a ^                             ",
"                        2 3 4 p q r s t u v w t t x x x y z f o 9 A B ^                             ",
"                        2 3 4 p q C D E F G H H H I J K L M n q 9 A B ^                             ",
"                        2 3 4 p q N O x P Q R S S S T U V M q q 9 W B ^                             ",
"                        2 3 4 p q N X Y P Z         `  ...+.@.#.$.%.&.^                             ",
"                        2 3 4 p q N X Y P Z         `  .*.=.-.;.>.,.'.).                            ",
"                        2 3 4 p q c !.x ~.{.        ].^././.(./._.:.<.[.                            ",
"                        2 3 4 p e }.|.1.2.3.4.4.4.4.5.6.7.8.9.0.a.b.c.d.                            ",
"                        2 3 4 p e e.D Y f.g.h.i.i.j.j.j.j.k.l.m.n.                                  ",
"                        2 3 4 p q r o.p.q.q.q.r.r.r.r.q.s.s.t.u.v.                                  ",
"                        2 3 4 p q w.x.y.z.z.z.z.z.z.z.z.A.B.C.D.E.F.                                ",
"                        2 3 4 p q o q o q q q G.G.G.G.G.N H.I.J.K.L.M.N.                            ",
"                        ; 3 O.P.Q.N N N N N N N N N N R.r N o S.T.U.V.W.N.                          ",
"                        ; X.( Y.Z.`.`.`.`.`.`.`.`... +.+++7 o f @+#+$+%+&+                          ",
"                        2 *+=+: } -+-+-+-+-+-+-+-+;+>+,+$+'+e )+!+~+%.{+]+                          ",
"                        2 ^+/+(+_+(+(+(+:+<+(+(+(+(+[+}+|+{ 1+q N 2+3+4+5+                          ",
"                      6+7+7+8+8+8+9+9+8+0+          a+b+c+d+e+q q f+3+4+5+                          ",
"                      g+h+i+9 9 9 9 j+k+l+          m+n+o+p+q+o q f+O.r+s+                          ",
"                      t+u+v+w+x+y+z+A+B+C+          m+D+E+F+G+q q f+4 r+H+                          ",
"                      t+I+J+K+L+M+!.A+I.C+          m+D+E+F+G+q q f+4 r+H+                          ",
"                      N+O+P+P.Q.e.Q+4 R+S+          m+T+U+V+G+q q f+4 r+H+                          ",
"                      W+X+Y+P.R.f Z+`+ @.@          N.+@U+v G+q q f+4 r+H+                          ",
"                      W+X+Y+P.@@#@$@%@P.&@*@m+m+m+m+=@-@;@v >@q q f+4 r+H+                          ",
"                      t+,@Y+P.d q '@)@!@~@{@]@^@^@]@/@(@_@:@<@[@d }@|@;@1@                          ",
"                      2@3@4@5@6@7@@@8@z 9@0@a@b@b@c@d@;+e@f@7@7@N g@F+4+1@                          ",
"                      h@i@j@k@l@m@q q n@o@p@D.q@q@K.p@r@s@N C 7@t@u@_ v@w@                          ",
"                      m+x@y@a@z+z@w.7@7@A@B@C@D@D@E@F@D@N N N G@H@4@I@J@K@                          ",
"                        m+L@M@N@O@P@Q@7@d R@q e e N d d 7 7@S@T@Y U@V@W@                            ",
"                            X@Y@Z@w `@A@ #.#.#+#+#@# # ###$#%#9@&#*#=#                              ",
"                              -#;#>#=.,#'#'#'#'#'#'#'#'#)#!#~#{#]#^#                                ",
"                                /#(#_#:#<#<#<#<#<#<#<#<#:#[#}#|#1#                                  ",
"                                  2#3#4#5#5#5#5#5#5#5#5#6#7#8#1#                                    ",
"                                    9#9#9#9#9#9#9#9#9#9#9#9#                                        ",
"                                                                                                    ",
"                                                                                                    ",
"                                                                                                    ",
"                                                                                                    "};
