/* XPM */
static char * tile018_xpm[] = {
"50 50 468 2",
"  	c #D411AA",
". 	c #D511AB",
"+ 	c #D511AA",
"@ 	c #D410AA",
"# 	c #B32D91",
"$ 	c #441838",
"% 	c #400031",
"& 	c #400032",
"* 	c #792763",
"= 	c #D018A7",
"- 	c #B44295",
"; 	c #2D2429",
"> 	c #A3A2A3",
", 	c #D5D4D4",
"' 	c #D4D3D4",
") 	c #CDCDCD",
"! 	c #535353",
"~ 	c #763964",
"{ 	c #D01DA8",
"] 	c #D412AA",
"^ 	c #B54E97",
"/ 	c #302E30",
"( 	c #A6A4A5",
"_ 	c #F6F4F5",
": 	c #BFBEBF",
"< 	c #C0BFC0",
"[ 	c #C0BEBF",
"} 	c #E0DFE0",
"| 	c #E3E1E2",
"1 	c #4E4D4D",
"2 	c #79496A",
"3 	c #D129A9",
"4 	c #BD69A3",
"5 	c #414241",
"6 	c #999999",
"7 	c #F2F1F1",
"8 	c #8A898A",
"9 	c #100C0D",
"0 	c #110D0E",
"a 	c #100D0E",
"b 	c #323132",
"c 	c #D9D8D9",
"d 	c #DAD8D9",
"e 	c #403F40",
"f 	c #88647B",
"g 	c #D23CAB",
"h 	c #D408AA",
"i 	c #C47FAD",
"j 	c #464847",
"k 	c #909090",
"l 	c #F0F0F0",
"m 	c #8A8889",
"n 	c #120D0F",
"o 	c #110C0D",
"p 	c #110C0E",
"q 	c #120C0E",
"r 	c #110E0F",
"s 	c #302E2E",
"t 	c #D6D4D5",
"u 	c #3B3939",
"v 	c #927588",
"w 	c #D655B2",
"x 	c #C653A5",
"y 	c #4F4C4E",
"z 	c #888787",
"A 	c #EEEDEE",
"B 	c #949494",
"C 	c #130F10",
"D 	c #0E080A",
"E 	c #000000",
"F 	c #0F0C0D",
"G 	c #3D3A3B",
"H 	c #DEDBDC",
"I 	c #CFCCCD",
"J 	c #343333",
"K 	c #995E85",
"L 	c #D40DAA",
"M 	c #675761",
"N 	c #706F70",
"O 	c #F0EEEF",
"P 	c #9C9A9A",
"Q 	c #171214",
"R 	c #090708",
"S 	c #9D9C9D",
"T 	c #F1F1F1",
"U 	c #F4F3F4",
"V 	c #F5F3F4",
"W 	c #F0EFF0",
"X 	c #DAD9DA",
"Y 	c #484848",
"Z 	c #0F0E0E",
"` 	c #464344",
" .	c #DBDADB",
"..	c #C5C5C5",
"+.	c #131414",
"@.	c #B44B96",
"#.	c #61585E",
"$.	c #959495",
"%.	c #D4D2D3",
"&.	c #0F0A0C",
"*.	c #130D0F",
"=.	c #9B999A",
"-.	c #F5F4F5",
";.	c #AEAEAE",
">.	c #969595",
",.	c #969596",
"'.	c #959394",
").	c #E3E2E2",
"!.	c #E0DEDF",
"~.	c #474747",
"{.	c #131010",
"].	c #110B0D",
"^.	c #727272",
"/.	c #E4E4E4",
"(.	c #1E1E1E",
"_.	c #B34E96",
":.	c #63595F",
"<.	c #989697",
"[.	c #D3D1D2",
"}.	c #0C0708",
"|.	c #120D0E",
"1.	c #737172",
"2.	c #989797",
"3.	c #3F3D3E",
"4.	c #984B80",
"5.	c #960C78",
"6.	c #960B78",
"7.	c #7D486C",
"8.	c #444343",
"9.	c #E1E0E1",
"0.	c #DFDEDE",
"a.	c #403E3E",
"b.	c #100B0D",
"c.	c #6D6D6D",
"d.	c #E6E6E6",
"e.	c #1D1D1D",
"f.	c #B35096",
"g.	c #62595F",
"h.	c #0B0708",
"i.	c #828080",
"j.	c #ECEAEB",
"k.	c #292829",
"l.	c #C493B3",
"m.	c #D406AA",
"n.	c #8E5B7D",
"o.	c #5C5C5C",
"p.	c #F3F2F2",
"q.	c #676667",
"r.	c #6E6D6D",
"s.	c #E7E7E7",
"t.	c #1B1B1B",
"u.	c #848283",
"v.	c #EDEBEC",
"w.	c #272526",
"x.	c #CD92B9",
"y.	c #B686A5",
"z.	c #505050",
"A.	c #F2F1F2",
"B.	c #858383",
"C.	c #B585A4",
"D.	c #4E4D4E",
"E.	c #F1F0F0",
"F.	c #686767",
"G.	c #E7E6E7",
"H.	c #1F1F1F",
"I.	c #B45197",
"J.	c #848181",
"K.	c #EEEBEC",
"L.	c #CC90B8",
"M.	c #B484A3",
"N.	c #525051",
"O.	c #F2F0F1",
"P.	c #C5C4C5",
"Q.	c #BEBDBD",
"R.	c #C5C3C4",
"S.	c #E3E2E3",
"T.	c #1C1C1C",
"U.	c #B45297",
"V.	c #838081",
"W.	c #EEECED",
"X.	c #383637",
"Y.	c #986788",
"Z.	c #C60D9F",
"`.	c #C6109E",
" +	c #C6119F",
".+	c #A97C99",
"++	c #4A4949",
"@+	c #D1CFD0",
"#+	c #D1D0D1",
"$+	c #C3C1C2",
"%+	c #171717",
"&+	c #979697",
"*+	c #0B0608",
"=+	c #474445",
"-+	c #DEDCDD",
";+	c #CECDCE",
">+	c #373737",
",+	c #171E1A",
"'+	c #181E1A",
")+	c #201E1F",
"!+	c #1D1B1C",
"~+	c #0D0B0C",
"{+	c #0A0809",
"]+	c #410032",
"^+	c #420634",
"/+	c #B54A97",
"(+	c #D40CAA",
"_+	c #E4E2E3",
":+	c #383636",
"<+	c #4F4D4E",
"[+	c #E9E8E9",
"}+	c #E9E7E8",
"|+	c #E8E6E7",
"1+	c #E7E5E6",
"2+	c #C1BFC0",
"3+	c #262626",
"4+	c #A12C83",
"5+	c #D512AB",
"6+	c #D40FAA",
"7+	c #D40EAA",
"8+	c #875F79",
"9+	c #494848",
"0+	c #DCDADB",
"a+	c #363334",
"b+	c #929191",
"c+	c #939293",
"d+	c #949394",
"e+	c #939292",
"f+	c #E6E5E6",
"g+	c #1C201E",
"h+	c #9E3681",
"i+	c #D02CA8",
"j+	c #7D4D6D",
"k+	c #413F40",
"l+	c #363435",
"m+	c #140C0F",
"n+	c #140A0D",
"o+	c #646263",
"p+	c #E9E9E9",
"q+	c #C0C1C1",
"r+	c #262727",
"s+	c #9D4383",
"t+	c #D11EA8",
"u+	c #7A4168",
"v+	c #434243",
"w+	c #DDDBDC",
"x+	c #CECCCD",
"y+	c #333030",
"z+	c #120E0F",
"A+	c #130E0F",
"B+	c #140A0E",
"C+	c #6D6E6E",
"D+	c #EEEFEF",
"E+	c #BFBFBF",
"F+	c #272727",
"G+	c #A25A8B",
"H+	c #D21BA8",
"I+	c #7C3E69",
"J+	c #4C4B4C",
"K+	c #E2DFE0",
"L+	c #C7C5C6",
"M+	c #4B494A",
"N+	c #4C4A4B",
"O+	c #4D4C4C",
"P+	c #4C4B4B",
"Q+	c #4D4B4B",
"R+	c #4D4B4C",
"S+	c #1C1819",
"T+	c #130C0E",
"U+	c #0F0D0E",
"V+	c #686868",
"W+	c #EDEDED",
"X+	c #BCBCBC",
"Y+	c #282828",
"Z+	c #AB6996",
"`+	c #D45EB2",
" @	c #7F727A",
".@	c #504F4F",
"+@	c #F7F6F7",
"@@	c #F8F6F7",
"#@	c #232122",
"$@	c #666666",
"%@	c #EFEFEF",
"&@	c #828282",
"*@	c #814E70",
"=@	c #D253AF",
"-@	c #B65E9B",
";@	c #B7609C",
">@	c #B9649E",
",@	c #B75F9C",
"'@	c #B986A7",
")@	c #575656",
"!@	c #4B4B4B",
"~@	c #787778",
"{@	c #797878",
"]@	c #777677",
"^@	c #EAEAEA",
"/@	c #1F1C1D",
"(@	c #120B0D",
"_@	c #1E1C1D",
":@	c #848484",
"<@	c #814E71",
"[@	c #C254A2",
"}@	c #1B1A1A",
"|@	c #232323",
"1@	c #222222",
"2@	c #0E0D0D",
"3@	c #877781",
"4@	c #AF6E99",
"5@	c #AF6E9A",
"6@	c #AE6E99",
"7@	c #AF6F9A",
"8@	c #693E5B",
"9@	c #6B6B6B",
"0@	c #F1F2F1",
"a@	c #E5E5E5",
"b@	c #858585",
"c@	c #824F71",
"d@	c #C255A2",
"e@	c #2F2D2E",
"f@	c #E2E0E1",
"g@	c #FDFDFD",
"h@	c #FFFFFF",
"i@	c #FEFDFD",
"j@	c #F9F8F9",
"k@	c #A5869A",
"l@	c #D40AAA",
"m@	c #424242",
"n@	c #868686",
"o@	c #2D2C2C",
"p@	c #A5A3A4",
"q@	c #5C5A5B",
"r@	c #5C5B5C",
"s@	c #666566",
"t@	c #EFEDEE",
"u@	c #414141",
"v@	c #676666",
"w@	c #C256A3",
"x@	c #2C2C2C",
"y@	c #E1DFE0",
"z@	c #949393",
"A@	c #3B3A3B",
"B@	c #EBEAEB",
"C@	c #434242",
"D@	c #666565",
"E@	c #2C2B2B",
"F@	c #140B0E",
"G@	c #3B393A",
"H@	c #4B4A4A",
"I@	c #A48599",
"J@	c #D409AA",
"K@	c #B687A6",
"L@	c #130A0D",
"M@	c #150A0E",
"N@	c #3C3A3A",
"O@	c #ECEBEC",
"P@	c #878686",
"Q@	c #5A5156",
"R@	c #CC6DAE",
"S@	c #D02DA8",
"T@	c #D02EA8",
"U@	c #D02FA9",
"V@	c #9D648A",
"W@	c #494949",
"X@	c #EDEEED",
"Y@	c #C255A3",
"Z@	c #949293",
"`@	c #120A0D",
" #	c #181617",
".#	c #AAA9AA",
"+#	c #333534",
"@#	c #484A49",
"##	c #474A49",
"$#	c #474B49",
"%#	c #464B48",
"&#	c #4A4D4B",
"*#	c #212322",
"=#	c #D0D0D0",
"-#	c #E3E3E3",
";#	c #454344",
">#	c #878787",
",#	c #824E71",
"'#	c #2E2D2E",
")#	c #A6A4A4",
"!#	c #0E0E0E",
"~#	c #A6A6A6",
"{#	c #F1F0F1",
"]#	c #D6D5D6",
"^#	c #D8D8D8",
"/#	c #D9D8D8",
"(#	c #D8D7D8",
"_#	c #E5E4E4",
":#	c #E8E7E8",
"<#	c #5A5A5A",
"[#	c #3D3C3C",
"}#	c #888888",
"|#	c #C848A5",
"1#	c #3A3638",
"2#	c #898788",
"3#	c #0C0A0B",
"4#	c #AFAEAF",
"5#	c #B1B0B1",
"6#	c #B2B1B2",
"7#	c #B1AFB0",
"8#	c #646364",
"9#	c #353233",
"0#	c #DBDBDB",
"a#	c #3A3A3A",
"b#	c #924D7D",
"c#	c #BD4E9D",
"d#	c #3C383B",
"e#	c #9A999A",
"f#	c #EDECED",
"g#	c #807F7F",
"h#	c #2D2C2D",
"i#	c #833F6E",
"j#	c #D217A9",
"k#	c #D417AA",
"l#	c #C191B1",
"m#	c #393C3A",
"n#	c #9F9F9F",
"o#	c #767475",
"p#	c #100B0C",
"q#	c #242323",
"r#	c #CACACA",
"s#	c #DEDDDE",
"t#	c #494747",
"u#	c #83717C",
"v#	c #D557B1",
"w#	c #D41CAA",
"x#	c #B67AA2",
"y#	c #303131",
"z#	c #A9A7A8",
"A#	c #F2EFF0",
"B#	c #747273",
"C#	c #080103",
"D#	c #060002",
"E#	c #070002",
"F#	c #060001",
"G#	c #070001",
"H#	c #222020",
"I#	c #C9C9C9",
"J#	c #E2E3E3",
"K#	c #525252",
"L#	c #796471",
"M#	c #D14DAC",
"N#	c #AD6496",
"O#	c #2A292A",
"P#	c #B6B4B5",
"Q#	c #F0EFEF",
"R#	c #E5E4E5",
"S#	c #E8E5E6",
"T#	c #616161",
"U#	c #6C4E62",
"V#	c #CE41A9",
"W#	c #A6498B",
"X#	c #908F90",
"Y#	c #929292",
"Z#	c #5D5D5D",
"`#	c #663A58",
" $	c #CC30A5",
".$	c #A9388B",
"+$	c #85156B",
"@$	c #86156B",
"#$	c #86166B",
"$$	c #86176B",
"%$	c #8A2870",
"&$	c #CB23A3",
"                                                                                                    ",
"                                                                                                    ",
"                                                                                                    ",
"                                                                                                    ",
"                                                                                                    ",
"                                                                                                    ",
"                                            . . . . . . . . . . . . +                               ",
"                                        @ # $ % % % % % % % % % % & * =                             ",
"                                      @ - ; > , , , , , , , , , ' ) ! ~ {                           ",
"                                    ] ^ / ( _ : : < < < < < < < [ } | 1 2 3                         ",
"                                    4 5 6 7 8 9 0 0 0 0 0 0 0 0 a b c d e f g                       ",
"                                h i j k l m n o p q q q q q q q 0 r s d t u v w                     ",
"                                x y z A B C p p D E E E E E E E 0 F 0 G H I J K ]                   ",
"                              L M N O P Q 9 r R S l T U V V W X Y Z 0 q `  ...+.@.                  ",
"                              L #.$.%.&.*.n a =.-.;.B >.>.,.'.).!.~.{.].0 ^./.(._.                  ",
"                              L :.<.[.}.q |.1.U 2.3.4.5.5.6.7.8.9.0.a.q b.c.d.e.f.                  ",
"                              L g.<.%.h.q 9 i.j.k.l.m.      L n.o.p.q.q 9 r.s.t.f.                  ",
"                              L g.<.%.h.q p u.v.w.x.          y.z.A.q.].9 r.s.t.f.                  ",
"                              L g.<.%.h.q ].B.v.w.x.          C.D.E.F.a a r.G.H.I.                  ",
"                              L g.<.%.h.q ].J.K.w.L.          M.N.O.P.Q.< R.S.T.U.                  ",
"                              L g.<.%.h.q ].V.W.X.Y.Z.`.`.`. +.+++@+%.#+[.[.$+%+U.                  ",
"                              L :.&+@+*+q ].=+-+;+>+,+'+'+'+'+T.)+!+~+{+% ]+]+^+/+                  ",
"                              (+:.,._+:+q q p <+!.[+d.}+}+}+}+}+|+1+2+3+4+5+. . 6+                  ",
"                              7+8+9+!.0+a+].|.0 9+b+c+B $.$.$.$.d+e+f+< g+h+                        ",
"                                i+j+k+0+, l+*.q q q q |.n *.q q m+n+o+p+q+r+s+6+                    ",
"                                  t+u+v+w+x+y+n n n n z+A+A+0 |.].B+A+C+D+E+F+G+]                   ",
"                                    H+I+J+K+L+<+M+N+O+P+Q+R+O+<+S+T+|.U+V+W+X+Y+Z+@                 ",
"                                      `+ @.@S.U -.V V +@@@+@_ U $+#@9 n F $@%@&@*@6+                ",
"                              =@-@;@>@,@'@)@!@~@{@~@]@{@{@{@]@&@^@E+/@(@*._@/.:@<@6+                ",
"                              [@}@(.|@|@1@3+F+2@3@4@5@6@4@5@7@8@9@0@F.T+]._@a@b@c@6+                ",
"                              d@e@f@g@h@h@i@j@O+k@l@          M.m@T $@*.o _@d.n@<@6+                ",
"                              d@o@9.p@q@r@s@t@N+k@l@          C.u@T v@*.o _@d.n@<@6+                ",
"                              w@x@y@z@b.|.A@B@R+k@l@          C.C@l D@*.o _@d.n@<@6+                ",
"                              w@E@f@z@(@F@G@v.H@I@J@          K@m@D+v@*.o _@d.n@<@6+                ",
"                              w@E@f@z@L@M@N@O@P@Q@R@S@S@T@T@U@V@W@X@q.q o _@d.n@<@6+                ",
"                              Y@o@} Z@].`@ #.#A.:@+#@###$#%#&#*#=#-#;#`@p _@a@>#,#6+                ",
"                              w@'#y@)#z+n U+!#~#{#]#]#^#/#(#]#_#:#<#a q n [#p+}#c@6+                ",
"                              |#1#$.7 2#A+a U+3#,.4#5#6#6#6#7#7#8#U+0 A+9#' 0#a#b#@                 ",
"                                c#d#e#f#g#9 0 9 z+z+z+C C C z+z+n z+U+h#x+0+C@i#j#                  ",
"                                k#l#m#n#t@o#p#n |.n n |.|.|.n n |.|.q#r#s#t#u#v#                    ",
"                                  w#x#y#z#A#B#C#D#E#E#F#F#G#E#E#G#H#I#J#K#L#M#                      ",
"                                      N#O#P#Q#R#1+1+1+S#S#S#S#S#1+d.p+T#U#V#                        ",
"                                      L W#k.z X#c+c+c+c+c+c+c+c+Y#k Z#`# $                          ",
"                                        @ .$+$+$+$@$@$@$@$@$@$@$#$$$%$&$                            ",
"                                                                                                    ",
"                                                                                                    ",
"                                                                                                    ",
"                                                                                                    ",
"                                                                                                    ",
"                                                                                                    "};
