/* XPM */
static char * tile013_xpm[] = {
"50 50 507 2",
"  	c #D411AA",
". 	c #D35CB1",
"+ 	c #D197BD",
"@ 	c #D298BE",
"# 	c #D18CBA",
"$ 	c #D41FAB",
"% 	c #D412AA",
"& 	c #D187B9",
"* 	c #D297BD",
"= 	c #D097BC",
"- 	c #D344AD",
"; 	c #B989A9",
"> 	c #000000",
", 	c #333233",
"' 	c #302E2F",
") 	c #323131",
"! 	c #313131",
"~ 	c #313031",
"{ 	c #2F2F2F",
"] 	c #2C312E",
"^ 	c #CB69AD",
"/ 	c #D526AC",
"( 	c #6D315B",
"_ 	c #212121",
": 	c #303030",
"< 	c #313030",
"[ 	c #C685B0",
"} 	c #BB8CAB",
"| 	c #232223",
"1 	c #E7E6E7",
"2 	c #F1F0F1",
"3 	c #F2F1F2",
"4 	c #F3F2F3",
"5 	c #EEEDEE",
"6 	c #656565",
"7 	c #916E85",
"8 	c #D40DAA",
"9 	c #D63DAE",
"0 	c #73596A",
"a 	c #ACACAC",
"b 	c #EFEFEF",
"c 	c #F3F2F2",
"d 	c #F3F3F3",
"e 	c #F1F0F0",
"f 	c #D6D5D5",
"g 	c #060505",
"h 	c #C787B2",
"i 	c #BC8DAB",
"j 	c #232222",
"k 	c #ECECEC",
"l 	c #999798",
"m 	c #838383",
"n 	c #828081",
"o 	c #818081",
"p 	c #827F80",
"q 	c #838081",
"r 	c #D3D2D2",
"s 	c #CBCBCB",
"t 	c #342D31",
"u 	c #CB4AA7",
"v 	c #D536AD",
"w 	c #704E64",
"x 	c #B3B3B3",
"y 	c #DFDFDF",
"z 	c #807E7F",
"A 	c #818080",
"B 	c #828181",
"C 	c #A09FA0",
"D 	c #DEDEDE",
"E 	c #030203",
"F 	c #C788B2",
"G 	c #EEEEEE",
"H 	c #666565",
"I 	c #110E0F",
"J 	c #100C0D",
"K 	c #120D0E",
"L 	c #120E0F",
"M 	c #787677",
"N 	c #595959",
"O 	c #A26E90",
"P 	c #D40FAA",
"Q 	c #D528AC",
"R 	c #6F385E",
"S 	c #B2B2B2",
"T 	c #D7D7D7",
"U 	c #0B0607",
"V 	c #0F0C0C",
"W 	c #110D0E",
"X 	c #7C7A7B",
"Y 	c #E0DFDF",
"Z 	c #040203",
"` 	c #666465",
" .	c #100A0C",
"..	c #110B0D",
"+.	c #110B0E",
"@.	c #120B0E",
"#.	c #100B0D",
"$.	c #0D090A",
"%.	c #D5D4D5",
"&.	c #C4C2C3",
"*.	c #352E32",
"=.	c #D059AE",
"-.	c #6F355D",
";.	c #D7D6D7",
">.	c #0B0406",
",.	c #0F090B",
"'.	c #120C0E",
").	c #7B797A",
"!.	c #050303",
"~.	c #C888B2",
"{.	c #BB8BAA",
"].	c #222121",
"^.	c #EDECED",
"/.	c #ADACAC",
"(.	c #999899",
"_.	c #9F9E9F",
":.	c #494848",
"<.	c #110C0D",
"[.	c #110C0E",
"}.	c #0F0B0C",
"|.	c #130D0F",
"1.	c #F2F1F1",
"2.	c #4F5150",
"3.	c #A1638D",
"4.	c #D539AE",
"5.	c #725267",
"6.	c #E3E2E2",
"7.	c #989898",
"8.	c #999898",
"9.	c #858384",
"0.	c #0F0A0C",
"a.	c #5F5D5E",
"b.	c #9F9D9E",
"c.	c #9A9999",
"d.	c #B8B6B7",
"e.	c #DEDDDD",
"f.	c #040303",
"g.	c #C787B1",
"h.	c #212021",
"i.	c #D2D1D1",
"j.	c #E0DFE0",
"k.	c #E1E1E1",
"l.	c #F9F9F9",
"m.	c #727272",
"n.	c #100D0E",
"o.	c #130E0F",
"p.	c #1C191A",
"q.	c #E0E0E0",
"r.	c #B3B5B4",
"s.	c #483441",
"t.	c #D12AA9",
"u.	c #D530AD",
"v.	c #704461",
"w.	c #9E9D9D",
"x.	c #ECEBEC",
"y.	c #C6C5C6",
"z.	c #100B0C",
"A.	c #141011",
"B.	c #8E8D8E",
"C.	c #F6F5F6",
"D.	c #C3C2C3",
"E.	c #050405",
"F.	c #C584B0",
"G.	c #B986A8",
"H.	c #2C2A2B",
"I.	c #242324",
"J.	c #292A2A",
"K.	c #F8F8F8",
"L.	c #717070",
"M.	c #0A0607",
"N.	c #7E7D7D",
"O.	c #0C080A",
"P.	c #8C8B8B",
"Q.	c #F2F3F3",
"R.	c #3B3A3B",
"S.	c #AB6895",
"T.	c #D537AE",
"U.	c #795A6E",
"V.	c #2D2C2D",
"W.	c #080808",
"X.	c #C6C5C5",
"Y.	c #8E8D8D",
"Z.	c #E6E5E6",
"`.	c #1F1D1E",
" +	c #292829",
".+	c #2D2C2C",
"++	c #2A2A2A",
"@+	c #C581AE",
"#+	c #D345AD",
"$+	c #D37AB7",
"%+	c #D47CB8",
"&+	c #B97FA5",
"*+	c #2E2F2E",
"=+	c #717071",
"-+	c #C0C0C0",
";+	c #131111",
">+	c #292828",
",+	c #E2E1E1",
"'+	c #B6B5B6",
")+	c #594652",
"!+	c #D135AA",
"~+	c #D36AB3",
"{+	c #D997C3",
"]+	c #5C585B",
"^+	c #B3B2B3",
"/+	c #C7C6C7",
"(+	c #110B0C",
"_+	c #120F10",
":+	c #908E8F",
"<+	c #2C2D2C",
"[+	c #C67DAE",
"}+	c #D47BB8",
"|+	c #D37CB7",
"1+	c #D427AB",
"2+	c #B7559A",
"3+	c #2E2E2E",
"4+	c #FAFAFA",
"5+	c #140E10",
"6+	c #D9DAD9",
"7+	c #919191",
"8+	c #9E9C9D",
"9+	c #EDECEC",
"0+	c #232323",
"a+	c #B5649C",
"b+	c #D85FB5",
"c+	c #5D5058",
"d+	c #C8C7C7",
"e+	c #E8E7E7",
"f+	c #2D2F2E",
"g+	c #C3319E",
"h+	c #B7549A",
"i+	c #2E2E2D",
"j+	c #140D10",
"k+	c #DADADA",
"l+	c #DBDBDB",
"m+	c #0E0A0C",
"n+	c #272526",
"o+	c #ECEBEB",
"p+	c #A8A6A7",
"q+	c #593B4F",
"r+	c #D338AC",
"s+	c #D861B6",
"t+	c #5D5259",
"u+	c #120E10",
"v+	c #2D2E2E",
"w+	c #B7569A",
"x+	c #DCDCDC",
"y+	c #F9F8F8",
"z+	c #868586",
"A+	c #AFAEAE",
"B+	c #E8E6E7",
"C+	c #B65198",
"D+	c #D85CB4",
"E+	c #5C4F58",
"F+	c #130E10",
"G+	c #C3329E",
"H+	c #171515",
"I+	c #393737",
"J+	c #F1EFF0",
"K+	c #989798",
"L+	c #71606B",
"M+	c #D534AD",
"N+	c #5D5158",
"O+	c #918E8F",
"P+	c #9A999A",
"Q+	c #737171",
"R+	c #AEADAE",
"S+	c #E4E2E3",
"T+	c #191919",
"U+	c #BE75A6",
"V+	c #949494",
"W+	c #C5C4C4",
"X+	c #0C0708",
"Y+	c #4F4E4F",
"Z+	c #F0EFF0",
"`+	c #8B8A8B",
" @	c #743F63",
".@	c #D75FB5",
"+@	c #939393",
"@@	c #696868",
"#@	c #656364",
"$@	c #0A0708",
"%@	c #C0BFBF",
"&@	c #000100",
"*@	c #C47DAC",
"=@	c #5E595C",
"-@	c #080707",
";@	c #CDCCCC",
">@	c #CBCACA",
",@	c #080304",
"'@	c #504F4F",
")@	c #818181",
"!@	c #939292",
"~@	c #646464",
"{@	c #C6C6C6",
"]@	c #100F0F",
"^@	c #747273",
"/@	c #5B5A5A",
"(@	c #0E0C0D",
"_@	c #0C0608",
":@	c #C8C7C8",
"<@	c #D0D0D0",
"[@	c #343434",
"}@	c #454343",
"|@	c #0F0C0D",
"1@	c #6A6869",
"2@	c #DBD9DA",
"3@	c #BFBEBE",
"4@	c #0D0A0B",
"5@	c #5E5C5D",
"6@	c #F5F4F5",
"7@	c #6C6D6D",
"8@	c #0F0D0E",
"9@	c #B2B3B3",
"0@	c #C5C5C5",
"a@	c #120B0D",
"b@	c #DDDCDD",
"c@	c #7E506F",
"d@	c #7F7E7F",
"e@	c #F7F6F6",
"f@	c #515051",
"g@	c #130F10",
"h@	c #C7C7C7",
"i@	c #CCCDCD",
"j@	c #100E0F",
"k@	c #DDDDDD",
"l@	c #939293",
"m@	c #878787",
"n@	c #BD6AA3",
"o@	c #272727",
"p@	c #BDBCBC",
"q@	c #6F6F6F",
"r@	c #F2F2F2",
"s@	c #5F5D5D",
"t@	c #888888",
"u@	c #D650B1",
"v@	c #7B6A74",
"w@	c #363435",
"x@	c #090808",
"y@	c #D5D5D5",
"z@	c #C1C0C0",
"A@	c #D430AC",
"B@	c #B94B9A",
"C@	c #191C1A",
"D@	c #E7E7E7",
"E@	c #B4B3B4",
"F@	c #EEECEC",
"G@	c #BCBBBB",
"H@	c #D224A9",
"I@	c #68435C",
"J@	c #9E9E9E",
"K@	c #EDEDED",
"L@	c #3C3B3B",
"M@	c #0D0607",
"N@	c #F5F5F5",
"O@	c #B14593",
"P@	c #1B1C1C",
"Q@	c #A4A3A4",
"R@	c #888787",
"S@	c #2D2F2D",
"T@	c #D436AC",
"U@	c #686065",
"V@	c #A5A4A4",
"W@	c #EAE9E9",
"X@	c #2A2828",
"Y@	c #201F1F",
"Z@	c #100D0D",
"`@	c #140F10",
" #	c #AB5291",
".#	c #414040",
"+#	c #120D0F",
"@#	c #959595",
"##	c #C4C4C4",
"$#	c #CE60AE",
"%#	c #B24494",
"&#	c #B34795",
"*#	c #9D5D88",
"=#	c #FAF9FA",
"-#	c #6E5465",
";#	c #B44C96",
">#	c #B34694",
",#	c #C249A0",
"'#	c #D23DAB",
")#	c #4D4249",
"!#	c #B1B0B0",
"~#	c #E6E4E5",
"{#	c #262525",
"]#	c #AFAEAF",
"^#	c #B988A8",
"/#	c #0B090A",
"(#	c #0C0A0B",
"_#	c #060405",
":#	c #2E2C2D",
"<#	c #F7F6F7",
"[#	c #727071",
"}#	c #DCDADB",
"|#	c #919091",
"1#	c #090607",
"2#	c #0A0909",
"3#	c #959193",
"4#	c #D40AAA",
"5#	c #A9478D",
"6#	c #414141",
"7#	c #EFEDEE",
"8#	c #929091",
"9#	c #0E0A0B",
"0#	c #625F60",
"a#	c #120F0F",
"b#	c #BA8AA9",
"c#	c #EFEEEF",
"d#	c #FAF9F9",
"e#	c #767474",
"f#	c #DDDBDC",
"g#	c #EFEEEE",
"h#	c #A7A6A7",
"i#	c #9B9699",
"j#	c #CF4AAB",
"k#	c #43363E",
"l#	c #C0BFC0",
"m#	c #D8D7D8",
"n#	c #1C1B1B",
"o#	c #BC8CAB",
"p#	c #222021",
"q#	c #7F7E7E",
"r#	c #585757",
"s#	c #575556",
"t#	c #2B2929",
"u#	c #0E080A",
"v#	c #504F50",
"w#	c #545354",
"x#	c #A6A5A5",
"y#	c #D409AA",
"z#	c #A67294",
"A#	c #474646",
"B#	c #F4F3F3",
"C#	c #7B7A7A",
"D#	c #676666",
"E#	c #110F10",
"F#	c #010000",
"G#	c #E6E5E5",
"H#	c #A8A7A8",
"I#	c #9A9698",
"J#	c #CE3DA8",
"K#	c #433F41",
"L#	c #C1C0C1",
"M#	c #D5D4D4",
"N#	c #1B1819",
"O#	c #686667",
"P#	c #121011",
"Q#	c #E5E4E5",
"R#	c #9A9598",
"S#	c #D41AAB",
"T#	c #996E8A",
"U#	c #5E5D5E",
"V#	c #F6F5F5",
"W#	c #737172",
"X#	c #131010",
"Y#	c #908E8E",
"Z#	c #232122",
"`#	c #ACAAAB",
" $	c #9D9C9D",
".$	c #9D9B9C",
"+$	c #9B9599",
"@$	c #CB5BAA",
"#$	c #212221",
"$$	c #C9C8C9",
"%$	c #D4D3D4",
"&$	c #9B9A9B",
"*$	c #BEBDBE",
"=$	c #E4E4E4",
"-$	c #201F20",
";$	c #C9C8C8",
">$	c #D6D5D6",
",$	c #D4D3D3",
"'$	c #949293",
")$	c #D41BAA",
"!$	c #976F89",
"~$	c #6D6D6D",
"{$	c #D3D2D3",
"]$	c #D4D4D4",
"^$	c #C1C1C1",
"/$	c #292B2A",
"($	c #000400",
"_$	c #000300",
":$	c #989396",
"<$	c #C972AD",
"[$	c #1B1E1C",
"}$	c #17201B",
"|$	c #C22F9D",
"1$	c #D42CAB",
"2$	c #D779BA",
"3$	c #D66AB6",
"4$	c #D773B8",
"5$	c #D66EB7",
"6$	c #D669B5",
"7$	c #D66BB6",
"8$	c #D66DB6",
"9$	c #D670B7",
"0$	c #D770B7",
"a$	c #D41DAB",
"b$	c #D566B4",
"c$	c #D667B5",
"d$	c #D567B5",
"e$	c #D564B4",
"f$	c #D45EB2",
"g$	c #D568B4",
"h$	c #D30CA9",
"                                                                                                    ",
"                                                                                                    ",
"                                                                                                    ",
"                                                                                                    ",
"                                                                                                    ",
"                                                                                                    ",
"                      . + @ @ @ @ @ @ @ @ @ @ @ # $       % & @ * @ @ @ @ @ @ @ @ @ * @ = -         ",
"                      ; > , ' ) ! ! ! ! ~ ~ ! { ] ^       / ( _ : < ! ! ! ! ! ! ~ ! : { > [         ",
"                      } | 1 2 3 4 4 4 4 4 4 4 5 6 7 8     9 0 a b c d 4 4 4 4 4 4 c e f g h         ",
"                      i j k l m n n n n o p q r s t u     v w x y z n A A n o n o B C D E F         ",
"                      i j G H I J J J J J K L M c N O P   Q R S T U V J J J J W J J X Y Z F         ",
"                      i j 5 ` W  .....+.+.@.#.$.%.&.*.=.  / -.x ;.>...,...'.'. . ...).Y !.~.        ",
"                      {.].^./.(._.:.'.<.[.}.'.|.n 1.2.3.  4.5.S 6.7.8.9.0.'.W a.b.c.d.e.f.g.        ",
"                      } h.i.j.k.l.m.|.'.W n.o. .p.q.r.s.t.u.v.w.D D x.y.z...A.B.C.k.Y D.E.F.        ",
"                      G.~ H.I.J.K.L.|.[.M.N.O...o.P.Q.R.S.T.U.V.V.W.S X.<...A.Y.Z.`. +.+++@+        ",
"                      #+$+%+&+*+l.=+|.z.> -+;+K [.>+,+'+)+!+~+%+{+]+^+/+J (+_+:+1 <+[+}+|+1+        ",
"                            2+3+4+L.5+..> 6+7+K ..L 8+9+0+a+    b+c+x d+J .._+:+e+f+g+              ",
"                            h+i+4+L.j+#.> k+l+m+<.'.n+o+p+q+r+  s+t+x d+J ..u+:+e+v+g+              ",
"                            w+*+4+L.j+..> x+y+z+W <.|.A+B+: C+  D+E+x d+J ..F+:+e+f+G+              ",
"                            w+*+4+L.5+..> x+k r H+<...I+J+K+L+M+b+N+x d+J ..F+O+e+f+G+              ",
"                            w+*+4+L.5+..> l+P+3 Q+K |.J R+S+T+U+b+N+x d+J ..F+O+e+f+G+              ",
"                            w+*+4+L.5+..> x+V+W+r X+..W Y+Z+`+ @.@c+x d+J ..F+O+e+f+G+              ",
"                            w+*+4+L.5+..> l++@@@c #@..W $@%@D &@*@=@x /+J ..F+O+e+f+G+              ",
"                            w+*+4+L.5+..> x++@-@;@>@,@I W '@c )@!@~@x {@J ..F+O+e+f+G+              ",
"                            w+*+4+L.5+..> x++@]@^@2 /@(@.._@:@<@[@}@S {@|@..5+O+e+f+G+              ",
"                            w+*+4+L.5+..> x+!@1@| 2@3@4@..+.5@6@7@8@9@0@|@a@5+O+e+f+G+              ",
"                            w+*+4+L.5+..> b@!@P.c@d@e@f@0.'.g@h@i@j@S 0@|@a@5+O+e+f+G+              ",
"                            w+*+4+L.5+..> k@l@m@n@o@e.p@[. .J q@r@s@S 0@|@a@5+O+e+f+G+              ",
"                            w+*+4+L.5+..> k@l@t@u@v@:+1.w@..z.x@y@z@x 0@|@a@5+O+e+f+G+              ",
"                            w+*+4+L.5+..> k@+@t@A@B@C@D@E@$.J J X F@G@0@|@a@5+O+e+f+G+              ",
"                            w+*+4+L.5+..> k@+@t@A@H@I@J@K@L@<...M@b@N@{@|@a@5+O+e+f+G+              ",
"                            w+f+4+L.5+..> k@+@t@A@  O@P@9+Q@J <.,.R@K.0@|@..5+O+e+f+G+              ",
"                            2+S@4+L.5+..> k@!@t@A@  T@U@V@W@X@....Y@k@{@Z@a@`@O+e+f+G+              ",
"                            w+*+4+L.F+..> k@!@m@A@     #.#2 l +#z.|@@###n.a@`@O+e+f+G+              ",
"                      $#%#&#*#{ =#L.o. .> b@+@-#;#>#,#'#)#!#~#n.F+J {#]#_+ .g@O+e+f+G+              ",
"                      ^#/#(#_#:#<#[#g@[.> }#|#1#_#2#3#4#5#6#7#8#I J 9#0#a#W g@O+e+f+G+              ",
"                      b#| y G c#d#e#L  .> f#2 c#g#h#i#4#j#k#l#m#n#W J J J W _+O+e+f+G+              ",
"                      o#p#G q#r#s#t#W [.u#v#w#'@Z.x#i#4#y#z#A#B#C#J L }.J L L :+e+f+G+              ",
"                      i h.G D#E#|@J J +...J (@F#G#H#I#4#  J#K#L#M#N#W J J J _+:+D@f+G+              ",
"                      i p#5 O#P#8@W W +#K W 8@F#Q#H#R#4#  S#T#U#V#W#L L W W X#Y#D@f+G+              ",
"                      } Z#^.`# $ $ $ $ $ $ $.$P+x.p++$4#    @$#$$$%$&$&$ $ $ $*$=$f+G+              ",
"                      {.-$;$>$f f f f f f y@%.y@,$'$i#4#    )$!$~${$f %.f f y@]$^$/$G+              ",
"                      ^#($_$> > &@&@&@&@&@> > > &@&@:$4#      <$[$> _$> &@> _$($($}$|$              ",
"                      1$2$3$4$5$6$6$6$6$6$7$8$5$6$9$0$        a$b$9$c$5$6$7$d$e$f$g$h$              ",
"                                                                                                    ",
"                                                                                                    ",
"                                                                                                    ",
"                                                                                                    ",
"                                                                                                    ",
"                                                                                                    "};
