/* XPM */
static char * tile035_xpm[] = {
"50 50 321 2",
"  	c #D411AA",
". 	c #D461B3",
"+ 	c #D499BF",
"@ 	c #D499C0",
"# 	c #D49AC0",
"$ 	c #D498BF",
"% 	c #D45BB1",
"& 	c #D568B5",
"* 	c #7C6C76",
"= 	c #1E1E1E",
"- 	c #262626",
"; 	c #252525",
"> 	c #282627",
", 	c #272627",
"' 	c #1C1B1B",
") 	c #806E7A",
"! 	c #D565B4",
"~ 	c #D34DAE",
"{ 	c #796973",
"] 	c #636363",
"^ 	c #E5E5E5",
"/ 	c #F0EFF0",
"( 	c #EFEFEF",
"_ 	c #F2F1F2",
": 	c #F2F0F1",
"< 	c #E3E1E2",
"[ 	c #5B5B5B",
"} 	c #806978",
"| 	c #D21EA9",
"1 	c #D01FA8",
"2 	c #752C60",
"3 	c #616061",
"4 	c #EAEAEA",
"5 	c #D1D1D1",
"6 	c #878586",
"7 	c #8A8989",
"8 	c #868585",
"9 	c #868586",
"0 	c #868384",
"a 	c #D2D1D2",
"b 	c #E9E8E8",
"c 	c #595858",
"d 	c #7C3467",
"e 	c #D11DA8",
"f 	c #D12FA9",
"g 	c #7F4B6E",
"h 	c #595859",
"i 	c #E7E5E6",
"j 	c #CECECE",
"k 	c #2A2829",
"l 	c #120E0F",
"m 	c #100C0D",
"n 	c #100D0E",
"o 	c #110C0E",
"p 	c #110B0D",
"q 	c #302D2E",
"r 	c #CFCECE",
"s 	c #E3E2E3",
"t 	c #4B4A4A",
"u 	c #834D72",
"v 	c #D22FAA",
"w 	c #D442AE",
"x 	c #8B657E",
"y 	c #494848",
"z 	c #E2E0E1",
"A 	c #D2D0D1",
"B 	c #100A0C",
"C 	c #140E10",
"D 	c #120C0E",
"E 	c #130B0E",
"F 	c #130A0D",
"G 	c #130D0F",
"H 	c #2E2C2D",
"I 	c #D6D4D5",
"J 	c #DDDCDD",
"K 	c #3E3E3E",
"L 	c #916A84",
"M 	c #D43EAD",
"N 	c #D42BAB",
"O 	c #987D8E",
"P 	c #3D3C3D",
"Q 	c #D3D2D3",
"R 	c #302F2F",
"S 	c #110D0E",
"T 	c #0F0C0D",
"U 	c #444343",
"V 	c #646464",
"W 	c #414041",
"X 	c #110E0F",
"Y 	c #3A3838",
"Z 	c #D9D7D7",
"` 	c #DAD9DA",
" .	c #373636",
"..	c #9D7F92",
"+.	c #D422AB",
"@.	c #CE1AA6",
"#.	c #212824",
"$.	c #BFBEBE",
"%.	c #DCDBDB",
"&.	c #383637",
"*.	c #100B0C",
"=.	c #535253",
"-.	c #E4E3E4",
";.	c #F6F5F6",
">.	c #F7F5F6",
",.	c #F7F7F7",
"'.	c #F5F5F5",
").	c #F6F6F6",
"!.	c #E1E1E1",
"~.	c #494949",
"{.	c #0F0D0E",
"].	c #0F0B0C",
"^.	c #130F10",
"/.	c #423F40",
"(.	c #DFDDDD",
"_.	c #B7B6B7",
":.	c #2B2F2D",
"<.	c #D117A8",
"[.	c #CE1BA6",
"}.	c #242B27",
"|.	c #C6C6C6",
"1.	c #B5B5B5",
"2.	c #585858",
"3.	c #E7E6E7",
"4.	c #CDCCCC",
"5.	c #484748",
"6.	c #454444",
"7.	c #434243",
"8.	c #424242",
"9.	c #414141",
"0.	c #434343",
"a.	c #4D4D4D",
"b.	c #E0E0E0",
"c.	c #515050",
"d.	c #100B0D",
"e.	c #0F0A0C",
"f.	c #BAB9BA",
"g.	c #BFBEBF",
"h.	c #2E312F",
"i.	c #D118A8",
"j.	c #CF1CA6",
"k.	c #272E2A",
"l.	c #C8C8C8",
"m.	c #B6B5B5",
"n.	c #0A0406",
"o.	c #CBCACA",
"p.	c #2E2D2E",
"q.	c #8D4477",
"r.	c #B42792",
"s.	c #B42892",
"t.	c #8A4876",
"u.	c #323232",
"v.	c #D6D6D6",
"w.	c #C7C6C7",
"x.	c #080405",
"y.	c #0F090B",
"z.	c #BBBABA",
"A.	c #C2C1C2",
"B.	c #2C302E",
"C.	c #262D29",
"D.	c #C9C8C8",
"E.	c #B6B5B6",
"F.	c #090204",
"G.	c #D1D0D0",
"H.	c #ACABAB",
"I.	c #6C676A",
"J.	c #D414AA",
"K.	c #D31AAA",
"L.	c #5C5B5B",
"M.	c #B3B3B3",
"N.	c #CCCCCC",
"O.	c #090405",
"P.	c #BBBABB",
"Q.	c #C3C2C3",
"R.	c #090305",
"S.	c #D1CFD0",
"T.	c #ABAAAB",
"U.	c #726F71",
"V.	c #D413AA",
"W.	c #D31BAA",
"X.	c #696969",
"Y.	c #CDCCCD",
"Z.	c #090304",
"`.	c #AEADAE",
" +	c #736F72",
".+	c #686868",
"++	c #B2B2B2",
"@+	c #CDCDCD",
"#+	c #080305",
"$+	c #D3D2D2",
"%+	c #747072",
"&+	c #CECDCD",
"*+	c #736F71",
"=+	c #686768",
"-+	c #D2D1D1",
";+	c #0A0305",
">+	c #D1D0D1",
",+	c #AEAEAE",
"'+	c #625E60",
")+	c #D316A9",
"!+	c #D21AA9",
"~+	c #555555",
"{+	c #2D312F",
"]+	c #CF1BA6",
"^+	c #252C28",
"/+	c #C8C6C7",
"(+	c #0B0406",
"_+	c #C0BFC0",
":+	c #DADADA",
"<+	c #3D3D3D",
"[+	c #815673",
"}+	c #A16C8F",
"|+	c #A26F91",
"1+	c #A27091",
"2+	c #A47293",
"3+	c #7B516D",
"4+	c #4C4C4C",
"5+	c #B9B8B9",
"6+	c #0B0708",
"7+	c #0E090B",
"8+	c #C2C1C1",
"9+	c #C7C5C6",
"0+	c #130E0F",
"a+	c #120B0D",
"b+	c #140C0E",
"c+	c #3C3B3B",
"d+	c #DBDBDB",
"e+	c #757575",
"f+	c #727272",
"g+	c #717171",
"h+	c #737473",
"i+	c #737474",
"j+	c #787878",
"k+	c #DDDDDD",
"l+	c #323132",
"m+	c #110C0D",
"n+	c #C1C1C1",
"o+	c #2A2F2C",
"p+	c #5E5D5D",
"q+	c #3D3C3C",
"r+	c #D7D6D7",
"s+	c #EDEDED",
"t+	c #EEEDED",
"u+	c #EEEDEE",
"v+	c #2B2B2B",
"w+	c #100E0F",
"x+	c #131011",
"y+	c #686767",
"z+	c #2D322F",
"A+	c #D53DAE",
"B+	c #A5899B",
"C+	c #E9E7E8",
"D+	c #565454",
"E+	c #242223",
"F+	c #323031",
"G+	c #343334",
"H+	c #323131",
"I+	c #343233",
"J+	c #201E1F",
"K+	c #0E0C0D",
"L+	c #5A595A",
"M+	c #EAE8E9",
"N+	c #222222",
"O+	c #AA8B9F",
"P+	c #D424AB",
"Q+	c #D53CAE",
"R+	c #A58499",
"S+	c #2F2E2E",
"T+	c #D4D3D3",
"U+	c #E4E1E2",
"V+	c #474546",
"W+	c #120D0E",
"X+	c #4E4D4E",
"Y+	c #E6E5E6",
"Z+	c #CCCBCB",
"`+	c #2D2D2D",
" @	c #A9869C",
".@	c #D538AD",
"+@	c #A47E96",
"@@	c #333232",
"#@	c #D5D5D5",
"$@	c #DEDDDE",
"%@	c #3B393A",
"&@	c #E2E1E2",
"*@	c #CFCFCF",
"=@	c #282828",
"-@	c #AA839D",
";@	c #D430AC",
">@	c #976787",
",@	c #393838",
"'@	c #D9D8D8",
")@	c #999697",
"!@	c #999899",
"~@	c #999798",
"{@	c #999898",
"]@	c #E0DEDF",
"^@	c #303030",
"/@	c #9E6D8D",
"(@	c #D42CAB",
"_@	c #D31BA9",
":@	c #894674",
"<@	c #434444",
"[@	c #D8D7D7",
"}@	c #D7D5D6",
"|@	c #D9D8D9",
"1@	c #D6D5D6",
"2@	c #914D7C",
"3@	c #D318AA",
"4@	c #D313A9",
"5@	c #865877",
"6@	c #000000",
"7@	c #000300",
"8@	c #000100",
"9@	c #8D4A79",
"0@	c #D537AD",
"a@	c #D320AA",
"b@	c #D678B9",
"c@	c #D469B4",
"d@	c #D56EB6",
"e@	c #D573B7",
"f@	c #D574B7",
"                                                                                                    ",
"                                                                                                    ",
"                                                                                                    ",
"                                                                                                    ",
"                                                                                                    ",
"                                                                                                    ",
"                                                                                                    ",
"                                                                                                    ",
"                                . + @ @ # # # # # # # # # @ $ %                                     ",
"                              & * = - ; - - - - - - - - > , ' ) !                                   ",
"                            ~ { ] ^ / ( _ _ _ _ _ _ _ _ : _ < [ } |                                 ",
"                          1 2 3 4 5 6 7 8 9 9 9 9 9 9 9 0 6 a b c d e                               ",
"                        f g h i j k l m m n n n n n n m o p q r s t u v                             ",
"                      w x y z A , B p C D D D D D D D D E F G H I J K L M                           ",
"                    N O P J Q R S T S U V V V V V V V V W n X S Y Z `  ...+.                        ",
"                    @.#.$.%.&.o *.n =.-.;.>.;.,.,.,.'.).!.~.{.].^./.(._.:.<.                        ",
"                    [.}.|.1.m o p 2.3.4.5.6.7.8.8.9.0.a.5 b.c.n d.e.f.g.h.i.                        ",
"                    j.k.l.m.].m n.o.a p.q.r.r.r.r.s.r.t.u.v.w.x.o y.z.A.B.i.                        ",
"                    j.C.D.E.m m F.G.H.I.J.            K.L.M.N.O.o y.P.Q.h.i.                        ",
"                    j.C.D.E.m m R.S.T.U.V.            W.X.M.Y.x.o y.P.Q.h.i.                        ",
"                    j.C.D.E.m m Z.a `. +V.            W..+++@+#+o y.P.Q.h.i.                        ",
"                    j.C.D.E.m m R.$+`.%+V.            W..+M.&+x.o y.P.Q.h.i.                        ",
"                    j.C.D.E.m m R.$+`.%+V.            W..+M.&+x.o y.P.Q.h.i.                        ",
"                    j.C.D.E.m m R.$+`.%+V.            W..+M.&+x.o y.P.Q.h.i.                        ",
"                    j.C.D.E.m m R.$+`.%+V.            W..+M.&+x.o y.P.Q.h.i.                        ",
"                    j.C.D.E.m m R.$+`.%+V.            W..+M.&+x.o y.P.Q.h.i.                        ",
"                    j.C.D.E.m m R.$+`.%+V.            W..+M.&+x.o y.P.Q.h.i.                        ",
"                    j.C.D.E.m m R.$+`.%+V.            W..+M.&+x.o y.P.Q.h.i.                        ",
"                    j.C.D.E.m m R.$+`.%+V.            W..+M.&+x.o y.P.Q.h.i.                        ",
"                    j.C.D.E.m m R.$+`.%+V.            W..+M.&+x.o y.P.Q.h.i.                        ",
"                    j.C.D.E.m m R.$+`.%+V.            W..+M.&+x.o y.P.Q.h.i.                        ",
"                    j.C.D.E.m m R.$+`.%+V.            W..+M.&+x.o y.P.Q.h.i.                        ",
"                    j.C.D.E.m m R.$+`.%+V.            W..+M.&+x.o y.P.Q.h.i.                        ",
"                    j.C.D.E.m m R.$+`.*+V.            W.=+M.@+x.o y.P.Q.h.i.                        ",
"                    j.C.D.E.m m R.-+T.%+V.            W.X.++4.O.o y.P.Q.h.i.                        ",
"                    j.C.l.E.m m ;+>+,+'+)+            !+~+M.@+x.o y.P.Q.{+i.                        ",
"                    ]+^+/+E.d.D (+_+:+<+[+}+|+1+1+1+2+3+4+b.5+6+d.7+z.8+{+i.                        ",
"                    [.}.9+1.0+a+b+c+d+v.e+f+g+h+h+i+f+j+k+5 l+].C m+f.n+o+<.                        ",
"                    ]+C.f.3.p+*.G {.q+r+s+t+s+s+s+s+s+u+N.v+w+x+m y+4 M.z+i.                        ",
"                    A+B+; -+C+D+S ].{.E+F+G+H+H+H+F+H+I+J+K+T m L+M+@+N+O+P+                        ",
"                      Q+R+S+T+U+V+S m o S S S S S S S S W+S S X+Y+Z+`+ @.@                          ",
"                        Q++@@@#@$@%@G G D D D D D D D D D G U &@*@=@-@.@                            ",
"                          ;@>@,@'@%.)@!@!@!@!@!@!@!@!@!@~@{@]@$+^@/@(@                              ",
"                            _@:@<@Y.[@}@'@'@'@'@'@'@'@'@|@1@w.q+2@3@                                ",
"                              4@5@6@7@7@8@8@8@8@8@8@8@8@6@6@8@9@0@                                  ",
"                                a@b@c@c@c@c@c@c@c@c@c@c@d@e@f@3@                                    ",
"                                                                                                    ",
"                                                                                                    ",
"                                                                                                    ",
"                                                                                                    "};
