/* XPM */
static char * tile007_xpm[] = {
"50 50 363 2",
"  	c #D411AA",
". 	c #D410AA",
"+ 	c #CD80B4",
"@ 	c #711C5B",
"# 	c #6E0A57",
"$ 	c #6E0C58",
"% 	c #6E0B57",
"& 	c #6F0C58",
"* 	c #966D87",
"= 	c #D433AC",
"- 	c #CF7CB4",
"; 	c #711D5B",
"> 	c #6F0D58",
", 	c #8C5F7D",
"' 	c #D44FB0",
") 	c #CC92B8",
"! 	c #2A2829",
"~ 	c #AEADAE",
"{ 	c #C0BEBF",
"] 	c #C1C0C0",
"^ 	c #C2BFC0",
"/ 	c #C2C0C1",
"( 	c #C1BFC0",
"_ 	c #858384",
": 	c #7D7D7D",
"< 	c #D43BAD",
"[ 	c #CF8EB9",
"} 	c #242223",
"| 	c #A9A7A8",
"1 	c #C1BFBF",
"2 	c #8E8C8D",
"3 	c #6E6F6F",
"4 	c #D55CB3",
"5 	c #2F2E2E",
"6 	c #E3E1E2",
"7 	c #DCDADB",
"8 	c #D4D2D3",
"9 	c #D4D3D4",
"0 	c #D5D3D4",
"a 	c #F0EEEF",
"b 	c #AEADAD",
"c 	c #7D7E7D",
"d 	c #242323",
"e 	c #DEDCDD",
"f 	c #DCDBDC",
"g 	c #D4D3D3",
"h 	c #EDEBEC",
"i 	c #BAB8B9",
"j 	c #6E6F6E",
"k 	c #CB92B8",
"l 	c #E6E4E5",
"m 	c #828181",
"n 	c #100D0E",
"o 	c #100C0D",
"p 	c #110D0E",
"q 	c #0F0C0C",
"r 	c #110C0D",
"s 	c #D2D0D1",
"t 	c #AEACAD",
"u 	c #252424",
"v 	c #E1DFE0",
"w 	c #8B8A8A",
"x 	c #151112",
"y 	c #CAC8C9",
"z 	c #6D6E6D",
"A 	c #D55CB2",
"B 	c #E5E4E5",
"C 	c #828081",
"D 	c #120D0E",
"E 	c #110C0E",
"F 	c #120C0E",
"G 	c #E0DFE0",
"H 	c #8B898A",
"I 	c #151212",
"J 	c #888788",
"K 	c #323031",
"L 	c #353233",
"M 	c #252122",
"N 	c #302E2F",
"O 	c #312F30",
"P 	c #323030",
"Q 	c #919090",
"R 	c #322F30",
"S 	c #282526",
"T 	c #2E2C2D",
"U 	c #333132",
"V 	c #CCCACB",
"W 	c #2F2F2F",
"X 	c #E4E4E4",
"Y 	c #F0F0F0",
"Z 	c #EEEDEE",
"` 	c #EFEDEE",
" .	c #100B0C",
"..	c #CFCECF",
"+.	c #F7F5F6",
"@.	c #ADABAC",
"#.	c #7C7E7D",
"$.	c #CE8FB9",
"%.	c #242424",
"&.	c #DEDEDE",
"*.	c #EEEDED",
"=.	c #EEECED",
"-.	c #9D9B9B",
";.	c #C2C1C2",
">.	c #EDECED",
",.	c #F6F4F5",
"'.	c #B9B7B8",
").	c #CB91B7",
"!.	c #252525",
"~.	c #7F7F7F",
"{.	c #8F8F8F",
"].	c #E9E6E7",
"^.	c #949393",
"/.	c #100B0D",
"(.	c #D9D8D8",
"_.	c #C3C1C2",
":.	c #8E8D8D",
"<.	c #616061",
"[.	c #CE8DB8",
"}.	c #232323",
"|.	c #7B7B7B",
"1.	c #8F8E8F",
"2.	c #A7A5A5",
"3.	c #C7C6C7",
"4.	c #8F8E8E",
"5.	c #8E8D8E",
"6.	c #686768",
"7.	c #D55BB2",
"8.	c #CE5FAE",
"9.	c #A1668E",
"0.	c #A0628C",
"a.	c #905F80",
"b.	c #272627",
"c.	c #E1E0E1",
"d.	c #949292",
"e.	c #A9A8A9",
"f.	c #493141",
"g.	c #A2668E",
"h.	c #B06D9A",
"i.	c #D422AB",
"j.	c #D36FB4",
"k.	c #A1658D",
"l.	c #976286",
"m.	c #202120",
"n.	c #DAD9DA",
"o.	c #A6A4A5",
"p.	c #D0CECF",
"q.	c #372832",
"r.	c #A3668F",
"s.	c #A0638C",
"t.	c #AE779B",
"u.	c #D547AF",
"v.	c #BC2C98",
"w.	c #292829",
"x.	c #AAA9A9",
"y.	c #601E4D",
"z.	c #D511AB",
"A.	c #C51E9F",
"B.	c #212522",
"C.	c #A7A6A7",
"D.	c #AFAEAF",
"E.	c #49283E",
"F.	c #D510AB",
"G.	c #BC2D99",
"H.	c #C51F9F",
"I.	c #212623",
"J.	c #AFAFAF",
"K.	c #BC2D98",
"L.	c #DCDBDB",
"M.	c #CFCFCF",
"N.	c #222523",
"O.	c #38132D",
"P.	c #7E0A64",
"Q.	c #7E0764",
"R.	c #7E0864",
"S.	c #75115D",
"T.	c #212120",
"U.	c #A5A4A4",
"V.	c #D8D6D7",
"W.	c #CBC9CA",
"X.	c #A3A1A2",
"Y.	c #A4A3A4",
"Z.	c #A3A3A3",
"`.	c #A2A2A2",
" +	c #E8E6E7",
".+	c #A5A3A4",
"++	c #BFBEBF",
"@+	c #E2E0E1",
"#+	c #E2E1E2",
"$+	c #E1E1E1",
"%+	c #E1E2E1",
"&+	c #E2E2E2",
"*+	c #E0DEDF",
"=+	c #939191",
"-+	c #0E080A",
";+	c #0A0406",
">+	c #0C0507",
",+	c #0B0507",
"'+	c #0C0407",
")+	c #0E0307",
"!+	c #0D0407",
"~+	c #0D0406",
"{+	c #12090C",
"]+	c #110B0D",
"^+	c #130D0F",
"/+	c #120B0D",
"(+	c #130C0E",
"_+	c #171214",
":+	c #171314",
"<+	c #181314",
"[+	c #181315",
"}+	c #161414",
"|+	c #151314",
"1+	c #161314",
"2+	c #171415",
"3+	c #141112",
"4+	c #BFBDBE",
"5+	c #DFDDDE",
"6+	c #DEDDDE",
"7+	c #DDDDDD",
"8+	c #120A0C",
"9+	c #DBDADA",
"0+	c #A09E9F",
"a+	c #A09FA0",
"b+	c #A0A0A0",
"c+	c #9F9E9F",
"d+	c #9F9E9E",
"e+	c #E5E6E6",
"f+	c #A5A5A5",
"g+	c #AAA8A9",
"h+	c #3B2132",
"i+	c #854170",
"j+	c #844170",
"k+	c #85416F",
"l+	c #84406F",
"m+	c #7C3E68",
"n+	c #1F2120",
"o+	c #D9DADA",
"p+	c #A5A6A6",
"q+	c #110B0C",
"r+	c #DBDBDB",
"s+	c #A9A9A9",
"t+	c #5F1E4D",
"u+	c #DBDADB",
"v+	c #212523",
"w+	c #CF75B2",
"x+	c #8E2473",
"y+	c #8D1E71",
"z+	c #7E2967",
"A+	c #E2DFE0",
"B+	c #949293",
"C+	c #DBD9DA",
"D+	c #AAA8A8",
"E+	c #3F1833",
"F+	c #8E2072",
"G+	c #A56490",
"H+	c #D42EAC",
"I+	c #D172B3",
"J+	c #8E2573",
"K+	c #8D1F72",
"L+	c #84256B",
"M+	c #DAD8D9",
"N+	c #A6A5A5",
"O+	c #AFADAD",
"P+	c #301B29",
"Q+	c #8E2173",
"R+	c #A05A8A",
"S+	c #D549AF",
"T+	c #262425",
"U+	c #797878",
"V+	c #878586",
"W+	c #8A898A",
"X+	c #EAE8E9",
"Y+	c #100A0C",
"Z+	c #C4C2C3",
"`+	c #888687",
" @	c #878687",
".@	c #5B595A",
"+@	c #7C7C7C",
"@@	c #D43AAD",
"#@	c #232222",
"$@	c #767575",
"%@	c #868586",
"&@	c #E5E3E4",
"*@	c #CECCCD",
"=@	c #C6C3C4",
"-@	c #878686",
";@	c #626060",
">@	c #6E6E6E",
",@	c #302F2F",
"'@	c #EAE9EA",
")@	c #EBE9EA",
"!@	c #8A8888",
"~@	c #EDEAEB",
"{@	c #EAE7E8",
"]@	c #DFDEDF",
"^@	c #EFEEEF",
"/@	c #EBEAEB",
"(@	c #9B9999",
"_@	c #ECEAEB",
":@	c #F6F3F4",
"<@	c #BAB7B8",
"[@	c #6C6D6C",
"}@	c #838182",
"|@	c #030102",
"1@	c #050102",
"2@	c #0F090B",
"3@	c #070102",
"4@	c #020000",
"5@	c #D3D1D2",
"6@	c #040102",
"7@	c #080203",
"8@	c #CAC8C8",
"9@	c #2F2D2E",
"0@	c #818080",
"a@	c #0F0D0E",
"b@	c #D3D0D1",
"c@	c #898888",
"d@	c #0E0C0D",
"e@	c #828182",
"f@	c #0C0A0B",
"g@	c #0C090A",
"h@	c #0D090A",
"i@	c #0E090A",
"j@	c #0F090A",
"k@	c #0C0809",
"l@	c #D4D1D2",
"m@	c #8A8989",
"n@	c #0B090A",
"o@	c #130F10",
"p@	c #D9D9D9",
"q@	c #D1D0D1",
"r@	c #D1CFD0",
"s@	c #7C7D7D",
"t@	c #CE8EB8",
"u@	c #B8B7B8",
"v@	c #6D6F6E",
"w@	c #282828",
"x@	c #9E9E9E",
"y@	c #B0AFAF",
"z@	c #B0AFB0",
"A@	c #B0AEAF",
"B@	c #747374",
"C@	c #7C7D7C",
"D@	c #9A9A9A",
"E@	c #7C7B7C",
"F@	c #CD85B5",
"G@	c #682255",
"H@	c #651751",
"I@	c #651651",
"J@	c #651551",
"K@	c #661752",
"L@	c #917186",
"M@	c #D435AC",
"N@	c #CF81B6",
"O@	c #682355",
"P@	c #651851",
"Q@	c #651451",
"R@	c #661751",
"S@	c #88647B",
"T@	c #D553B0",
"U@	c #D40EAA",
"V@	c #D40FAA",
"                                                                                                    ",
"                                                                                                    ",
"                                                                                                    ",
"                                                                                                    ",
"                                                                                                    ",
"                    .                             .   .                                             ",
"                    + @ # $ % $ $ $ $ $ $ $ $ $ & * = - ; % $ % $ $ $ $ $ $ $ $ $ > , '             ",
"                    ) ! ~ { ] ] ] ] ] ] ^ ^ / ( _ : < [ } | { ] ] ] ] ] ] ^ ^ / 1 2 3 4             ",
"                    ) 5 6 7 8 9 9 9 9 9 0 0 8 a b c < [ d e f g 9 9 9 9 9 0 0 8 h i j 4             ",
"                    k 5 l m n o o o p p q o r s t : < [ u v w n o o o p p o o x y i z A             ",
"                    k 5 B C o D E E F D o p p s t : < [ u G H o D F E F E o p I y i z A             ",
"                    ) 5 B J K L M F F F N O P 8 t : < [ d G Q R L S F F F T P U V i z A             ",
"                    k W X Y Z ` w p F  ...h h +.@.#.< $.%.&.Y *.=.-.p F  .;.>.=.,.'.z A             ",
"                    ).!.~.{.{.].^.p F /.(._.{.:.<.#.< [.}.|.{.1.6 2.p F  .V 3.4.5.6.z 7.            ",
"                    8.9.0.a.b.c.d.p F /.7 e.f.g.0.h.i.j.k.0.l.m.n.o.p F /.p.~ q.r.s.t.u.            ",
"                          v.w.6 ^.p F  .7 x.y.z.            A.B.7 C.p F  ...D.E.F.                  ",
"                          G.w.6 ^.p F  .7 x.y.z.            H.I.7 C.p F  ...D.E.F.                  ",
"                          G.w.6 ^.p F  .7 x.y.z.            H.I.7 C.p F  ...J.E.F.                  ",
"                          K.w.6 ^.p F  .L.x.y.z.            H.I.7 C.p F  .M.J.E.F.                  ",
"                          K.w.6 ^.p F  .L.x.y.z.            A.N.7 C.p F  .M.J.E.F.                  ",
"                          K.w.6 ^.p F  .(.e.O.P.Q.R.R.R.R.R.S.T.n.U.p F  .M.J.E.F.                  ",
"                          K.w.6 ^.p F  .V.W.X.Y.Y.Y.Y.Y.Y.Z.Z.`. +.+p F  .M.J.E.F.                  ",
"                          K.w.6 ^.p F /.++v G @+#+$+$+%+%+&+&+G *+=+p F  .M.J.E.F.                  ",
"                          K.w.6 ^.E F F -+;+>+,+,+'+)+)+)+)+)+!+~+{+]+]+ .M.J.E.F.                  ",
"                          K.w.6 ^.E F F ^+^+F F F F F F F F F /+(+(+]+]+ .M.J.E.F.                  ",
"                          K.w.6 ^.E F F _+:+<+[+[+:+}+}+}+|+|+1+2+3+]+]+ .M.J.E.F.                  ",
"                          K.w.6 ^.p F ]+4+e 5+*+*+*+*+*+5+6+f 7+6+4.p (+8+M.J.E.F.                  ",
"                          K.w.6 ^.p F  .9+y 0+a+a+a+b+b+c+d+a+b+e+f+p (+8+M.J.E.F.                  ",
"                          K.w.6 ^.p F  .9+g+h+i+j+j+k+k+k+l+m+n+o+p+p (+q+M.J.E.F.                  ",
"                          K.w.6 ^.p F  .r+s+t+z.            H.I.u+C.p F  .M.J.E.F.                  ",
"                          K.w.6 ^.p F  .r+s+t+z.            A.v+7 C.p F  .M.J.E.F.                  ",
"                          G.w.6 ^.p F  .r+s+t+z.            A.v+7 C.p F  .M.J.E.F.                  ",
"                          G.w.6 ^.p F  .L.s+t+z.            H.I.7 C.p F  .M.J.E.F.                  ",
"                          G.w.6 ^.p F  .L.s+t+z.            H.I.7 C.p F  .M.J.E.F.                  ",
"                    w+x+y+z+b.A+B+p F /.C+D+E+F+y+G+H+I+J+K+L+m.M+N+p F  .p.O+P+Q+y+R+S+            ",
"                    ).T+U+V+W+X+B+p F Y+M+Z+`+ @.@+@@@[.#@$@%@J &@o.p F  .*@=@%@-@;@>@A             ",
"                    ) ,@&@` '@)@!@p F ]+W.~@{@,.t : < [ d ]@^@/@X+(@p F  .4+_@X+:@<@[@7.            ",
"                    k 5 B }@|@1@p p F F 2@3@4@5@t : < [ u G H 4@6@p p F F D 7@7@8@i z A             ",
"                    k 9@&@0@a@n p E F F p p o b@b : < [ d G c@d@n p E F F p p x y i z A             ",
"                    k 5 l e@f@g@h@i@j@j@k@i@i@l@~ : < [ u G m@n@n@h@i@j@i@k@h@o@y i z A             ",
"                    k W X p@s s s s s s q@q@r@=.@.s@< t@%.&.r+s s s s s s q@q@q@)@u@v@A             ",
"                    k w@x@J.y@z@z@z@z@z@z@z@D.A@B@C@< t@%.D@J.D.z@z@z@z@z@z@z@y@D.E@v@A             ",
"                    F@G@H@I@I@J@J@J@J@J@J@J@J@K@K@L@M@N@O@P@J@I@J@J@J@J@J@J@J@Q@R@R@S@T@            ",
"                    U@                            V@  U@                            . .             ",
"                                                                                                    ",
"                                                                                                    ",
"                                                                                                    ",
"                                                                                                    ",
"                                                                                                    ",
"                                                                                                    "};
