/* XPM */
static char *_e8c38c24d094f57d17993f989174318MeFpl8csfo6x79zA[] = {
/* columns rows colors chars-per-pixel */
"150 29 173 2 ",
"   c #d411aa",
".  c #3E1E25",
"X  c #2C2C2C",
"o  c #3A3737",
"O  c #3A3937",
"+  c #3A3738",
"@  c #3B3A3A",
"#  c #441C23",
"$  c #4A1C23",
"%  c #751A2D",
"&  c #781A2E",
"*  c #771F31",
"=  c #791E31",
"-  c #472E31",
";  c #4D2D34",
":  c #522E35",
">  c #592F36",
",  c #592F38",
"<  c #4B3234",
"1  c #4D3639",
"2  c #403E3E",
"3  c #543136",
"4  c #583237",
"5  c #543239",
"6  c #5B333A",
"7  c #55393E",
"8  c #632632",
"9  c #642934",
"0  c #6F2F3C",
"q  c #692634",
"w  c #742333",
"e  c #792032",
"r  c #772A3A",
"t  c #7A2B3A",
"y  c #722B37",
"u  c #60333B",
"i  c #6C333E",
"p  c #71343F",
"a  c #5A3E44",
"s  c #6C3641",
"d  c #6D3A43",
"f  c #633D45",
"g  c #713642",
"h  c #723B45",
"j  c #733D49",
"k  c #444444",
"l  c #474B4A",
"z  c #4B4C4C",
"x  c #424946",
"c  c #514344",
"v  c #5F4146",
"b  c #544649",
"n  c #5F4248",
"m  c #544D4E",
"M  c #5C4D50",
"N  c #4D5050",
"B  c #525252",
"V  c #555A57",
"C  c #555A58",
"Z  c #5B5C5B",
"A  c #5E5253",
"S  c #624147",
"D  c #63444B",
"F  c #6C474E",
"G  c #75434C",
"H  c #664E52",
"J  c #665456",
"K  c #6A5659",
"L  c #6E5B5D",
"P  c #5A615E",
"I  c #5C6261",
"U  c #636463",
"Y  c #6C6666",
"T  c #626968",
"R  c #6D6C6C",
"E  c #726D6D",
"W  c #7C6A6D",
"Q  c #72706F",
"!  c #756F70",
"~  c #757474",
"^  c #7B7273",
"/  c #777878",
"(  c #7A7A7A",
")  c #8C2337",
"_  c #862439",
"`  c #8B2339",
"'  c #9C223A",
"]  c #A1223B",
"[  c #AA243E",
"{  c #B2223F",
"}  c #A32741",
"|  c #AC2541",
" . c #A52944",
".. c #AE2843",
"X. c #B32644",
"o. c #BC2746",
"O. c #B62945",
"+. c #BA2846",
"@. c #B92949",
"#. c #C42645",
"$. c #CE264A",
"%. c #CC2A4C",
"&. c #C42448",
"*. c #D02347",
"=. c #D12549",
"-. c #D2294C",
";. c #DD2A4D",
":. c #CC2E51",
">. c #E52B4F",
",. c #E92C4E",
"<. c #E52B51",
"1. c #EC2D52",
"2. c #F42E53",
"3. c #F82E53",
"4. c #F43255",
"5. c #FB3254",
"6. c #FC3659",
"7. c #F93A5A",
"8. c #E74366",
"9. c #E94267",
"0. c #E6446A",
"q. c #E94268",
"w. c #F64261",
"e. c #F14B69",
"r. c #F94B69",
"t. c #F94B66",
"y. c #F7566F",
"u. c #F9546E",
"i. c #FA5670",
"p. c #F15F77",
"a. c #F25F79",
"s. c #F5647B",
"d. c #F9617C",
"f. c #F76D82",
"g. c #F96E84",
"h. c #F97185",
"j. c #F77B8A",
"k. c #F97B8E",
"l. c #F57387",
"z. c #F77F90",
"x. c #F97E91",
"c. c #858585",
"v. c #8B8B8B",
"b. c #8E8685",
"n. c #968C8F",
"m. c #949494",
"M. c gray61",
"N. c #A5A5A5",
"B. c gray68",
"V. c gray71",
"C. c #B9B9B9",
"Z. c #F99CAD",
"A. c #F6A1AD",
"S. c #F9A1AD",
"D. c #F4A6B4",
"F. c #F9A5B4",
"G. c #F1A8B6",
"H. c #F9AFBC",
"J. c #F7B0BD",
"K. c #FAB1BD",
"L. c #FBB5C1",
"P. c #CBCBCB",
"I. c #D4D4D4",
"U. c #FAC9CF",
"Y. c #F9CDD1",
"T. c #F9D9DE",
"R. c #EAEAEA",
"E. c #E1E1E1",
"W. c #FBEDEE",
"Q. c #FBF0EF",
"!. c #FCEDF0",
"~. c #F5F5F5",
"^. c #FAF2F3",
/* pixels */
"                                                                                                                                                                                                                                                                                                            ",
"                                                                                                                                                                                                                                                                                                            ",
"                                                                                                                                                                                                                                                                                                            ",
"                                                                                                                                                                                                                                                                                                            ",
"                                                                                                                                                                                                                                                                                                            ",
"                                                                                                                                                                                                                                                                                                            ",
"                        2 o o o z         z @ O o k                             a o o o z         z O O o @                             a + O O z         z o o @ @                             2 o o @ B         z o o + 2                             @ + o o N         l + + o @                         ",
"                      G e % % % t K     J t % % % % G                         G q % % % t J     K t % = % = G                         G w % % % t H     L t % = % e d                         G = % % % t L     M t % % % e G                         Z z x x k N U     Z z x x x z Z                       ",
"                    D ` <.<.0.9.%.8 K W q %.<.<.<.<.` 7                     n ` >.<.8.8.%.9 K J 8 %.<.<.<.>.) D                     a _ <.<.0.8.-.q W ^ q $.<.<.<.<._ H                     n ) <.<.0.q.%.8 J K 8 %.>.<.<.<.` a                     k B c.c.m.m.( k N U a ~ v.v.c.c.B x                     ",
"                  < } >.5.w.J.D.4.-.w y -.3.5.3.5.4.>.] 1                 < } ;.4.w.J.A.5.-.w % -.2.5.3.5.5.>.} 3                 1 ' >.6.w.K.F.4.-.r r -.2.5.5.5.4.;. .7                 a } <.4.w.H.F.4.-.w w -.4.5.4.5.5.<.} -                 o Z c.m.m.I.I.m.( l l / v.m.m.m.m.c.K @                   ",
"                S [ ;.5.r.H.W.L.7.4.#.#.2.3.5.5.5.5.3.;. .a             v } ;.3.u.K.W.K.5.4.#.#.2.5.5.5.5.6.3.;.| D             D  .;.3.t.K.W.K.7.4.#.#.4.5.5.5.5.5.4.;. .F             D  .;.3.r.H.!.L.6.5.#.#.4.5.6.5.6.5.5.;.} a             z U c.m.M.I.~.I.m.v.~ ~ v.m.m.m.m.m.m.c.T z                 ",
"              B $ *.2.y.S.W.U.x.5.5.2.3.5.5.5.5.5.5.5.4.=.#           l . $.2.y.A.Q.L.Z.7.5.2.3.5.5.5.5.5.5.5.2.%.#           x $ =.2.y.A.Q.K.Z.6.5.2.2.5.5.5.5.5.5.5.3.=.# z           # %.2.y.Z.!.Y.x.5.5.2.2.5.6.5.5.5.5.5.2.$.# l           X / v.N.P.~.E.C.m.m.m.m.m.m.m.m.m.m.m.m./ X B               ",
"              B $ $.e.S.Q.T.g.5.5.5.5.5.5.5.5.5.5.5.5.3.$.#           l . %.e.Z.~.T.l.5.5.5.5.5.5.5.5.5.5.5.5.4.$.$             $ %.e.Z.^.T.h.5.5.5.5.5.5.5.5.5.5.5.5.2.$.$             . $.9.A.^.T.h.5.5.5.5.3.5.5.5.5.5.5.5.2.$.. l           X / M.P.~.R.V.m.m.m.m.m.m.m.m.m.m.m.m.m.( X B               ",
"              B $ %.D.W.T.s.7.5.5.5.5.5.5.5.5.5.5.5.5.2.$.#           l . :.D.W.T.s.7.5.5.5.5.5.5.5.5.5.5.5.5.2.%.#             # :.D.!.T.d.7.6.5.5.5.5.5.5.5.5.5.5.5.3.$.$             . :.D.W.T.s.6.5.5.5.5.5.5.5.5.5.5.5.5.2.$.. l           X / P.~.R.B.m.m.m.m.m.m.m.m.m.m.m.m.m.v.( X B               ",
"              B $ -.s.j.f.7.5.5.5.5.5.5.5.5.3.5.5.5.5.3.$.#           x . %.p.k.s.7.5.5.5.5.5.5.5.5.5.5.5.5.5.2.%.$             $ =.p.k.s.7.3.5.5.3.5.5.5.5.5.5.5.5.5.2.$.$             # $.p.k.f.7.5.5.5.5.5.5.5.5.5.5.5.5.5.3.$.. l           X / N.C.B.m.m.m.m.m.m.m.m.m.m.m.m.m.m.m.( X B               ",
"              B $ *.2.2.5.5.5.5.5.5.5.5.5.5.5.5.5.5.5.3.*.#           l . $.4.5.6.5.5.5.5.5.3.5.5.5.5.5.5.5.5.2.=.$           x $ *.2.3.5.5.5.5.5.5.5.5.5.5.5.5.5.5.5.3.$.$ z         x # %.3.5.5.5.5.5.5.3.3.5.5.5.5.5.5.5.5.4.$.# N           X / v.m.m.m.m.m.m.m.m.m.m.m.m.m.m.m.m.m.( X B               ",
"                > O.<.5.6.5.5.5.7.5.5.5.5.5.5.5.5.5.6.,.+.4             ; O.>.5.5.5.5.5.5.5.5.5.5.5.5.5.5.5.5.,.O.3             : X.,.5.5.5.5.5.5.5.5.5.5.5.5.5.5.5.5.,.O.6             : @.<.5.5.5.5.5.5.5.5.5.5.5.5.5.5.5.5.>.X.;             @ R b.m.m.m.m.m.m.M.m.m.m.m.m.m.M.m.m.b.Q 2                 ",
"                  : | 1.3.5.6.5.5.5.5.5.5.5.5.5.5.5.1.[ 5                 : X.1.5.5.5.5.5.5.5.5.5.5.5.5.5.5.,.X.3                 5 | <.5.5.5.5.5.5.5.5.5.6.5.5.5.5.4.[ 7                 3 | 1.5.5.5.5.5.5.5.5.5.5.5.5.5.5.1...;                 k T c.m.m.m.m.m.m.m.m.m.m.m.m.m.m.v.T @                   ",
"                  ~ s ' 2.5.5.5.5.5.5.5.5.5.5.5.5.1.' i                   ! h ] ,.5.5.5.5.5.5.5.5.5.5.5.5.1.] h /                 ! d ' 2.3.5.6.5.6.5.5.5.5.5.5.6.1.' d                     j ' 2.3.5.5.5.5.5.5.5.5.6.5.5.1.] g !                   z Z v.m.m.m.m.m.m.m.m.m.m.m.m.v.Z N ~                   ",
"                    P p | <.5.5.5.5.5.5.5.5.5.5.,.[ G P                     T h [ ,.5.5.5.5.6.5.6.6.5.5.,.[ g T                     T j [ <.5.5.5.5.5.5.5.5.5.5.,.[ i V                     U G [ ,.5.5.5.5.5.5.5.6.5.5.1.[ h Z                     Z Z T c.m.m.m.m.m.m.m.m.m.m.v.U B U                     ",
"                        6 @.,.5.5.5.5.5.5.5.5.>.o.u (                           u o.<.6.5.5.5.5.5.5.5.>.@.6                             : O.<.5.5.5.5.5.5.5.5.<.@.6                           E 6 @.<.5.5.5.5.5.5.5.5.,.o.u Q                         / k R b.m.m.m.m.m.m.m.m.c.R a                         ",
"                          6 X.,.5.5.5.5.5.5.1...6                               b.6 | 1.5.6.5.5.5.5.<.| 6                                 > X.1.3.5.5.5.5.5.1.X.>                                 6 | <.5.5.5.5.5.5.1...,                                 k U v.m.m.m.m.m.m.v.Y k                           ",
"                          E g ] 4.5.5.5.5.1.' i ^                                 Y h ' ,.5.5.5.5.,.' h /                                 Y d ' 2.5.5.5.5.1.] h E                                   s ' ,.5.5.5.5.2.' G R                                 R z Z v.m.m.m.m.v.Z B Q                           ",
"                            B i [ >.5.5.>.[ G                                       I s [ ,.5.5.,.[ d V                                     C h [ ,.5.3.<.| G V                                       h [ ,.3.5.>.[ i V                                       N U v.m.m.c.T N P                             ",
"                                5 @.<.1.@.5                                             5 o.,.1.@.4 R                                         / 3 @.,.,.o.a ~                                         ~ 5 @.,.,.@.3                                             k R c.b.R a                                 ",
"                                  5 | | 3                                                 > { [ 6                                                 3 [ | 6 n.                                              4 [ { ,                                                 @ T T @                                   ",
"                                    i h E                                                   i g                                                     h g                                                   ~ h p                                                     B N                                     ",
"                                    Z U                                                     B Z                                                     Z B                                                     K V                                                     Z Z                                     ",
"                                                                                                                                                                                                                                                                                                            "
};
